<svg xmlns="http://www.w3.org/2000/svg" width="36.893" height="30.767" viewBox="0 0 36.893 30.767"><g transform="translate(-4728.664 -1298.908)"><path d="M4743.575,1317.573c-1.163-1.227-5.7-5.751-6.166-6.212-.264-.334-1.646-1.971-3.208-1.971a2.142,2.142,0,0,0-1.107.3,6.9,6.9,0,0,1-.2-1.586c.052-.539.307-3.848-.984-5.4a2.255,2.255,0,0,0-1.532-.83,1.006,1.006,0,0,0-.167-.018c-1.36,0-1.534,2.187-1.534,4.095l0,1.061c-.02,3.71-.045,8.326,1.91,10.483,1.7,1.883,5.46,5.985,6.349,6.959v4.483a.732.732,0,0,0,.734.733h8.071a.733.733,0,0,0,.734-.734v-7.75a.748.748,0,0,0-.16-.461C4746.244,1320.655,4744.788,1318.852,4743.575,1317.573Z" fill="#f8a322"/><path d="M4765.545,1307.36c0-.484-.009-.956-.009-1.408,0-1.905-.174-4.095-1.532-4.095a1,1,0,0,0-.167.018,2.235,2.235,0,0,0-1.532.83c-1.291,1.555-1.032,4.861-.981,5.4a6.873,6.873,0,0,1-.2,1.578,2.133,2.133,0,0,0-1.089-.3c-1.557,0-2.926,1.637-3.189,1.972-.464.463-4.955,4.985-6.116,6.209-1.22,1.289-2.591,3.1-2.648,3.178a.739.739,0,0,0-.147.443v7.75a.732.732,0,0,0,.734.733h8.071a.733.733,0,0,0,.734-.734v-4.492c.869-.97,4.549-5.074,6.253-6.954C4765.625,1315.4,4765.584,1311.127,4765.545,1307.36Z" fill="#f8a322"/><path d="M4745.732,1329.674h-8.071a.733.733,0,0,1-.734-.733v-4.483c-.889-.975-4.645-5.076-6.349-6.959-1.955-2.157-1.93-6.773-1.91-10.483l0-1.061c0-1.908.174-4.095,1.534-4.095a.911.911,0,0,1,.167.018,2.255,2.255,0,0,1,1.532.83c1.291,1.552,1.036,4.861.984,5.4a6.9,6.9,0,0,0,.2,1.586,2.143,2.143,0,0,1,1.107-.3c1.562,0,2.944,1.638,3.208,1.972.463.461,5,4.985,6.166,6.212,1.213,1.279,2.669,3.082,2.73,3.157a.743.743,0,0,1,.161.461v7.75a.733.733,0,0,1-.734.734Zm-7.337-1.467h6.6v-6.755c-.415-.507-1.55-1.878-2.492-2.871-1.183-1.252-6.118-6.163-6.168-6.214a.829.829,0,0,1-.062-.071c-.433-.557-1.383-1.44-2.08-1.44a.684.684,0,0,0-.447.163c-.261.573,1.562,3.343,3.76,5.684a.733.733,0,0,1-1.036,1.037c-.206-.193-5.056-4.809-5.056-9.667a.614.614,0,0,1,0-.074c.124-1.233.057-3.506-.649-4.354a.839.839,0,0,0-.362-.268,7.807,7.807,0,0,0-.273,2.577l-.005,1.068c-.018,3.456-.041,7.755,1.532,9.491,1.942,2.141,6.537,7.163,6.537,7.163a.732.732,0,0,1,.193.495Z" fill="#404040"/><path d="M4756.738,1329.674h-8.071a.733.733,0,0,1-.734-.733v-7.75a.739.739,0,0,1,.147-.443c.057-.076,1.428-1.889,2.648-3.178,1.16-1.224,5.652-5.746,6.115-6.209.264-.335,1.633-1.972,3.19-1.972a2.133,2.133,0,0,1,1.089.3,6.873,6.873,0,0,0,.2-1.578c-.051-.541-.31-3.847.981-5.4a2.239,2.239,0,0,1,1.532-.83,1,1,0,0,1,.167-.018c1.358,0,1.532,2.19,1.532,4.095,0,.452,0,.924.009,1.408.039,3.767.08,8.039-1.82,10.135-1.7,1.88-5.384,5.984-6.253,6.954v4.492a.733.733,0,0,1-.734.734Zm-7.337-1.467h6.6v-4.036a.724.724,0,0,1,.188-.488s4.5-5.026,6.445-7.17c1.514-1.672,1.475-5.81,1.44-9.135,0-.49-.009-.967-.009-1.424a7.882,7.882,0,0,0-.27-2.577.824.824,0,0,0-.363.268c-.793.954-.729,3.529-.646,4.355,0,.025,0,.048,0,.075,0,4.859-4.842,9.475-5.049,9.667a.734.734,0,0,1-1.038-1.036c2.2-2.341,4.03-5.111,3.765-5.7a.714.714,0,0,0-.438-.151c-.723,0-1.7.968-2.055,1.438a.618.618,0,0,1-.064.071c-.048.048-4.937,4.964-6.122,6.216-.938.991-2.009,2.357-2.394,2.857Z" fill="#404040"/><path d="M4743.575,1307.556h.948v.947a2.56,2.56,0,0,0,2.587,2.588,2.631,2.631,0,0,0,2.588-2.526v-.947h.947a2.588,2.588,0,1,0,0-5.175h-.947v-.948a2.588,2.588,0,0,0-5.175,0v.883l-.948,0a2.588,2.588,0,1,0,0,5.175Zm0-3.851h2.211v-2.21a1.324,1.324,0,1,1,2.649,0l0,2.21h2.21a1.325,1.325,0,1,1,0,2.65h-2.21v2.21a1.325,1.325,0,1,1-2.65,0v-2.21h-2.208a1.325,1.325,0,1,1,0-2.65Z" fill="#404040"/></g></svg>