<svg xmlns="http://www.w3.org/2000/svg" width="207.914" height="168.954" viewBox="0 0 207.914 168.954"><g transform="translate(-4435.086 -3062.089)"><rect width="69.233" height="90.639" transform="translate(4435.281 3062.284)" fill="#fff"/><path d="M4504.515,3153.118h-69.234a.194.194,0,0,1-.195-.195v-90.639a.194.194,0,0,1,.195-.195h69.234a.2.2,0,0,1,.195.195v90.639A.2.2,0,0,1,4504.515,3153.118Zm-69.039-.39h68.844v-90.249h-68.844Z" fill="#404040"/><path d="M4469.9,3153.1a.2.2,0,0,1-.195-.2v-90.62a.195.195,0,0,1,.39,0v90.62A.2.2,0,0,1,4469.9,3153.1Z" fill="#404040"/><path d="M4469.9,3086.493h-34.617a.195.195,0,0,1,0-.39H4469.9a.195.195,0,0,1,0,.39Z" fill="#404040"/><path d="M4492.893,3227.075a.557.557,0,0,1-.557-.558V3067.346a.558.558,0,0,1,1.115,0v159.171A.558.558,0,0,1,4492.893,3227.075Z" fill="#404040"/><path d="M4502.182,3227.075H4483.6a.557.557,0,1,1,0-1.115h18.577a.557.557,0,0,1,0,1.115Z" fill="#404040"/><path d="M4502.7,3228.78a2.263,2.263,0,1,1-2.263-2.263A2.263,2.263,0,0,1,4502.7,3228.78Z" fill="#404040"/><circle cx="2.263" cy="2.263" r="2.263" transform="translate(4483.248 3226.517)" fill="#404040"/><path d="M4504.514,3077.071a.558.558,0,0,1-.557-.549l-.065-4.066a3.813,3.813,0,0,1-2-2.3,4.37,4.37,0,0,1,.23-2.768H4483.9a4.4,4.4,0,0,1,.76,2.62,3.48,3.48,0,0,1-1.558,2.552.558.558,0,1,1-.662-.9,2.387,2.387,0,0,0,1.107-1.738,4.149,4.149,0,0,0-1.174-2.7.558.558,0,0,1,.4-.949h20.244a.558.558,0,0,1,.467.862,3.837,3.837,0,0,0-.519,2.722,2.905,2.905,0,0,0,1.717,1.75.559.559,0,0,1,.322.5l.07,4.4a.557.557,0,0,1-.548.566Z" fill="#404040"/><rect width="3.659" height="2.365" rx="0.195" transform="translate(4502.685 3099.611)" fill="#d2deea"/><path d="M4506.149,3099.806v1.975h-3.269v-1.975h3.269m0-.39h-3.269a.389.389,0,0,0-.39.39v1.975a.389.389,0,0,0,.39.39h3.269a.389.389,0,0,0,.39-.39v-1.975a.389.389,0,0,0-.39-.39Z" fill="#404040"/><rect width="19.801" height="24.092" rx="4.637" transform="translate(4494.614 3076.318)" fill="#d2deea"/><path d="M4509.778,3076.514a4.442,4.442,0,0,1,4.442,4.441v14.818a4.443,4.443,0,0,1-4.442,4.442h-10.527a4.442,4.442,0,0,1-4.442-4.442v-14.818a4.441,4.441,0,0,1,4.442-4.441h10.527m0-.391h-10.527a4.838,4.838,0,0,0-4.832,4.832v14.818a4.838,4.838,0,0,0,4.832,4.832h10.527a4.837,4.837,0,0,0,4.832-4.832v-14.818a4.837,4.837,0,0,0-4.832-4.832Z" fill="#404040"/><path d="M4509.708,3100.215h-.954v-23.7h.954a4.461,4.461,0,0,1,4.461,4.46v14.78A4.461,4.461,0,0,1,4509.708,3100.215Z" fill="#fff"/><rect width="6.36" height="3.811" transform="translate(4501.334 3085.923)" fill="#fff"/><path d="M4510.569,3141.488a6.254,6.254,0,0,1-6.249-6.254v-33.453a.2.2,0,1,1,.39,0v33.453a5.861,5.861,0,0,0,5.975,5.862l.417-.008a5.862,5.862,0,0,0,5.742-6.178.2.2,0,1,1,.39-.021,6.254,6.254,0,0,1-6.125,6.59l-.416.008Z" fill="#404040"/><path d="M4517.229,3124.031c-6.217,0-12.24-6.313-12.493-6.582a.2.2,0,0,1-.053-.12l-.363-5.036a.2.2,0,0,1,.27-.194,25.236,25.236,0,0,0,9.254,2.336h0c6.267,0,7.464-5.12,8.52-9.637.711-3.042,1.383-5.916,3.55-6.733a1.307,1.307,0,0,1,.465-.09c2.5,0,2.572,8.188,2.572,9.121,0,.011,0,.021,0,.032-1.837,11.216-5.781,16.9-11.722,16.9Z" fill="#004890"/><path d="M4526.381,3098.17c2.373,0,2.377,8.926,2.377,8.926-2.133,13.028-6.847,16.74-11.529,16.74-6.205,0-12.351-6.521-12.351-6.521l-.363-5.036a25.044,25.044,0,0,0,9.331,2.351c10.691,0,6.956-14.427,12.138-16.383a1.109,1.109,0,0,1,.4-.077m0-.391a1.514,1.514,0,0,0-.535.1c-2.264.855-2.947,3.778-3.67,6.872a20.154,20.154,0,0,1-2.294,6.485,6.69,6.69,0,0,1-6.036,3,25.053,25.053,0,0,1-9.181-2.321.373.373,0,0,0-.15-.031.387.387,0,0,0-.228.074.392.392,0,0,0-.162.345l.364,5.036a.387.387,0,0,0,.105.239c.256.272,6.334,6.644,12.635,6.644a8.726,8.726,0,0,0,7.026-3.632c2.247-2.829,3.892-7.349,4.888-13.435a.456.456,0,0,0,0-.063,39.387,39.387,0,0,0-.3-4.515c-.431-3.231-1.237-4.8-2.465-4.8Z" fill="#404040"/><path d="M4529.65,3131.938l13.165-1.734c16.375,20.286.413,89.072.413,89.072h-10.113v-11.714L4520.81,3177.2l8.84-45.266" fill="#004890"/><path d="M4543.228,3219.471h-10.113a.2.2,0,0,1-.2-.2V3207.6l-12.29-30.323a.2.2,0,0,1-.011-.11l8.841-45.267a.2.2,0,0,1,.166-.156l13.165-1.734a.2.2,0,0,1,.177.071c3.76,4.658,6.12,12.256,7.015,22.582a164.857,164.857,0,0,1-.626,29.7,327.569,327.569,0,0,1-5.938,36.954A.194.194,0,0,1,4543.228,3219.471Zm-9.918-.39h9.763a328.653,328.653,0,0,0,5.895-36.757,164.389,164.389,0,0,0,.625-29.629c-.883-10.184-3.191-17.68-6.861-22.284l-12.917,1.7-8.8,45.071,12.283,30.3a.187.187,0,0,1,.015.074Z" fill="#404040"/><path d="M4534.182,3228.309l2.764-2.473-1.11-6.56h5.743l-.961,7.579S4537.626,3229.419,4534.182,3228.309Z" fill="#fff"/><path d="M4535.98,3228.786a6.024,6.024,0,0,1-1.858-.291.2.2,0,0,1-.07-.332l2.683-2.4-1.092-6.454a.2.2,0,0,1,.044-.159.193.193,0,0,1,.149-.069h5.743a.194.194,0,0,1,.193.22l-.96,7.579a.19.19,0,0,1-.067.123A8.022,8.022,0,0,1,4535.98,3228.786Zm-1.4-.567a7.241,7.241,0,0,0,5.859-1.466l.923-7.282h-5.29l1.071,6.333a.2.2,0,0,1-.063.178Z" fill="#404040"/><path d="M4544.987,3210.769l2.808,8.008s.3,4.677-3.354,5.7l.372-3.791-1.585-1.413Z" fill="#fff"/><path d="M4544.441,3224.675a.194.194,0,0,1-.194-.214l.362-3.693-1.511-1.346a.194.194,0,0,1-.061-.185l1.759-8.507a.195.195,0,0,1,.375-.026l2.809,8.008a.269.269,0,0,1,.01.052c0,.049.264,4.848-3.5,5.9A.19.19,0,0,1,4544.441,3224.675Zm-1-5.469,1.5,1.337a.2.2,0,0,1,.065.165l-.343,3.5c3.043-1.081,2.952-5.034,2.938-5.39l-2.566-7.317Z" fill="#404040"/><path d="M4534.444,3227.85c2.438,1.323,6.272-1.769,6.272-1.769l1.377,4.364-12.078.231Z" fill="#404040"/><path d="M4544.327,3223.856c2.671-.746,3.273-5.635,3.273-5.635l4.026,2.176-8.513,8.571Z" fill="#404040"/><path d="M4520.287,3172.337a.2.2,0,0,1-.185-.189c0-.184-.539-18.61-.1-36.838.255-10.71.789-19.258,1.588-25.407,1.025-7.9,2.462-11.772,4.391-11.851h.008a.2.2,0,0,1,.166.092l2.1,3.363,5.327-7.079a.193.193,0,0,1,.156-.078.229.229,0,0,1,.056.008,40.37,40.37,0,0,0,4.375,1.086c.706.093,1.915,1.333,4.254,10.982,1.457,6.013,3.115,14.365,4.795,24.152,3.116,18.157,5.651,37.53,5.651,43.186a.194.194,0,0,1-.2.2Z" fill="#004890"/><path d="M4533.735,3094.545a40.531,40.531,0,0,0,4.406,1.092c4.312.571,14.53,66.652,14.53,78.127l-32.374-1.622s-2.176-73.575,5.687-73.9l2.253,3.6,5.5-7.306m0-.39a.389.389,0,0,0-.312.156l-5.156,6.851-1.952-3.122a.389.389,0,0,0-.331-.183h-.016c-2.068.084-3.522,3.9-4.577,12.021-.8,6.156-1.334,14.711-1.589,25.427-.434,18.234.1,36.665.105,36.849a.39.39,0,0,0,.371.378l32.373,1.622h.02a.391.391,0,0,0,.39-.391c0-5.665-2.536-25.053-5.654-43.219-1.68-9.791-3.339-18.147-4.8-24.165a76.011,76.011,0,0,0-2.24-7.827c-1.031-2.808-1.705-3.24-2.177-3.3a40.46,40.46,0,0,1-4.345-1.08.4.4,0,0,0-.112-.016Z" fill="#404040"/><path d="M4528.758,3084.905l-2.172-2.891-4.8.564-3.079,7.034,2.756,4.66a4.483,4.483,0,0,0,4.078,2.278v-.012l.44,1.709,2.846,8.223,4.381-11.229-2.51-6.891s3.025-.927,1.522-3.3-3.465-.14-3.465-.14" fill="#fff"/><path d="M4528.83,3106.665h0a.194.194,0,0,1-.18-.131l-2.846-8.223-.4-1.563a4.656,4.656,0,0,1-4.1-2.38l-2.754-4.656a.2.2,0,0,1-.01-.178l3.078-7.034a.2.2,0,0,1,.156-.116l4.8-.563a.2.2,0,0,1,.179.076l2.036,2.71a2.765,2.765,0,0,1,1.952-.845,2.646,2.646,0,0,1,2,3.15,3.076,3.076,0,0,1-1.775,1.556l2.443,6.706a.2.2,0,0,1,0,.138l-4.381,11.229A.2.2,0,0,1,4528.83,3106.665Zm-3.283-10.316a.189.189,0,0,1,.186.14l.44,1.71,2.668,7.706,4.162-10.667-2.485-6.821a.2.2,0,0,1,.009-.154.2.2,0,0,1,.117-.1c.014,0,1.364-.431,1.718-1.389a1.817,1.817,0,0,0-.3-1.624,1.848,1.848,0,0,0-1.357-1,2.618,2.618,0,0,0-1.8.883.2.2,0,0,1-.155.066.193.193,0,0,1-.148-.077l-2.1-2.8-4.574.538-2.993,6.84,2.7,4.574a4.273,4.273,0,0,0,3.856,2.183l.025,0A.168.168,0,0,1,4525.547,3096.349Z" fill="#404040"/><path d="M4524.134,3093a.181.181,0,0,1-.056-.008l-.5-.151a.8.8,0,0,1-.277-1.391l-1-1.6a.2.2,0,0,1,.331-.207l1.106,1.768a.191.191,0,0,1,.021.162.2.2,0,0,1-.109.121.412.412,0,0,0,.042.774l.5.151a.2.2,0,0,1-.056.382Z" fill="#404040"/><path d="M4531.85,3085.795a.193.193,0,0,1-.156-.079,1.579,1.579,0,0,0-1.091-.735,1.205,1.205,0,0,0-.859.317.2.2,0,0,1-.276,0,.2.2,0,0,1,0-.276,1.579,1.579,0,0,1,1.162-.429,1.937,1.937,0,0,1,1.375.891.195.195,0,0,1-.156.312Z" fill="#404040"/><path d="M4530.706,3087.125a.2.2,0,0,1-.188-.142,2.657,2.657,0,0,1,.391-2.193.195.195,0,1,1,.311.235,2.3,2.3,0,0,0-.326,1.853.2.2,0,0,1-.135.24A.184.184,0,0,1,4530.706,3087.125Z" fill="#404040"/><path d="M4526.752,3085.476a4.844,4.844,0,0,1-4.314-3.045.2.2,0,0,1,.366-.135,4.349,4.349,0,0,0,5.889,2.425.2.2,0,0,1,.13.368A6.192,6.192,0,0,1,4526.752,3085.476Z" fill="#404040"/><path d="M4517.151,3086.846a4.507,4.507,0,0,1,.369-4.966,10.3,10.3,0,0,1,6.8-3.816,4.471,4.471,0,0,1,4.6,2.231l2.1,3.72c-1.177-.348-2.265.89-2.265.89h0c-3.9.123-5.588-1.731-5.588-1.731s-1.3,4.762-4.579,6.613Z" fill="#404040"/><path d="M4523.262,3087.888a.183.183,0,0,1-.05-.007.2.2,0,0,1-.139-.239,1.4,1.4,0,0,1,1.684-.981.2.2,0,1,1-.072.384,1.006,1.006,0,0,0-1.234.7A.2.2,0,0,1,4523.262,3087.888Z" fill="#404040"/><path d="M4519.669,3089.837a.18.18,0,0,1-.05-.007.2.2,0,0,1-.139-.238,1.17,1.17,0,0,1,1.3-.9.2.2,0,0,1,.167.22.192.192,0,0,1-.219.167.78.78,0,0,0-.867.609A.2.2,0,0,1,4519.669,3089.837Z" fill="#404040"/><line y1="29.64" transform="translate(4533.115 3177.922)" fill="#fff"/><path d="M4533.115,3207.757a.2.2,0,0,1-.2-.2v-29.64a.2.2,0,0,1,.391,0v29.64A.2.2,0,0,1,4533.115,3207.757Z" fill="#404040"/><path d="M4527.941,3099.328a3.869,3.869,0,0,1-1.74-.367.195.195,0,1,1,.191-.34c.112.062,2.742,1.466,6.072-1.959a.194.194,0,0,1,.276,0,.2.2,0,0,1,0,.276A6.724,6.724,0,0,1,4527.941,3099.328Z" fill="#404040"/><path d="M4524.483,3094.932a.195.195,0,0,1-.018-.389,2.512,2.512,0,0,0,1.956-1.554.2.2,0,0,1,.359.154,2.9,2.9,0,0,1-2.28,1.789Z" fill="#404040"/><path d="M4524.349,3088.947a1.3,1.3,0,0,1-.162-.011.2.2,0,1,1,.052-.387.514.514,0,0,0,.608-.351.195.195,0,0,1,.377.1A.89.89,0,0,1,4524.349,3088.947Z" fill="#404040"/><path d="M4521.1,3091.033a1.3,1.3,0,0,1-.162-.011.2.2,0,1,1,.052-.387.514.514,0,0,0,.608-.352.2.2,0,0,1,.377.1A.89.89,0,0,1,4521.1,3091.033Z" fill="#404040"/><path d="M4.623,0h50.2A4.623,4.623,0,0,1,59.45,4.623V27.844a7.35,7.35,0,0,1-7.35,7.35H7.35A7.35,7.35,0,0,1,0,27.844V4.623A4.623,4.623,0,0,1,4.623,0Z" transform="translate(4516.69 3172.142) rotate(180)" fill="#d2deea"/><path d="M4516.69,3172.337h-59.45a.2.2,0,0,1-.2-.195v-28.189a7.207,7.207,0,0,1,7.2-7.2h45.443a7.208,7.208,0,0,1,7.2,7.2v28.189A.2.2,0,0,1,4516.69,3172.337Zm-59.255-.39h59.06v-27.994a6.816,6.816,0,0,0-6.808-6.809h-45.443a6.817,6.817,0,0,0-6.809,6.809Z" fill="#404040"/><path d="M4468.72,3132.031s-5.057,10.756,11.183,34.542l8.459,0Z" fill="#404040"/><path d="M4486.042,3166.9l32.324-.321s-3.425-24.66-14.437-36.342a14.454,14.454,0,0,0-11.418-4.5l-19.58,1.224a6.022,6.022,0,0,0-3.269,9.331C4479.291,3149.659,4486.042,3166.9,4486.042,3166.9Z" fill="#fff"/><path d="M4486.042,3167.09a.194.194,0,0,1-.181-.124c-.068-.172-6.854-17.367-16.357-30.567a6.218,6.218,0,0,1,3.375-9.633.168.168,0,0,1,.04-.007l19.58-1.224a14.6,14.6,0,0,1,11.572,4.563c5.715,6.063,9.35,15.653,11.393,22.631a108.251,108.251,0,0,1,3.1,13.818.2.2,0,0,1-.045.155.2.2,0,0,1-.146.067l-32.324.321Zm-13.079-39.943a5.828,5.828,0,0,0-3.142,9.024c9.1,12.644,15.717,28.935,16.353,30.527l31.966-.317a109.525,109.525,0,0,0-3.052-13.548c-2.031-6.935-5.64-16.462-11.3-22.467a14.225,14.225,0,0,0-11.264-4.441Z" fill="#404040"/><rect width="59.515" height="11.852" transform="translate(4642.805 3189.564) rotate(180)" fill="#d2deea"/><path d="M4642.805,3189.759H4583.29a.2.2,0,0,1-.195-.2v-11.853a.194.194,0,0,1,.195-.195h59.515a.194.194,0,0,1,.195.195v11.853A.2.2,0,0,1,4642.805,3189.759Zm-59.32-.39h59.125v-11.463h-59.125Z" fill="#404040"/><path d="M4527.829,3124.713l2.649-1.427a.749.749,0,0,1,1.012.3h0a.747.747,0,0,1-.3,1.012l-2.841,1.615-1.028.529-.209-1.567Z" fill="#fff"/><path d="M4527.317,3126.942a.2.2,0,0,1-.194-.17l-.208-1.567a.194.194,0,0,1,.088-.19l.72-.466.013-.008,2.649-1.426a.942.942,0,1,1,.894,1.659l-2.837,1.613-1.036.533A.194.194,0,0,1,4527.317,3126.942Zm0-1.666.156,1.17.782-.4,2.834-1.61a.553.553,0,1,0-.52-.975l-2.642,1.423Z" fill="#404040"/><path d="M4527.781,3124.711l2.366-2.131a.747.747,0,0,0,.06-1.055h0a.748.748,0,0,0-1.055-.06l-2.145,1.934-.341,1.355Z" fill="#fff"/><path d="M4526.666,3124.95a.2.2,0,0,1-.19-.243l.342-1.356a.2.2,0,0,1,.058-.1l2.145-1.934a.948.948,0,0,1,.682-.238.943.943,0,0,1,.574,1.644l-2.365,2.13a.2.2,0,0,1-.123.05l-1.116.043Zm1.115-.239h0Zm-.6-1.207-.264,1.045.785-.03,2.313-2.084a.552.552,0,1,0-.734-.824Z" fill="#404040"/><path d="M4527.644,3125.965a2.493,2.493,0,0,0-.637-2.566,3.453,3.453,0,0,0-.836-2.863.514.514,0,0,0-.888.4c.154,1.484.175,3.13.175,3.13l-2.458,1.119c-1.657.862-7.223,5.016-16.212,4.457-3.952-.245-11.374-1.384-11.947-4.1l1.057,4.152c9.366,19.136,30.016-.674,30.016-.674l2.753-1.794,2.425-.245a.605.605,0,0,0,.541-.663h0a.6.6,0,0,0-.663-.541l-2.425.245" fill="#fff"/><path d="M4507.51,3138.224a12.36,12.36,0,0,1-2.17-.186c-4.052-.718-7.288-3.5-9.617-8.254a.154.154,0,0,1-.014-.038l-1.024-4.02c-.013-.046-.025-.092-.035-.139a.2.2,0,0,1,.38-.089l.033.132c.751,2.488,7.967,3.586,11.737,3.821a25.6,25.6,0,0,0,15.292-3.966c.338-.2.6-.36.818-.471l2.351-1.07c-.009-.413-.045-1.762-.172-2.985a.7.7,0,0,1,.419-.722.692.692,0,0,1,.808.168,3.641,3.641,0,0,1,.9,2.923,2.629,2.629,0,0,1,.615,2.707.2.2,0,0,1-.365-.139,2.277,2.277,0,0,0-.588-2.355.2.2,0,0,1-.061-.166,3.26,3.26,0,0,0-.786-2.708.306.306,0,0,0-.36-.074.315.315,0,0,0-.19.326c.153,1.476.176,3.131.177,3.147a.2.2,0,0,1-.115.181l-2.458,1.118c-.194.1-.457.258-.789.455a25.962,25.962,0,0,1-15.516,4.02c-3.584-.222-9.386-1.113-11.426-3.087l.732,2.877c2.271,4.63,5.408,7.329,9.326,8.024,9.37,1.663,20.262-8.666,20.371-8.771a.214.214,0,0,1,.029-.023l2.752-1.794a.2.2,0,0,1,.087-.03l2.425-.245a.41.41,0,1,0-.082-.816l-2.425.245a.193.193,0,0,1-.214-.175.2.2,0,0,1,.175-.214l2.424-.244a.8.8,0,1,1,.161,1.592l-2.377.24-2.7,1.759a44.6,44.6,0,0,1-6.7,5.06C4516.234,3136.142,4511.85,3138.223,4507.51,3138.224Z" fill="#404040"/><rect width="126.05" height="11.852" transform="translate(4583.29 3189.564) rotate(180)" fill="#d2deea"/><path d="M4583.29,3189.759H4457.24a.2.2,0,0,1-.2-.2v-11.853a.2.2,0,0,1,.2-.195h126.05a.194.194,0,0,1,.195.195v11.853A.2.2,0,0,1,4583.29,3189.759Zm-125.855-.39H4583.1v-11.463h-125.66Z" fill="#404040"/><path d="M4494.617,3126.8s13.527,2.679,26.051,27.378c1.742,3.437-1.72,7.715-1.72,7.715l-10.093,3.54s-9.679-9.787-14.076-18.477l-7.665,1.744s-3.821-6.185-3.123-15.806a9.838,9.838,0,0,1,3.181-6.16l6.6,1.253C4494.546,3126.318,4494.617,3126.8,4494.617,3126.8Z" fill="#fff"/><path d="M4508.855,3165.631a.193.193,0,0,1-.139-.058c-.1-.1-9.649-9.806-14.042-18.389l-7.517,1.71a.2.2,0,0,1-.209-.088,28.758,28.758,0,0,1-3.152-15.924,9.927,9.927,0,0,1,3.25-6.294.192.192,0,0,1,.162-.042l6.451,1.224c.556-1.173.759-1.25.934-1.225a.244.244,0,0,1,.154.086c.584.136,3.778,1,8.317,4.443s11.291,10.227,17.777,23.019c1.78,3.509-1.6,7.747-1.741,7.926a.2.2,0,0,1-.087.061l-10.094,3.54A.184.184,0,0,1,4508.855,3165.631Zm-14.076-18.867a.2.2,0,0,1,.174.107c4.113,8.128,12.982,17.343,13.954,18.34l9.922-3.481c.347-.45,3.239-4.356,1.664-7.461-3.556-7.013-9.5-16.673-17.637-22.863-4.861-3.7-8.243-4.405-8.277-4.412a.2.2,0,0,1-.034-.01,5.61,5.61,0,0,0-.6,1.088.194.194,0,0,1-.213.11l-6.5-1.235a9.668,9.668,0,0,0-3.045,5.964,28.685,28.685,0,0,0,3.025,15.57l7.526-1.712A.219.219,0,0,1,4494.779,3146.764Zm24.169,15.132h0Z" fill="#404040"/><path d="M4496.318,3146.817a.195.195,0,0,1-.057-.381l2.739-.847c-.209-1.24-1.718-9.146-6.543-11.711a.2.2,0,1,1,.183-.345c2.826,1.5,4.518,4.736,5.439,7.184a26.565,26.565,0,0,1,1.334,4.982.2.2,0,0,1-.135.213l-2.9.9A.2.2,0,0,1,4496.318,3146.817Z" fill="#404040"/><path d="M4619.637,3140.99" fill="none" stroke="#404040" stroke-linecap="round" stroke-linejoin="round" stroke-width="0.468"/><path d="M0,0H59.45a0,0,0,0,1,0,0V33.126a2.727,2.727,0,0,1-2.727,2.727h-54A2.727,2.727,0,0,1,0,33.126V0A0,0,0,0,1,0,0Z" transform="translate(4642.805 3177.674) rotate(180)" fill="#fff"/><path d="M4642.805,3177.87h-59.451a.2.2,0,0,1-.195-.2v-28.848a7.207,7.207,0,0,1,7.2-7.2H4635.8a7.207,7.207,0,0,1,7.2,7.2v28.848A.2.2,0,0,1,4642.805,3177.87Zm-59.256-.391h59.061v-28.653a6.816,6.816,0,0,0-6.809-6.809h-45.443a6.817,6.817,0,0,0-6.809,6.809Z" fill="#404040"/><path d="M4631.046,3148.3H4624.1a1.733,1.733,0,0,1,0-3.466h6.947a1.733,1.733,0,0,1,0,3.466Zm-6.947-3.075a1.342,1.342,0,1,0,0,2.684h6.947a1.342,1.342,0,1,0,0-2.684Z" fill="#404040"/><path d="M4616.623,3148.3h-6.947a1.733,1.733,0,0,1,0-3.466h6.947a1.733,1.733,0,0,1,0,3.466Zm-6.947-3.075a1.342,1.342,0,1,0,0,2.684h6.947a1.342,1.342,0,0,0,0-2.684Z" fill="#404040"/><path d="M4602.2,3148.3h-6.947a1.733,1.733,0,0,1,0-3.466h6.947a1.733,1.733,0,0,1,0,3.466Zm-6.947-3.075a1.342,1.342,0,0,0,0,2.684h6.947a1.342,1.342,0,1,0,0-2.684Z" fill="#404040"/><rect width="126.114" height="11.138" transform="translate(4583.354 3177.711) rotate(180)" fill="#fff"/><path d="M4583.354,3177.906H4457.24a.2.2,0,0,1-.2-.2v-11.138a.2.2,0,0,1,.2-.2h126.114a.2.2,0,0,1,.195.2v11.138A.194.194,0,0,1,4583.354,3177.906Zm-125.919-.39h125.724v-10.748H4457.435Z" fill="#404040"/><rect width="5.343" height="41.027" transform="translate(4637.461 3189.649)" fill="#d2deea"/><path d="M4642.805,3230.871h-5.344a.2.2,0,0,1-.195-.2v-41.027a.2.2,0,0,1,.195-.195h5.344a.194.194,0,0,1,.195.195v41.027A.2.2,0,0,1,4642.805,3230.871Zm-5.148-.39h4.953v-40.637h-4.953Z" fill="#404040"/><rect width="5.343" height="41.027" transform="translate(4583.253 3189.649)" fill="#d2deea"/><path d="M4588.6,3230.871h-5.344a.2.2,0,0,1-.195-.2v-41.027a.2.2,0,0,1,.195-.195h5.344a.194.194,0,0,1,.195.195v41.027A.2.2,0,0,1,4588.6,3230.871Zm-5.148-.39h4.953v-40.637h-4.953Z" fill="#404040"/><rect width="5.343" height="41.027" transform="translate(4511.462 3189.649)" fill="#d2deea"/><path d="M4516.805,3230.871h-5.343a.2.2,0,0,1-.195-.2v-41.027a.194.194,0,0,1,.195-.195h5.343a.194.194,0,0,1,.195.195v41.027A.2.2,0,0,1,4516.805,3230.871Zm-5.148-.39h4.953v-40.637h-4.953Z" fill="#404040"/><path d="M4509.411,3166.3a.2.2,0,0,1-.163-.09.2.2,0,0,1-.014-.186l8.19-18.046a.194.194,0,0,1,.133-.109,102.054,102.054,0,0,1,23.043-2.617c24.654,0,42.424,8.791,42.6,8.88a.2.2,0,0,1,.108.174l.026,12.262a.2.2,0,0,1-.195.2Z" fill="#d2deea"/><path d="M4540.6,3145.451c24.893,0,42.513,8.859,42.513,8.859l.026,12.261-73.727-.463,8.19-18.046a101.561,101.561,0,0,1,23-2.611m0-.391v0a102.209,102.209,0,0,0-23.087,2.622.389.389,0,0,0-.267.218l-8.189,18.046a.39.39,0,0,0,.353.552l73.726.463h0a.388.388,0,0,0,.275-.113.393.393,0,0,0,.115-.278l-.026-12.261a.39.39,0,0,0-.215-.348,79.814,79.814,0,0,0-11.987-4.455,110.214,110.214,0,0,0-30.7-4.446Z" fill="#404040"/><path d="M4516,3166.574h-9.211s6.062-15.345,10.814-18.512C4515.628,3156.137,4515.5,3162.623,4516,3166.574Z" fill="#fff"/><path d="M4516,3166.769h-9.211a.2.2,0,0,1-.161-.085.192.192,0,0,1-.02-.181c.248-.629,6.139-15.439,10.886-18.6a.2.2,0,0,1,.3.209c-2.336,9.562-1.9,16.082-1.6,18.442a.2.2,0,0,1-.194.219Zm-8.922-.39h8.7c-.292-2.5-.637-8.78,1.508-17.843C4513.053,3151.942,4507.883,3164.393,4507.077,3166.379Z" fill="#404040"/><rect width="5.343" height="3.011" transform="translate(4637.461 3227.665)" fill="#404040"/><rect width="5.343" height="3.011" transform="translate(4583.253 3227.665)" fill="#404040"/><rect width="5.343" height="3.011" transform="translate(4511.462 3227.665)" fill="#404040"/><path d="M4484.657,3117.337s-3.122.045-2.247,2.863,3.675,1.035,3.675,1.035l1.2,5.6,10.164,2.07-2.61-3.356-.537-1.619a4.705,4.705,0,0,0,2.8-6.035l-1.846-5.374s-3.44-5.373-8.57-3.176S4484.657,3117.337,4484.657,3117.337Z" fill="#fff"/><path d="M4497.451,3129.1a.174.174,0,0,1-.039,0l-10.164-2.07a.194.194,0,0,1-.152-.15l-1.146-5.338a3.168,3.168,0,0,1-2.39.329,2.282,2.282,0,0,1-1.336-1.606,2.307,2.307,0,0,1,.185-2.119,2.841,2.841,0,0,1,1.947-.974,7.471,7.471,0,0,1-.546-5.214,4.753,4.753,0,0,1,2.8-2.789c5.22-2.235,8.775,3.2,8.811,3.251a.18.18,0,0,1,.02.042l1.845,5.374a4.9,4.9,0,0,1-2.74,6.213l.468,1.411,2.59,3.329a.195.195,0,0,1-.154.315Zm-10-2.431,9.522,1.94-2.286-2.94a.186.186,0,0,1-.031-.058l-.537-1.62a.193.193,0,0,1,.118-.244,4.511,4.511,0,0,0,2.683-5.785l-1.839-5.354a9.839,9.839,0,0,0-2.308-2.347,5.852,5.852,0,0,0-6.009-.737,4.381,4.381,0,0,0-2.586,2.559c-.827,2.355.636,5.137.651,5.165a.195.195,0,0,1-.169.287,2.744,2.744,0,0,0-1.936.838,1.945,1.945,0,0,0-.128,1.772,1.92,1.92,0,0,0,1.1,1.356,3.086,3.086,0,0,0,2.286-.428.195.195,0,0,1,.3.124Z" fill="#404040"/><path d="M4494.13,3115.082c.1.27.315.44.483.379s.222-.331.123-.6-.315-.441-.482-.38S4494.031,3114.811,4494.13,3115.082Z" fill="#404040"/><path d="M4490.155,3116.538c.1.271.315.44.482.379s.222-.33.123-.6-.315-.441-.482-.379S4490.055,3116.267,4490.155,3116.538Z" fill="#404040"/><path d="M4492.211,3124.993a.195.195,0,0,1-.074-.375l2.309-.954a.195.195,0,1,1,.149.36l-2.309.954A.2.2,0,0,1,4492.211,3124.993Z" fill="#404040"/><path d="M4494.117,3119.22a.194.194,0,0,1-.178-.274l.222-.506a.441.441,0,0,0-.6-.573.194.194,0,0,1-.273-.117l-.658-2.087a.2.2,0,1,1,.372-.117l.6,1.9a.833.833,0,0,1,.92,1.154l-.222.506A.2.2,0,0,1,4494.117,3119.22Z" fill="#404040"/><path d="M4483.106,3120.474a.2.2,0,0,1-.191-.152,2.03,2.03,0,0,1,.223-1.7,1.676,1.676,0,0,1,1.128-.632.2.2,0,0,1,.033.389,1.293,1.293,0,0,0-.848.477,1.667,1.667,0,0,0-.155,1.377.2.2,0,0,1-.147.233A.224.224,0,0,1,4483.106,3120.474Z" fill="#404040"/><path d="M4484.947,3120.467a.2.2,0,0,1-.162-.087,2.408,2.408,0,0,0-1.708-1,.2.2,0,0,1-.184-.206.192.192,0,0,1,.206-.183,2.778,2.778,0,0,1,2.01,1.177.194.194,0,0,1-.053.27A.191.191,0,0,1,4484.947,3120.467Z" fill="#404040"/><path d="M4487.994,3148.447s3.145,10.963,7.89,13c5.908,2.531,17.17-8.417,21.106-12.523a2.224,2.224,0,0,0,.056-3.015h0a2.223,2.223,0,0,0-2.762-.458c-3.864,2.2-13.7,7.629-15.416,6.992-2.151-.8-2.55-5.817-2.55-5.817Z" fill="#fff"/><path d="M4497.84,3162.014a5.118,5.118,0,0,1-2.033-.391c-4.775-2.046-7.871-12.671-8-13.122a.191.191,0,0,1,.019-.154.2.2,0,0,1,.126-.091l8.324-1.825a.2.2,0,0,1,.237.175c0,.049.413,4.906,2.423,5.65,1.131.419,6.833-2.19,15.251-6.978a2.42,2.42,0,0,1,2.944,3.777,78.776,78.776,0,0,1-9.84,8.773C4503.45,3160.613,4500.284,3162.014,4497.84,3162.014Zm-9.6-13.422c.455,1.491,3.463,10.848,7.72,12.672,5.87,2.516,17.472-8.916,20.888-12.479a2.03,2.03,0,0,0-2.469-3.168c-5.08,2.89-13.862,7.643-15.58,7.005-2-.741-2.548-4.755-2.655-5.762Z" fill="#404040"/><path d="M4493.966,3121.187a5.526,5.526,0,0,1-1.066-.1.2.2,0,0,1,.075-.383,5.167,5.167,0,0,0,1.454.075.2.2,0,1,1,.035.389Q4494.215,3121.187,4493.966,3121.187Z" fill="#404040"/><path d="M4517.12,3135.222a.2.2,0,0,1-.2-.185l-.261-4.84a.2.2,0,0,1,.39-.021l.261,4.84a.2.2,0,0,1-.184.206Z" fill="#404040"/><path d="M4515.907,3133a.2.2,0,0,1-.187-.141l-1.028-3.545a.2.2,0,0,1,.133-.242l2.034-.59a.2.2,0,0,1,.054-.008.2.2,0,0,1,.188.141l1.028,3.546a.189.189,0,0,1-.016.148.194.194,0,0,1-.117.093l-2.034.59A.179.179,0,0,1,4515.907,3133Z" fill="#d2deea"/><path d="M4516.914,3128.673l1.028,3.546-2.034.59-1.029-3.546,2.035-.59m0-.39a.366.366,0,0,0-.109.016l-2.034.589a.391.391,0,0,0-.266.484l1.028,3.546a.388.388,0,0,0,.375.281.4.4,0,0,0,.108-.015l2.034-.59a.391.391,0,0,0,.267-.484l-1.029-3.545a.386.386,0,0,0-.186-.233.391.391,0,0,0-.188-.049Z" fill="#404040"/><path d="M4490.95,3107.154a9.721,9.721,0,0,0-3.738.165c-.017-.03-.029-.062-.047-.093a4.675,4.675,0,1,0-5.842,6.614c.016.078.03.156.05.233l1.084,4.247c.625-1.093,2.311-.947,2.311-.947a25.026,25.026,0,0,0,4.309-1.31,7.42,7.42,0,0,0,.027-2.755,12.823,12.823,0,0,1,1.353,2.185c.7-.3,1.418-.639,2.138-1a7.166,7.166,0,0,0-.069-2.571,15.2,15.2,0,0,1,1.121,2.03c.631-.335,1.261-.689,1.881-1.059l-.78-2.321A4.627,4.627,0,0,0,4490.95,3107.154Z" fill="#404040"/><path d="M4481.192,3114a4.109,4.109,0,0,1-2.595-.823,3.919,3.919,0,0,1-1.279-3.13,4.548,4.548,0,0,1,5.821-4.973.2.2,0,0,1-.1.377,4.482,4.482,0,0,0-3.785.709,4.585,4.585,0,0,0-1.544,3.88,3.553,3.553,0,0,0,1.136,2.835,4.2,4.2,0,0,0,3.056.682.195.195,0,0,1,.071.383A4.658,4.658,0,0,1,4481.192,3114Z" fill="#404040"/><path d="M4503.411,3112.279h2.161a.845.845,0,0,1,.781.9h0a.845.845,0,0,1-.781.9h.863a.906.906,0,0,1,0,1.795h-.524a.906.906,0,0,1,0,1.8h-2.527a1.6,1.6,0,0,1-1.5-1.49C4501.655,3114.381,4501.946,3112.279,4503.411,3112.279Z" fill="#fff"/><path d="M4505.911,3117.858h-2.527a1.805,1.805,0,0,1-1.695-1.661c-.076-.6-.257-2.625.613-3.613a1.422,1.422,0,0,1,1.109-.5h2.161a1.04,1.04,0,0,1,.976,1.092,1.165,1.165,0,0,1-.229.7h.116a1.041,1.041,0,0,1,.976,1.093,1.072,1.072,0,0,1-.771,1.068,1.17,1.17,0,0,1,.247.726A1.041,1.041,0,0,1,4505.911,3117.858Zm-2.5-5.384a1.03,1.03,0,0,0-.816.368,4.718,4.718,0,0,0-.519,3.306,1.417,1.417,0,0,0,1.308,1.32h2.527a.714.714,0,0,0,0-1.405.195.195,0,1,1,0-.39h.524a.714.714,0,0,0,0-1.405h-.863a.2.2,0,0,1,0-.39.713.713,0,0,0,0-1.4Z" fill="#404040"/><path d="M4505.572,3114.268h-1.728a.2.2,0,1,1,0-.39h1.728a.2.2,0,1,1,0,.39Z" fill="#404040"/><path d="M4505.911,3116.063h-2.067a.195.195,0,1,1,0-.39h2.067a.195.195,0,1,1,0,.39Z" fill="#404040"/><path d="M4523.34,3129.013a19.123,19.123,0,0,0-4.421.025c-1.715.19-2.209,1.838-2.346,2.942a.509.509,0,0,0,.77.5s-.617,1.135.608.905c0,0,5.425.137,6.363.254Z" fill="#fff"/><path d="M4524.314,3133.837l-.024,0c-.89-.111-5.961-.243-6.324-.252-.424.075-.715.006-.868-.2a.744.744,0,0,1-.067-.628.709.709,0,0,1-.652-.8c.231-1.851,1.125-2.957,2.518-3.111a19.173,19.173,0,0,1,4.472-.024.2.2,0,0,1,.163.153l.973,4.628a.2.2,0,0,1-.191.236Zm-6.363-.645h0c.205.005,4.71.12,6.112.23l-.89-4.232a19.8,19.8,0,0,0-4.238.042c-1.532.17-2.028,1.6-2.174,2.772a.312.312,0,0,0,.143.307.307.307,0,0,0,.333,0,.2.2,0,0,1,.273.26c-.089.166-.183.463-.1.574.056.078.243.095.5.046A.212.212,0,0,1,4517.951,3133.192Z" fill="#404040"/><path d="M4520.1,3129.133a.2.2,0,0,1-.1-.029,1.431,1.431,0,0,1-.584-1.533c.048-.09.241-.365.723-.146.9.408,2.375,1.3,2.437,1.343a.2.2,0,1,1-.2.333c-.015-.009-1.513-.922-2.394-1.321-.044-.02-.189-.08-.218-.024a1.1,1.1,0,0,0,.448,1.017.2.2,0,0,1-.1.36Z" fill="#404040"/><path d="M4516.573,3132.175a.2.2,0,0,1-.126-.345l1.311-1.1a2.03,2.03,0,0,1,1.176-.469l.409-.024a.195.195,0,0,1,.023.389l-.409.025a1.632,1.632,0,0,0-.948.378l-1.311,1.1A.192.192,0,0,1,4516.573,3132.175Z" fill="#404040"/><path d="M4517.343,3132.677a.195.195,0,0,1-.09-.368l1.272-.666a.189.189,0,0,1,.061-.02l.931-.144a.2.2,0,0,1,.059.386l-.9.139-1.243.651A.2.2,0,0,1,4517.343,3132.677Z" fill="#404040"/><path d="M4523.34,3129.013l.974,4.628s20.422-3.219,21.961-17.773c1.77-16.724-5.13-19.7-8.936-21.131,0,0-1.92,17.527-3.87,22.578A22.65,22.65,0,0,1,4523.34,3129.013Z" fill="#004890"/><path d="M4524.314,3133.837a.2.2,0,0,1-.191-.156l-.974-4.628a.2.2,0,0,1,.094-.209,22.542,22.542,0,0,0,10.044-11.6c1.919-4.97,3.839-22.354,3.858-22.529a.2.2,0,0,1,.263-.162,12.662,12.662,0,0,1,6.653,4.9c2.37,3.609,3.18,9.136,2.409,16.43-.637,6.021-4.671,11.035-11.666,14.5a41.024,41.024,0,0,1-10.46,3.447Zm-.754-4.726.906,4.306a40.942,40.942,0,0,0,10.173-3.384c4.787-2.372,10.657-6.759,11.442-14.185,1.754-16.578-5.054-19.512-8.575-20.84-.251,2.241-2.021,17.629-3.855,22.377A22.9,22.9,0,0,1,4523.56,3129.111Z" fill="#404040"/><path d="M4530.7,3088.35s-1.243,24.807,6.962,25.595.043-25.061-5.375-26.645Z" fill="#404040"/><rect width="5.343" height="41.027" transform="translate(4457.254 3189.649)" fill="#d2deea"/><path d="M4462.6,3230.871h-5.343a.2.2,0,0,1-.195-.2v-41.027a.194.194,0,0,1,.195-.195h5.343a.194.194,0,0,1,.195.195v41.027A.2.2,0,0,1,4462.6,3230.871Zm-5.148-.39h4.953v-40.637h-4.953Z" fill="#404040"/><rect width="5.343" height="3.011" transform="translate(4457.254 3227.665)" fill="#404040"/></g></svg>