<svg xmlns="http://www.w3.org/2000/svg" width="964.902" height="402.91" viewBox="0 0 964.902 402.91"><g transform="translate(-4435.735 -270)"><path d="M4722.808,565.014h-.019l-2.414-.234a.191.191,0,0,1,.037-.381l2.414.234a.191.191,0,0,1-.018.382Z" fill="#404040"/><path d="M4556.286,535.535s6.995,3.144,13.013,6.616l-1.69,10.045-7.381-2.471Z" fill="#004890"/><path d="M4567.546,552.384l-7.381-2.471a.2.2,0,0,1-.128-.135l-3.942-14.19a.2.2,0,0,1,.272-.234c.07.032,7.074,3.188,13.032,6.625a.2.2,0,0,1,.1.205l-1.691,10.045a.2.2,0,0,1-.093.137.2.2,0,0,1-.1.028A.189.189,0,0,1,4567.546,552.384Zm-10.955-16.492,3.8,13.678,7.06,2.364,1.63-9.68C4563.97,539.316,4558.128,536.6,4556.591,535.892Z" fill="#404040"/><path d="M4548.562,536.655s6.507-1.278,7.116-1.154c2.409-.628,6.847,8.959,7.137,9.888,0,0,4.3,5.365-.2,9.082-.361,4.973-1.106,12.882-2.374,16.555h-13.463l-.366-1.485s-2.1-12.84-3.649-24.035C4542.6,537.245,4548.39,536.683,4548.562,536.655Z" fill="#004890"/><path d="M4546.587,571.074l-.37-1.5c-.021-.128-2.121-12.97-3.649-24.04l0-.023c-.154-7.837,4.921-8.912,5.963-9.05.677-.133,6.3-1.223,7.137-1.16,2.631-.579,7,9.071,7.326,9.994.332.435,4.136,5.623-.185,9.275-.335,4.6-1.086,12.782-2.378,16.522a.2.2,0,0,1-.187.133h-13.463A.2.2,0,0,1,4546.587,571.074Zm15.831-16.617a.2.2,0,0,1,.071-.139c4.294-3.548.342-8.592.171-8.8a.207.207,0,0,1-.034-.065c-.415-1.331-4.777-10.3-6.9-9.755a.2.2,0,0,1-.09,0,70.127,70.127,0,0,0-7.038,1.155h-.006l-.028,0c-.961.127-5.746,1.141-5.6,8.636,1.528,11.062,3.625,23.889,3.643,24l.33,1.335H4560.1C4561.357,567.048,4562.09,558.97,4562.418,554.457Zm-19.656-8.951h0Z" fill="#404040"/><path d="M4563.937,667.413l-2.365-2.283a.2.2,0,0,1-.059-.168l.991-7.673-5.76-.819,1.331,9.037,1.721,3.059,3.936.51Z" fill="#fff"/><path d="M4556.979,656.7l5.3.753-.966,7.48a.4.4,0,0,0,.118.336l2.294,2.214-.169,1.367-3.639-.472-1.654-2.94-1.287-8.738m-.47-.467h0Zm0,0,1.374,9.336,1.788,3.177,4.232.548.241-1.959-2.435-2.351,1.016-7.868-6.216-.883Z" fill="#404040"/><path d="M4530.817,659.459l-.352-3.3a.2.2,0,0,1,.04-.142l5.285-6.931-4.942-2.891-3.423,8.133-1.061,1.936,3.282,4.113Z" fill="#fff"/><path d="M4530.943,646.483l4.553,2.664-5.149,6.753a.4.4,0,0,0-.079.283l.341,3.188-.93.731-3.078-3.855.989-1.8a.216.216,0,0,0,.018-.037l3.335-7.925m-.19-.571-3.511,8.343-1.115,2.033,3.487,4.369,1.412-1.11-.363-3.406,5.42-7.11-5.33-3.119Z" fill="#404040"/><path d="M4564.145,667.339c-2.433,1.32-6.261-1.766-6.261-1.766l-1.374,4.356,12.057.231Z" fill="#404040"/><path d="M4531.026,659.547c-2.725-.49-3.784-5.292-3.784-5.292l-3.8,2.541,9.267,7.718Z" fill="#404040"/><path d="M4545.03,526.36l-.353-3.716,4.053-2.9,7.239,3.229,1.137,5.472a4.626,4.626,0,0,1-1.53,4.572l-.007-.009.707,3.818h0c-.673,2.395-3.157,3.189-5.621,2.854-2.131-.29-2.611-2.924-2.611-2.924l-2.1-6.412s-2.952,1.395-3.458-1.463,2.547-2.517,2.547-2.517" fill="#fff"/><path d="M4550.628,539.872c-2.189-.3-2.731-2.834-2.777-3.071l-2.032-6.2a3.161,3.161,0,0,1-2.423.042,2.731,2.731,0,0,1-.664-3.787,2.846,2.846,0,0,1,2.078-.712l-.33-3.486a.2.2,0,0,1,.082-.18l4.052-2.9a.2.2,0,0,1,.2-.02l7.24,3.229a.2.2,0,0,1,.113.14l1.136,5.468a4.809,4.809,0,0,1-1.512,4.7l.684,3.693a.2.2,0,0,1,0,.089c-.543,1.932-2.35,3.074-4.739,3.074A8.07,8.07,0,0,1,4550.628,539.872Zm4.746-6.832a.194.194,0,0,1,.111-.209,4.416,4.416,0,0,0,1.426-4.35l-1.116-5.373-7.042-3.14-3.867,2.771.341,3.6a.2.2,0,0,1-.058.16.207.207,0,0,1-.161.056,2.688,2.688,0,0,0-1.988.576,1.908,1.908,0,0,0-.342,1.708,1.882,1.882,0,0,0,.9,1.453,3.031,3.031,0,0,0,2.279-.134.2.2,0,0,1,.163,0,.2.2,0,0,1,.11.121l2.1,6.411.007.026c.005.025.477,2.495,2.442,2.763,3.268.446,4.923-1.078,5.391-2.667Z" fill="#404040"/><path d="M4554.052,529.376a.2.2,0,0,0,.17-.1l.435-.724a.2.2,0,0,0,.01-.185l-1.284-2.775a.2.2,0,0,0-.36.167l1.24,2.679-.381.634a.2.2,0,0,0,.17.3Z" fill="#404040"/><path d="M4549.464,525.238a.2.2,0,0,0,.159-.079,1.043,1.043,0,0,1,1.431-.325.2.2,0,0,0,.215-.334,1.436,1.436,0,0,0-1.963.42.2.2,0,0,0,.039.278A.2.2,0,0,0,4549.464,525.238Z" fill="#404040"/><path d="M4553.911,524.033a.2.2,0,0,0,.151-.071.807.807,0,0,1,1.089-.139.2.2,0,1,0,.215-.333,1.2,1.2,0,0,0-1.607.217.2.2,0,0,0,.152.326Z" fill="#404040"/><path d="M4552.558,534.426a.173.173,0,0,0,.044-.005l1.072-.245a4.83,4.83,0,0,0,2.031-1.012.2.2,0,0,0-.255-.3,4.391,4.391,0,0,1-1.865.929l-1.071.245a.2.2,0,0,0,.044.391Z" fill="#404040"/><path d="M4543.728,529.741a.191.191,0,0,0,.1-.027.2.2,0,0,0,.071-.272,1.45,1.45,0,0,1-.233-1.2,1.294,1.294,0,0,1,.677-.7.2.2,0,0,0-.147-.369,1.692,1.692,0,0,0-.9.932,1.82,1.82,0,0,0,.266,1.534A.2.2,0,0,0,4543.728,529.741Z" fill="#404040"/><path d="M4545.036,529.3a.2.2,0,0,0,.141-.339,3.113,3.113,0,0,0-1.564-.829.2.2,0,0,0-.063.392,2.744,2.744,0,0,1,1.346.718A.2.2,0,0,0,4545.036,529.3Z" fill="#404040"/><path d="M4551.128,525.725c.1.269.047.537-.119.6s-.382-.106-.482-.375-.047-.537.119-.6S4551.028,525.456,4551.128,525.725Z" fill="#404040"/><path d="M4555.162,524.462c.1.269.047.537-.119.6s-.382-.1-.483-.374-.047-.538.12-.6S4555.062,524.193,4555.162,524.462Z" fill="#404040"/><path d="M4552.558,530.822a7.585,7.585,0,0,0,3.02-.231s.222,1.434-1.51,1.627C4552.974,532.34,4552.558,530.822,4552.558,530.822Z" fill="#404040"/><path d="M4560.242,571.026s6.714,6.405,7.856,33.516-4.95,53.316-4.95,53.316l-7.036.231-.545-58.556-.943,23.53a11.274,11.274,0,0,1-2.142,6.171l-16.268,22.41-6.051-5.208,13.419-29.121s-3.8-20.291-1.156-35.78c1.19-6.967,4.353-10.509,4.353-10.509Z" fill="#fff"/><path d="M4555.975,658.233a.2.2,0,0,1-.062-.142l-.469-50.526-.622,15.506a11.427,11.427,0,0,1-2.179,6.279l-16.268,22.41a.2.2,0,0,1-.29.034l-6.051-5.208a.2.2,0,0,1-.051-.233l13.392-29.064c-.228-1.26-3.692-20.865-1.144-35.787,1.186-6.943,4.368-10.572,4.4-10.608a.2.2,0,0,1,.148-.066h13.463a.191.191,0,0,1,.136.055c.07.066,1.733,1.69,3.55,6.666,3.019,8.273,4.042,19.24,4.368,26.984,1.13,26.828-4.894,53.108-4.954,53.37a.2.2,0,0,1-.187.153l-7.037.232h-.006A.2.2,0,0,1,4555.975,658.233ZM4567.9,604.55c-1.071-25.407-7.114-32.641-7.743-33.326h-13.286a22.749,22.749,0,0,0-4.249,10.345c-2.609,15.275,1.117,35.507,1.155,35.709a.207.207,0,0,1-.015.12l-13.356,28.985,5.774,4.97,16.142-22.235a11.046,11.046,0,0,0,2.1-6.063l.943-23.53a.2.2,0,0,1,.2-.19h0a.2.2,0,0,1,.2.2l.543,58.354,6.681-.22C4563.475,655.5,4568.983,630.275,4567.9,604.55Z" fill="#404040"/><path d="M4555.567,599.731a.2.2,0,0,0,.2-.2V585.979l2.525-2.712a.2.2,0,0,0-.29-.27l-2.578,2.768a.2.2,0,0,0-.053.136v13.632A.2.2,0,0,0,4555.567,599.731Z" fill="#404040"/><path d="M4555.335,519.981a4.685,4.685,0,0,0-3.751-3.56,9.9,9.9,0,0,0-4.908.377,5.246,5.246,0,1,0-5.042,6.7c.062,0,.124,0,.186-.005l.919,4.016c.657-1.09,2.356-.9,2.356-.9,3.071-2.632,3.069-5.238,3.069-5.238s4.32,2.752,8.122,1.881Z" fill="#404040"/><rect width="102.667" height="49.985" transform="matrix(0.76, -0.65, 0.65, 0.76, 4509.988, 589.678)" fill="#404040"/><path d="M4546.162,619.471a.2.2,0,0,0,.129-.047l64.712-55.3a.2.2,0,0,0-.063-.338,3.329,3.329,0,0,1,.745-6.45.2.2,0,0,0,.129-.326l-21.021-24.6a.2.2,0,0,0-.15-.069.212.212,0,0,0-.044.005.2.2,0,0,0-.148.141,3.328,3.328,0,0,1-6.53-.591.2.2,0,0,0-.123-.166.176.176,0,0,0-.075-.015.2.2,0,0,0-.129.047l-64.854,55.418a.2.2,0,0,0,.073.341,3.33,3.33,0,0,1,1.208,5.722,3.386,3.386,0,0,1-.878.54.2.2,0,0,0-.117.137.2.2,0,0,0,.043.174l20.444,23.925a.2.2,0,0,0,.15.07h.016a.2.2,0,0,0,.153-.093,3.328,3.328,0,0,1,6.134,1.3.2.2,0,0,0,.126.159A.2.2,0,0,0,4546.162,619.471Z" fill="#fff"/><path d="M4583.723,531.915a3.528,3.528,0,0,0,6.92.626l21.02,24.6a3.527,3.527,0,0,0-.789,6.835l-64.712,55.3a3.528,3.528,0,0,0-6.5-1.38l-20.444-23.926a3.527,3.527,0,0,0-.35-6.634l64.854-55.418m0-.4a.4.4,0,0,0-.258.1l-64.853,55.417a.4.4,0,0,0,.144.682,3.131,3.131,0,0,1,.31,5.889.4.4,0,0,0-.148.623l20.444,23.925a.4.4,0,0,0,.3.139h.031a.4.4,0,0,0,.307-.187,3.13,3.13,0,0,1,5.768,1.225.4.4,0,0,0,.252.317.388.388,0,0,0,.141.027.394.394,0,0,0,.258-.1l64.712-55.3a.4.4,0,0,0-.126-.676,3.131,3.131,0,0,1,.7-6.066.4.4,0,0,0,.259-.652l-21.021-24.6a.393.393,0,0,0-.3-.139.418.418,0,0,0-.087.009.4.4,0,0,0-.3.284,3.131,3.131,0,0,1-6.142-.556.4.4,0,0,0-.4-.364Z" fill="#404040"/><circle cx="19.233" cy="19.233" r="19.233" transform="matrix(0.999, -0.053, 0.053, 0.999, 4560.777, 543.764)" fill="#f2f2f2"/><path d="M4534,555.5c.623-4.65,4.511-11.044,7.261-15.085a4.8,4.8,0,0,1,6.626-1.293h0a4.8,4.8,0,0,1,1.255,6.757l-7.537,10.663,7.492,14.176s1.927.8,2.816,1.1c1.777.6,1.29,1.489.685,1.5a9.845,9.845,0,0,0-1.489.093l2.457,3.44a1.962,1.962,0,0,0-1.427,2.051h0c-.6.356-.914-.077-1.19-.315a.629.629,0,0,1-.34.869c-.584.336-1.1-.291-1.34-.615l-2.283-3.669C4545.25,573.4,4533.272,560.908,4534,555.5Z" fill="#fff"/><path d="M4549.1,578.953l-2.27-3.651a107.247,107.247,0,0,1-7.415-8.479c-4.036-5.2-5.924-9.018-5.611-11.348h0c.614-4.581,4.305-10.778,7.293-15.17a5.009,5.009,0,0,1,6.9-1.346A5,5,0,0,1,4549.3,546l-7.467,10.564,7.4,14c.369.153,1.964.81,2.737,1.07,1.341.45,1.4,1.053,1.365,1.292a.748.748,0,0,1-.738.6c-.563.013-.919.033-1.138.051l2.26,3.165a.992.992,0,0,1-1.07,1.545,1,1,0,0,1-.414.794.887.887,0,0,1-1.045-.013.947.947,0,0,1-.488.569.87.87,0,0,1-.441.125C4549.887,579.76,4549.5,579.492,4549.1,578.953Zm1.979-.509c.037.032.075.067.115.1.281.263.472.413.826.2a.591.591,0,0,0,.152-.784.2.2,0,0,1,.053-.261.2.2,0,0,1,.264.026.595.595,0,0,0,.915-.758l-2.456-3.44a.2.2,0,0,1-.024-.185.2.2,0,0,1,.141-.124,9.982,9.982,0,0,1,1.529-.1.354.354,0,0,0,.355-.26c.033-.215-.236-.567-1.1-.857-.823-.276-2.5-.969-2.829-1.107a.2.2,0,0,1-.1-.091l-7.493-14.175a.2.2,0,0,1,.014-.207l7.537-10.663a4.6,4.6,0,0,0-1.2-6.478,4.613,4.613,0,0,0-6.352,1.239c-2.964,4.356-6.625,10.495-7.228,15h0c-.718,5.35,11.532,18.079,12.931,19.512a.193.193,0,0,1,.027.034l2.273,3.656c.42.565.764.744,1.082.561.376-.216.335-.443.258-.616a.2.2,0,0,1,.181-.28A.2.2,0,0,1,4551.076,578.444Z" fill="#404040"/><path d="M4539.87,556.743h1.732a.2.2,0,0,0,0-.4h-1.732a.2.2,0,0,0,0,.4Z" fill="#404040"/><path d="M4552.34,578.063a.2.2,0,0,0,.1-.029.2.2,0,0,0,.066-.273l-1.2-1.965a.2.2,0,0,0-.339.206l1.2,1.965A.2.2,0,0,0,4552.34,578.063Z" fill="#404040"/><path d="M4551.061,578.96a.2.2,0,0,0,.1-.029.2.2,0,0,0,.066-.273l-1.2-1.965a.2.2,0,0,0-.339.206l1.2,1.965A.2.2,0,0,0,4551.061,578.96Z" fill="#404040"/><path d="M4544.269,537.882c-2.872,1.534-7.287,5.422-9.964,12.872l9.836,4.264s7.255-8.186,7.507-12.842C4551.85,538.427,4548.012,535.884,4544.269,537.882Z" fill="#004890"/><path d="M4544.062,555.2l-9.836-4.264a.2.2,0,0,1-.108-.249,27.689,27.689,0,0,1,4.945-8.717,18.607,18.607,0,0,1,5.113-4.263,5.347,5.347,0,0,1,5.446.048,4.861,4.861,0,0,1,2.224,4.431c-.107,1.969-1.413,4.752-3.884,8.271a59.18,59.18,0,0,1-3.673,4.692.2.2,0,0,1-.148.067A.2.2,0,0,1,4544.062,555.2Zm.3-17.143h0c-5.914,3.157-8.935,10.22-9.808,12.589l9.532,4.132c.85-.98,7.133-8.364,7.362-12.613a4.466,4.466,0,0,0-2.04-4.075,4.55,4.55,0,0,0-2.464-.706A5.491,5.491,0,0,0,4544.363,538.057Z" fill="#404040"/><path d="M4574.592,534.419l-.487-.5a.7.7,0,0,0-.986-.01h0a.7.7,0,0,0-.01.986l.487.5a.7.7,0,0,0,.986.01h0A.7.7,0,0,0,4574.592,534.419Z" fill="#fff"/><path d="M4574.085,535.8a.9.9,0,0,1-.631-.269l-.487-.5a.9.9,0,0,1,1.28-1.253l.487.5a.9.9,0,0,1-.64,1.523Zm-.827-1.75a.5.5,0,0,0-.008.706l.487.5a.494.494,0,0,0,.352.15.475.475,0,0,0,.354-.142.5.5,0,0,0,.007-.706h0l-.487-.5a.5.5,0,0,0-.705-.008Zm1.332.366h0Z" fill="#404040"/><path d="M4575.61,533.423l-.487-.5a.7.7,0,0,0-.986-.01h0a.7.7,0,0,0-.011.986l.487.5a.7.7,0,0,0,.986.011h0A.7.7,0,0,0,4575.61,533.423Z" fill="#fff"/><path d="M4574.472,534.537l-.487-.5a.9.9,0,1,1,1.279-1.253l.487.5h0a.9.9,0,1,1-1.279,1.253Zm.509-1.473a.5.5,0,0,0-.351-.15h-.006a.5.5,0,0,0-.356.848l.487.5a.5.5,0,0,0,.351.15h.006a.5.5,0,0,0,.356-.848Z" fill="#404040"/><path d="M4576.639,532.415l-.487-.5a.7.7,0,0,0-.986-.01h0a.7.7,0,0,0-.011.986l.487.5a.7.7,0,0,0,.986.01h0A.7.7,0,0,0,4576.639,532.415Z" fill="#fff"/><path d="M4575.5,533.53l-.487-.5a.9.9,0,1,1,1.279-1.253l.487.5h0a.9.9,0,0,1-1.279,1.253Zm.509-1.473a.5.5,0,1,0-.713.7l.487.5a.5.5,0,0,0,.7.008.5.5,0,0,0,.008-.706Z" fill="#404040"/><path d="M5063.049,270.278l-7.754,3.777,2.247,1.517-8.46,12.529-20.331.927a1.6,1.6,0,0,0-1.259.709l-11.629,17.39-20.326.927a1.6,1.6,0,0,0-1.259.71l-11.629,17.39-20.4.93a1.6,1.6,0,0,0-1.263.715l-21.024,31.713,3.981-.181,19.265-29.084,20.4-.93a1.6,1.6,0,0,0,1.258-.709l11.629-17.39,20.327-.927a1.6,1.6,0,0,0,1.258-.71l11.629-17.39,20.327-.926a1.6,1.6,0,0,0,1.254-.7l8.911-13.2,2.247,1.517Z" fill="#004890"/><path d="M4943.952,359.534l-3.981.182a.206.206,0,0,1-.186-.1.2.2,0,0,1,.008-.213l21.024-31.713a1.811,1.811,0,0,1,1.423-.807l20.3-.925,11.572-17.3a1.812,1.812,0,0,1,1.418-.8l20.224-.921,11.572-17.3a1.811,1.811,0,0,1,1.419-.8l20.228-.922,8.289-12.275-2.078-1.4a.2.2,0,0,1,.024-.352l7.755-3.777a.2.2,0,0,1,.2.014.205.205,0,0,1,.089.183l-.6,8.6a.2.2,0,0,1-.317.155l-2.078-1.4-8.8,13.027a1.815,1.815,0,0,1-1.414.794l-20.224.921-11.571,17.3a1.813,1.813,0,0,1-1.419.8l-20.224.921-11.571,17.305a1.814,1.814,0,0,1-1.419.8l-20.292.925-19.208,29A.2.2,0,0,1,4943.952,359.534Zm-3.6-.244,3.477-.158,19.207-29a.2.2,0,0,1,.161-.09l20.4-.93a1.4,1.4,0,0,0,1.1-.62l11.629-17.39a.206.206,0,0,1,.16-.09l20.326-.926a1.4,1.4,0,0,0,1.1-.62l11.629-17.39a.2.2,0,0,1,.16-.09l20.326-.927a1.4,1.4,0,0,0,1.1-.614l8.911-13.2a.2.2,0,0,1,.13-.086.206.206,0,0,1,.153.031l1.954,1.32.556-7.9-7.12,3.467,1.955,1.32a.2.2,0,0,1,.085.13.2.2,0,0,1-.031.153l-8.46,12.529a.2.2,0,0,1-.159.09l-20.331.926a1.4,1.4,0,0,0-1.1.62l-11.629,17.39a.2.2,0,0,1-.16.09l-20.326.926a1.4,1.4,0,0,0-1.1.62l-11.629,17.39a.2.2,0,0,1-.16.09l-20.4.93a1.4,1.4,0,0,0-1.1.625Z" fill="#404040"/><path d="M4984.53,563.567c-.148.5-.3,1-.449,1.494l.252-1.492C4984.4,563.569,4984.463,563.569,4984.53,563.567Z" fill="#004890"/><path d="M4712.362,563.267l26-4.664,9.434,11.922,14.739,37.329-6.473,53.55h-16.417l3.567-49.483-12.478-22.674L4709.137,661.4h-14.474Z" fill="#404040"/><path d="M4748.829,661.4l12.961,8.642h-20.666l.642-8.642Z" fill="#404040"/><path d="M4705.617,661.4l12.961,8.642h-20.665l.642-8.642Z" fill="#404040"/><path d="M4730.73,589.495a.238.238,0,0,1-.12-.032.247.247,0,0,1-.1-.336l7.247-12.966a.247.247,0,1,1,.432.241l-7.247,12.966A.248.248,0,0,1,4730.73,589.495Z" fill="#fff"/><path d="M4708.246,575.451c5.653-72.551,23.881-84.512,23.881-84.512l13.124,7.591,4.536,74.832Z" fill="#fff"/><path d="M4708.246,575.7a.242.242,0,0,1-.177-.075.248.248,0,0,1-.07-.191c1.613-20.705,5.366-49.577,14.08-69.542,5.233-11.989,9.723-15.034,9.912-15.157a.244.244,0,0,1,.259-.008l13.125,7.591a.249.249,0,0,1,.123.2l4.536,74.832a.248.248,0,0,1-.234.262l-41.542,2.089Zm23.9-84.464c-.754.576-4.94,4.123-9.649,14.944-8.621,19.812-12.36,48.406-13.979,69.012l41.011-2.063-4.513-74.449Z" fill="#404040"/><path d="M4798.47,523.991l-51.641-27.232-5.682,12.017c9.743,5.447,44.483,20.059,53.783,21.43Z" fill="#fff"/><path d="M4794.93,530.453a.223.223,0,0,1-.036,0c-9.574-1.41-44.591-16.272-53.868-21.459a.247.247,0,0,1-.1-.321l5.682-12.016a.246.246,0,0,1,.145-.129.251.251,0,0,1,.194.015l51.642,27.232a.25.25,0,0,1,.122.15.246.246,0,0,1-.023.191l-3.54,6.215A.247.247,0,0,1,4794.93,530.453Zm-53.461-21.781c9.494,5.242,43.634,19.726,53.331,21.264l3.329-5.845L4746.942,497.1Z" fill="#404040"/><path d="M4832.137,491.242l-102.111,10.475a102.314,102.314,0,0,0,36.067,68.1Z" fill="#004890"/><path d="M4766.093,570.067a.244.244,0,0,1-.159-.058,102.363,102.363,0,0,1-36.154-68.267.248.248,0,0,1,.221-.271L4832.112,491a.249.249,0,0,1,.244.131.246.246,0,0,1-.03.274l-66.044,78.578A.248.248,0,0,1,4766.093,570.067ZM4730.3,501.938a101.873,101.873,0,0,0,35.764,67.533l65.493-77.92Z" fill="#404040"/><path d="M4826.278,498.46a.266.266,0,0,1-.086-.015l-13.458-4.989a.247.247,0,0,1,.172-.464l13.458,4.989a.247.247,0,0,1-.086.479Z" fill="#404040"/><path d="M4823.372,501.943a.253.253,0,0,1-.086-.015l-20.188-7.484a.247.247,0,1,1,.172-.463l20.188,7.483a.247.247,0,0,1-.086.479Z" fill="#404040"/><path d="M4820.16,505.458a.23.23,0,0,1-.085-.016l-26.917-9.978a.247.247,0,0,1,.172-.464l26.916,9.979a.247.247,0,0,1-.086.479Z" fill="#404040"/><path d="M4817.254,508.941a.233.233,0,0,1-.086-.016l-33.558-12.44a.247.247,0,1,1,.172-.464l33.558,12.441a.247.247,0,0,1-.086.479Z" fill="#404040"/><path d="M4814.112,512.448a.236.236,0,0,1-.086-.016L4773.738,497.5a.247.247,0,1,1,.172-.463l40.288,14.935a.247.247,0,0,1-.086.479Z" fill="#404040"/><path d="M4786.287,545.858a.235.235,0,0,1-.086-.016l-50.424-18.693a.247.247,0,0,1,.172-.463l50.424,18.693a.247.247,0,0,1-.086.479Z" fill="#404040"/><path d="M4783.331,549.55a.253.253,0,0,1-.086-.015l-45.462-16.853a.247.247,0,0,1,.172-.463l45.462,16.852a.247.247,0,0,1-.086.479Z" fill="#404040"/><path d="M4779.868,553.321a.269.269,0,0,1-.087-.015L4741,538.93a.247.247,0,0,1,.172-.464l38.779,14.376a.247.247,0,0,1-.086.479Z" fill="#404040"/><path d="M4777.187,556.779a.255.255,0,0,1-.086-.015l-32.934-12.209a.247.247,0,0,1,.172-.464l32.934,12.209a.247.247,0,0,1-.086.479Z" fill="#404040"/><path d="M4774.258,560.255a.236.236,0,0,1-.086-.016l-25.848-9.582a.247.247,0,0,1,.172-.464l25.848,9.582a.248.248,0,0,1-.086.48Z" fill="#404040"/><path d="M4771.308,563.677a.253.253,0,0,1-.086-.015l-18.3-6.782a.247.247,0,1,1,.172-.464l18.295,6.782a.247.247,0,0,1-.086.479Z" fill="#404040"/><path d="M4808.275,519.551a.255.255,0,0,1-.086-.015l-54.031-20.03a.247.247,0,0,1,.172-.464l54.031,20.03a.247.247,0,0,1-.086.479Z" fill="#404040"/><path d="M4792.762,538.244a.258.258,0,0,1-.086-.015l-60.345-22.37a.247.247,0,0,1,.172-.464l60.345,22.37a.247.247,0,0,1-.086.479Z" fill="#404040"/><path d="M4789.656,542.058a.235.235,0,0,1-.085-.016l-55.732-20.66a.247.247,0,0,1,.171-.464l55.732,20.661a.245.245,0,0,1,.146.317A.248.248,0,0,1,4789.656,542.058Z" fill="#404040"/><path d="M4805.5,523.01a.261.261,0,0,1-.086-.015L4745,500.6a.247.247,0,0,1,.172-.464l60.409,22.394a.247.247,0,0,1-.087.479Z" fill="#404040"/><path d="M4802.319,526.821a.268.268,0,0,1-.086-.016l-68.1-25.245a.247.247,0,1,1,.172-.464l68.1,25.245a.248.248,0,0,1-.086.48Z" fill="#404040"/><path d="M4799.172,530.65a.255.255,0,0,1-.086-.015l-68.649-25.449a.247.247,0,0,1,.172-.464l68.648,25.449a.247.247,0,0,1-.085.479Z" fill="#404040"/><path d="M4796.006,534.34a.235.235,0,0,1-.086-.016l-64.778-24.013a.247.247,0,0,1,.172-.464l64.778,24.014a.247.247,0,0,1-.086.479Z" fill="#404040"/><path d="M4811.205,515.931a.238.238,0,0,1-.086-.016L4764.1,498.486a.247.247,0,0,1,.172-.464l47.016,17.43a.247.247,0,0,1-.086.479Z" fill="#404040"/><path d="M4743.71,496.851l1.241-7.261a.042.042,0,0,1,.046-.045c5.222.8,5.81-6.177,5.828-6.184l1.855-.379-1.393-3.277a.045.045,0,0,1-.024-.045l.7-5.8c.2-.722-.374-2.185-1.573-3.61-5.16-6.135-15.2-2.085-14.849,5.924l.232,5.268a.035.035,0,0,1,0,.01c-.05.217-2.2,9.506-2.924,10.507h0s4.03,7.948,12.4,6.576C4745.274,498.527,4743.711,496.873,4743.71,496.851Z" fill="#fff"/><path d="M4743.356,498.935c-7.032,0-10.568-6.567-10.721-6.86a.245.245,0,0,1,.015-.266c.552-.761,2.119-7.111,2.876-10.389l-.23-5.241a8.653,8.653,0,0,1,5.594-8.537,8.368,8.368,0,0,1,9.692,2.444c1.2,1.428,1.852,2.958,1.627,3.817l-.691,5.713,1.39,3.269a.247.247,0,0,1-.009.212.243.243,0,0,1-.169.127l-1.684.344c-.171,1.248-.756,4.019-2.638,5.438a4.36,4.36,0,0,1-3.245.811l-1.189,6.961c.125.137.4.431.627.677.936,1.005.936,1.005.884,1.156a.244.244,0,0,1-.194.163A11.961,11.961,0,0,1,4743.356,498.935Zm-10.221-6.975c.533.951,4.38,7.3,11.624,6.392-.158-.172-.355-.383-.52-.56-.772-.83-.772-.83-.776-.932a.3.3,0,0,1,0-.051l1.238-7.246a.3.3,0,0,1,.1-.193.285.285,0,0,1,.233-.07,3.929,3.929,0,0,0,3.075-.689c1.844-1.391,2.35-4.349,2.462-5.223a.273.273,0,0,1,.157-.255.257.257,0,0,1,.047-.014l1.558-.319-1.257-2.956a.29.29,0,0,1-.059-.213l.7-5.806a.271.271,0,0,1,.007-.037c.165-.585-.306-1.935-1.524-3.384a7.906,7.906,0,0,0-9.134-2.3,8.163,8.163,0,0,0-5.278,8.056l.231,5.268a.352.352,0,0,1-.006.072C4735.8,482.444,4733.93,490.471,4733.135,491.96Zm10.575,4.891h0Zm7.115-13.49h0Z" fill="#404040"/><path d="M4748.238,478.2c-.023.376.146.692.378.706s.439-.278.462-.654-.146-.692-.378-.706S4748.261,477.823,4748.238,478.2Z" fill="#404040"/><path d="M4749.662,476.832a.245.245,0,0,1-.184-.083,1.447,1.447,0,0,0-1.886-.146.247.247,0,1,1-.26-.421,1.939,1.939,0,0,1,2.515.238.248.248,0,0,1-.185.412Z" fill="#404040"/><path d="M4748.994,486.407h-.027a2.321,2.321,0,0,1-1.976-1.99.247.247,0,1,1,.49-.063,1.842,1.842,0,0,0,1.54,1.561.247.247,0,0,1-.027.493Z" fill="#404040"/><path d="M4735,483.983l3.467-2.628a3.2,3.2,0,0,1-.179-4.073,1.984,1.984,0,0,1,1.429-.944,2.305,2.305,0,0,1,2.534,1.8l.25,1.087,1.274.251.739-5.5s4.636,2.084,7.84.06c1.782-1.126-4.037-10.12-12.7-6.146-6.665,3.059-4.188,10.378-4.371,12.23S4735,483.983,4735,483.983Z" fill="#404040"/><path d="M4788.9,543.682l-2.592-2.707,2.387.431a1.237,1.237,0,0,0,1.393-.826h0a1.237,1.237,0,0,0-.881-1.593l-5.336-1.373L4755.8,508.535l-9.334,10.016c7.24,8.5,25.558,20.152,32.013,24.259,0,0,3.106,3.645,5.081,5.958a3.383,3.383,0,0,0,4.609.533C4789.517,548.274,4790.485,546.531,4788.9,543.682Z" fill="#fff"/><path d="M4786.163,550.223a3.669,3.669,0,0,1-2.792-1.294c-1.873-2.2-4.764-5.588-5.057-5.931-6.817-4.337-24.789-15.779-32.037-24.286a.246.246,0,0,1,.007-.329l9.334-10.017a.247.247,0,0,1,.178-.079h0a.246.246,0,0,1,.177.076L4784,537.392l5.268,1.355a1.484,1.484,0,0,1-.617,2.9l-1.638-.3,2.066,2.157a.258.258,0,0,1,.037.051c1.726,3.093.521,4.936-.793,5.937A3.542,3.542,0,0,1,4786.163,550.223ZM4746.8,518.558c7.313,8.452,25.726,20.169,31.8,24.036a.3.3,0,0,1,.066.055s3.106,3.645,5.081,5.959a3.13,3.13,0,0,0,4.271.5c1.679-1.279,1.906-3.054.677-5.276l-2.571-2.683a.247.247,0,0,1,.223-.414l2.387.43a1,1,0,0,0,1.115-.66.991.991,0,0,0-.705-1.275l-5.34-1.373a.254.254,0,0,1-.116-.068L4755.8,508.894Z" fill="#404040"/><path d="M4756.494,507.788l-11.834,12.7s-22.722-21.2-12.533-29.55C4740.619,483.983,4756.494,507.788,4756.494,507.788Z" fill="#fff"/><path d="M4744.66,520.736a.247.247,0,0,1-.169-.067,86.715,86.715,0,0,1-7.721-8.463c-5.118-6.452-7.646-11.8-7.514-15.9a7.2,7.2,0,0,1,2.714-5.558,5.862,5.862,0,0,1,4.771-1.249c3.631.542,8.1,3.767,13.273,9.585a88.542,88.542,0,0,1,6.685,8.567.247.247,0,0,1-.024.306l-11.834,12.7a.252.252,0,0,1-.172.079Zm-8.963-30.822a5.244,5.244,0,0,0-3.414,1.217,6.713,6.713,0,0,0-2.532,5.19c-.29,8.951,13.176,22.165,14.9,23.816l11.53-12.373c-1.179-1.724-11.553-16.588-19.512-17.776A6.626,6.626,0,0,0,4735.7,489.914Z" fill="#404040"/><path d="M4738.577,479.84a.247.247,0,0,1-.247-.237,2.9,2.9,0,0,1,.625-2.166,1.911,1.911,0,0,1,1.235-.617.244.244,0,0,1,.258.237.248.248,0,0,1-.236.257c-.063,0-1.483.108-1.388,2.267a.247.247,0,0,1-.236.258Z" fill="#404040"/><path d="M4740.886,479.84a.247.247,0,0,1-.217-.13,5.032,5.032,0,0,0-1.738-1.486.247.247,0,0,1,.23-.438,5.433,5.433,0,0,1,1.943,1.688.248.248,0,0,1-.218.366Z" fill="#404040"/><path d="M4745,489.792a.247.247,0,0,1-.079-.013l-3.85-1.3a.247.247,0,1,1,.158-.469l3.85,1.3a.247.247,0,0,1-.079.481Z" fill="#404040"/><path d="M4789.233,547.958a.247.247,0,0,1-.217-.129l-1.238-2.264-1.547-1.2a.247.247,0,0,1,.3-.391l1.587,1.227a.247.247,0,0,1,.066.077l1.263,2.309a.247.247,0,0,1-.1.335A.24.24,0,0,1,4789.233,547.958Z" fill="#404040"/><path d="M4787.808,549.8a.248.248,0,0,1-.218-.13l-1.4-2.59-1.509-1.147a.247.247,0,1,1,.3-.394l1.552,1.18a.25.25,0,0,1,.068.079l1.425,2.637a.248.248,0,0,1-.217.365Z" fill="#404040"/><path d="M4787.888,399.915l148.865,141.1a102.647,102.647,0,1,0-148.865-141.1Z" fill="#004890"/><path d="M4936.753,541.261a.247.247,0,0,1-.171-.067l-148.864-141.1a.248.248,0,0,1-.016-.342,102.9,102.9,0,1,1,149.223,141.44A.247.247,0,0,1,4936.753,541.261ZM4788.231,399.9,4936.75,540.671A102.4,102.4,0,1,0,4788.231,399.9Z" fill="#404040"/><path d="M4832.41,297.051l-16.145,18.962,7.6,9.237,10.6-11.137Z" fill="#004890"/><path d="M4823.865,325.5h-.009a.245.245,0,0,1-.182-.09l-7.6-9.236a.249.249,0,0,1,0-.318l16.145-18.962a.247.247,0,0,1,.434.131l2.058,17.062a.244.244,0,0,1-.066.2l-10.6,11.137A.248.248,0,0,1,4823.865,325.5Zm-7.277-9.48,7.29,8.86,10.331-10.85-1.977-16.385Z" fill="#404040"/><path d="M4810.215,420.005l-10.126,10.809,19.5-5.115-2.039-5.942Z" fill="#404040"/><path d="M4834.279,420.005l-10.093,11.365,19.5-5.115-2.145-6.25Z" fill="#404040"/><path d="M4876.809,346.69h-31.345l-1.059,4.565-33.071-.027c-4.294-.2-6.848,2.281-6.5,7.835l-1.789,60.693H4822.9l1.3-43.359,3.248,43.359h17.889V372.592C4880.494,376.142,4878.238,353.9,4876.809,346.69Z" fill="#fff"/><path d="M4845.34,420h-17.889a.246.246,0,0,1-.246-.228l-2.9-38.657-1.161,38.646a.246.246,0,0,1-.247.239h-19.852a.248.248,0,0,1-.248-.254l1.79-60.693c-.184-2.891.409-5.066,1.763-6.443a6.28,6.28,0,0,1,4.991-1.632l32.863.027,1.015-4.374a.246.246,0,0,1,.241-.191h31.345a.247.247,0,0,1,.243.2c2.064,10.423-.985,16.439-3.9,19.651-5.135,5.647-14.407,7.858-27.56,6.572v46.891A.246.246,0,0,1,4845.34,420Zm-17.659-.494h17.412V372.592a.245.245,0,0,1,.081-.183.252.252,0,0,1,.191-.063c13.132,1.326,22.357-.822,27.416-6.385,2.826-3.108,5.771-8.926,3.824-19.024H4845.66l-1.014,4.374a.248.248,0,0,1-.241.192h0l-33.072-.028a5.819,5.819,0,0,0-4.626,1.485c-1.252,1.272-1.8,3.32-1.622,6.087l-1.782,60.462h19.358l1.295-43.119a.247.247,0,0,1,.241-.24.258.258,0,0,1,.253.229Z" fill="#404040"/><path d="M4824.273,378.724a.247.247,0,0,1-.247-.241L4823.619,361a6.551,6.551,0,0,1,6.885-6.693l20.8-1.07a.252.252,0,0,1,.26.234.248.248,0,0,1-.235.26L4830.5,354.8a6.055,6.055,0,0,0-6.39,6.187l.406,17.485a.246.246,0,0,1-.241.253Z" fill="#404040"/><path d="M4845.223,392.13l-84.349-58.494a102.252,102.252,0,0,1,59.114-41Z" fill="#404040"/><path d="M4820.084,337.334l-2.49,1.118a1.106,1.106,0,0,1-1.46-.555h0a1.106,1.106,0,0,1,.555-1.46l5-2.244-1.96-.219-1.225.521a1.183,1.183,0,0,1-1.457-.448l-.131-.2a.65.65,0,0,1,.314-.959l2.46-.936,6.207.7,2.008,4.161-2.059,1.741a23.3,23.3,0,0,1-3.509,2.482q-1.068.61-2.192,1.115l-.306.137a1.1,1.1,0,0,1-1.46-.555h0a1.1,1.1,0,0,1,.555-1.459l2.054-.922" fill="#fff"/><path d="M4819.389,342.628a1.353,1.353,0,0,1-1.234-.8,1.353,1.353,0,0,1,.679-1.786l2.053-.922a.247.247,0,0,1,.2.451l-2.054.922a.857.857,0,0,0,.7,1.563l.306-.137c.738-.331,1.469-.7,2.172-1.1a23.341,23.341,0,0,0,3.471-2.456l1.913-1.618-1.866-3.865-6.011-.679-2.4.915a.4.4,0,0,0-.195.594l.132.2a.934.934,0,0,0,1.152.354l1.225-.521a.24.24,0,0,1,.124-.018l1.96.219a.247.247,0,0,1,.074.471l-5,2.245a.857.857,0,0,0,.7,1.563l2.491-1.118a.247.247,0,1,1,.2.451l-2.491,1.119a1.352,1.352,0,1,1-1.107-2.466l4.174-1.874-1-.111-1.166.495a1.428,1.428,0,0,1-1.761-.541l-.131-.2a.9.9,0,0,1,.434-1.324l2.46-.936a.254.254,0,0,1,.116-.015l6.206.7a.248.248,0,0,1,.2.139l2.008,4.16a.249.249,0,0,1-.063.3l-2.058,1.741a23.8,23.8,0,0,1-3.546,2.508c-.717.409-1.462.788-2.214,1.125l-.306.138A1.349,1.349,0,0,1,4819.389,342.628Z" fill="#404040"/><path d="M4820.989,339.348l-3.167,1.422a1.1,1.1,0,0,1-1.459-.555h0a1.1,1.1,0,0,1,.555-1.46l3.166-1.421" fill="#fff"/><path d="M4817.37,341.114a1.351,1.351,0,0,1-.554-2.584l3.167-1.422a.247.247,0,1,1,.2.451l-3.167,1.422a.857.857,0,0,0,.7,1.563l3.166-1.422a.247.247,0,0,1,.2.451l-3.167,1.422A1.347,1.347,0,0,1,4817.37,341.114Z" fill="#404040"/><path d="M4859.679,302.492a16.027,16.027,0,0,0-20.307-8.5,52.954,52.954,0,0,0-6.124,2.752l-.838.3-.882.922a15.694,15.694,0,0,0-3.653,15.568c1.238,3.91,2.706,8.152,4.3,12.255a40.13,40.13,0,0,1-7.119,5.3l3.422,7.5a29.534,29.534,0,0,0,8.17-2.492c3.057,6.172,6.2,10.578,8.82,10.578h31.345C4876.3,329.752,4859.679,302.492,4859.679,302.492Z" fill="#004890"/><path d="M4876.809,346.937h-31.345c-2.453,0-5.459-3.533-8.936-10.5a29.852,29.852,0,0,1-8.028,2.416.25.25,0,0,1-.251-.143l-3.422-7.505a.247.247,0,0,1,.1-.315,40.206,40.206,0,0,0,6.955-5.157c-1.468-3.8-2.934-7.986-4.241-12.114a15.93,15.93,0,0,1,3.71-15.814l.882-.922a.247.247,0,0,1,.1-.062l.82-.3a54,54,0,0,1,6.138-2.757,16.284,16.284,0,0,1,20.614,8.614c.455.751,16.657,27.648,17.158,44.3a.247.247,0,0,1-.247.255Zm-40.165-11.072a.247.247,0,0,1,.221.137c3.384,6.83,6.357,10.441,8.6,10.441h31.089c-.659-16.7-16.92-43.552-17.085-43.822a.161.161,0,0,1-.015-.029,15.792,15.792,0,0,0-19.994-8.367,53.32,53.32,0,0,0-6.092,2.738.264.264,0,0,1-.034.016l-.784.284-.843.881a15.433,15.433,0,0,0-3.6,15.322c1.321,4.176,2.805,8.408,4.291,12.241a.247.247,0,0,1-.061.269,40.41,40.41,0,0,1-6.972,5.222l3.255,7.138a30.828,30.828,0,0,0,7.919-2.45A.255.255,0,0,1,4836.644,335.865Z" fill="#404040"/><path d="M4837.638,279.26s2.975-2.428,4.381.918-2.641,3.881-2.641,3.881l3.368,9.205-6,7.532-3.538-3.419-1.427-3.934h0a5.787,5.787,0,0,1-5.42-3.814L4822.5,278.97l12.66-5.272Z" fill="#fff"/><path d="M4836.748,301.043a.247.247,0,0,1-.171-.069l-3.539-3.419a.255.255,0,0,1-.061-.093l-1.368-3.775a6.057,6.057,0,0,1-5.479-3.974l-3.865-10.658a.249.249,0,0,1,.138-.313l12.66-5.272a.246.246,0,0,1,.321.128l2.356,5.283a3.538,3.538,0,0,1,2.65-.651,2.842,2.842,0,0,1,1.856,1.852,2.812,2.812,0,0,1,.013,2.575,3.932,3.932,0,0,1-2.548,1.592l3.267,8.93a.246.246,0,0,1-.039.239l-6,7.532a.252.252,0,0,1-.177.093Zm-3.325-3.8,3.3,3.19,5.741-7.211-3.32-9.074a.249.249,0,0,1,.02-.213.246.246,0,0,1,.179-.117,3.793,3.793,0,0,0,2.486-1.4,2.355,2.355,0,0,0-.04-2.136,2.389,2.389,0,0,0-1.518-1.564,3.373,3.373,0,0,0-2.479.742.244.244,0,0,1-.213.049.247.247,0,0,1-.169-.14l-2.381-5.342-12.22,5.089,3.784,10.436a5.557,5.557,0,0,0,5.189,3.651.249.249,0,0,1,.232.164Z" fill="#404040"/><path d="M4831.839,293.676h-.017a.247.247,0,0,1,0-.495.1.1,0,0,0,.017,0,5.527,5.527,0,0,0,1.888-.333l1.291-.468a.247.247,0,0,1,.169.465l-1.292.468A6.007,6.007,0,0,1,4831.839,293.676Z" fill="#404040"/><path d="M4841.426,281.049a.246.246,0,0,1-.22-.133,2.034,2.034,0,0,0-1.235-1.171,1.569,1.569,0,0,0-1.164.221.248.248,0,1,1-.286-.4,2.064,2.064,0,0,1,1.567-.3,2.5,2.5,0,0,1,1.558,1.425.247.247,0,0,1-.107.333A.242.242,0,0,1,4841.426,281.049Z" fill="#404040"/><path d="M4839.686,282.5a.248.248,0,0,1-.245-.222,3.421,3.421,0,0,1,.963-2.7.247.247,0,0,1,.34.359h0a2.971,2.971,0,0,0-.811,2.292.248.248,0,0,1-.22.272Z" fill="#404040"/><path d="M4830.7,288.464a.271.271,0,0,1-.073-.011l-1.263-.386a1.126,1.126,0,0,1-.713-1.5l.44-1.084-.848-2.042a.247.247,0,0,1,.457-.19l.887,2.136a.239.239,0,0,1,0,.187l-.478,1.179a.629.629,0,0,0,.4.839l1.263.386a.247.247,0,0,1-.072.484Z" fill="#404040"/><path d="M4830.99,281.461a.273.273,0,0,1-.069-.01.247.247,0,0,1-.169-.3,1.839,1.839,0,0,1,2.055-1.236.247.247,0,0,1-.052.492,1.35,1.35,0,0,0-1.528.881A.248.248,0,0,1,4830.99,281.461Z" fill="#404040"/><path d="M4825.761,283.232a.251.251,0,0,1-.106-.024.247.247,0,0,1-.118-.328,1.839,1.839,0,0,1,2.226-.893.247.247,0,1,1-.13.477,1.35,1.35,0,0,0-1.649.627A.246.246,0,0,1,4825.761,283.232Z" fill="#404040"/><path d="M4823.083,273.612" fill="#c9c9c9"/><path d="M4832.814,290.818h-.055a.248.248,0,0,1-.243-.252.255.255,0,0,1,.252-.243,1.469,1.469,0,0,0,1.117-.39,1.175,1.175,0,0,0,.336-.854.247.247,0,0,1,.494-.013,1.669,1.669,0,0,1-.479,1.215A1.929,1.929,0,0,1,4832.814,290.818Z" fill="#404040"/><path d="M4837.956,274.007c-.913-2.253-2.059-4.579-9.3-2.569a5.367,5.367,0,0,0-8.7,5.762,6.484,6.484,0,0,0,3.544,3.8c1.935.68,5.327-.927,7.04-2.127.78-.547,1.408-1.254,2.145-1.758a2.921,2.921,0,0,1,4.273,1.242l.644,1.449a2.563,2.563,0,0,1,1.685-1.134A44.217,44.217,0,0,0,4837.956,274.007Z" fill="#404040"/><path d="M4836.644,336.359a.247.247,0,0,1-.092-.477c.153-.061,15.42-6.28,22.319-18.565a.247.247,0,1,1,.431.242c-6.985,12.44-22.411,18.721-22.566,18.783A.252.252,0,0,1,4836.644,336.359Z" fill="#404040"/><path d="M4832.171,326.044a.248.248,0,0,1-.126-.461c.1-.062,10.6-6.409,18.254-23.257a.247.247,0,1,1,.45.205c-7.721,17-18.346,23.415-18.452,23.478A.243.243,0,0,1,4832.171,326.044Z" fill="#404040"/><path d="M4831.5,282.732c.148.346.442.552.656.461s.266-.446.118-.792-.441-.553-.655-.461S4831.35,282.386,4831.5,282.732Z" fill="#404040"/><path d="M4827.014,284.272c.149.346.442.552.656.46s.267-.446.118-.792-.441-.552-.655-.461S4826.866,283.926,4827.014,284.272Z" fill="#404040"/><path d="M4932.305,554.867a102.648,102.648,0,0,1-145.1,4.335l70.382-74.717Z" fill="#fff"/><path d="M4857.519,587.38a102.555,102.555,0,0,1-70.483-28,.245.245,0,0,1-.078-.172.25.25,0,0,1,.067-.177l70.383-74.718a.247.247,0,0,1,.349-.01l74.717,70.382a.246.246,0,0,1,.011.349,102.567,102.567,0,0,1-71.825,32.3Q4859.088,587.38,4857.519,587.38Zm-69.964-28.188a102.313,102.313,0,0,0,144.4-4.315L4857.6,484.834Z" fill="#404040"/><path d="M4892.824,486.524c.009.338-.154.617-.363.622s-.385-.264-.394-.6.154-.618.363-.623S4892.816,486.185,4892.824,486.524Z" fill="#404040"/><path d="M4893.378,485.793a.245.245,0,0,1-.192-.092,1.263,1.263,0,0,0-1.613-.433.248.248,0,0,1-.24-.433,1.768,1.768,0,0,1,2.238.555.248.248,0,0,1-.038.348A.244.244,0,0,1,4893.378,485.793Z" fill="#404040"/><path d="M4891.881,493.959a.248.248,0,0,1-.066-.486,4.323,4.323,0,0,0,1.774-.991.247.247,0,0,1,.336.363,4.838,4.838,0,0,1-1.977,1.105A.264.264,0,0,1,4891.881,493.959Z" fill="#404040"/><path d="M4893.365,497.464a.248.248,0,0,1-.006-.495,5.05,5.05,0,0,0,2.858-.916.247.247,0,1,1,.352.347,5.435,5.435,0,0,1-3.2,1.064Z" fill="#404040"/><path d="M4901.344,488.717a.247.247,0,0,1-.241-.2,1.518,1.518,0,0,0-.655-1.08,1.164,1.164,0,0,0-.863-.065.248.248,0,0,1-.171-.465,1.662,1.662,0,0,1,1.272.1,1.972,1.972,0,0,1,.9,1.408.248.248,0,0,1-.189.294A.24.24,0,0,1,4901.344,488.717Z" fill="#404040"/><path d="M4899.762,489.446a.25.25,0,0,1-.039,0,.247.247,0,0,1-.206-.283,2.7,2.7,0,0,1,1.287-1.858.247.247,0,0,1,.235.435,2.233,2.233,0,0,0-1.033,1.5A.248.248,0,0,1,4899.762,489.446Z" fill="#404040"/><path d="M4900.02,490.828a.247.247,0,0,1-.026-.493,2.956,2.956,0,0,0,1.9-.823.247.247,0,0,1,.383.313,3.367,3.367,0,0,1-2.229,1Z" fill="#404040"/><path d="M4996.852,670.334H4435.939a.2.2,0,0,1-.2-.2c0-.112.892-.2.2-.2h560.913a.2.2,0,1,1,0,.408Z" fill="#404040"/><path d="M4633.231,608.992a40.081,40.081,0,0,1-1.778-14.2c.153-2.761.859-5.9,3.3-7.2a5.982,5.982,0,0,1,6.145.8,14.942,14.942,0,0,1,3.99,5.1c6.554,11.986,9.164,25.672,11.577,39.118.511,2.845.286,8.138-3.513,5.177-2.9-2.257-5.432-5.892-7.795-8.7C4640.123,623.108,4635.6,616.519,4633.231,608.992Z" fill="#fff"/><path d="M4654.884,638.893a3.584,3.584,0,0,1-2.068-.921,39.279,39.279,0,0,1-6.023-6.508c-.626-.784-1.217-1.525-1.807-2.226-6.13-7.284-9.934-13.695-11.971-20.178h0a40.074,40.074,0,0,1-1.788-14.283c.211-3.809,1.363-6.294,3.423-7.385a6.149,6.149,0,0,1,6.384.819,15.207,15.207,0,0,1,4.056,5.179c6.8,12.435,9.462,27.268,11.6,39.186.357,1.988.375,5.254-1.035,6.106A1.463,1.463,0,0,1,4654.884,638.893Zm-21.437-29.969c2.019,6.424,5.8,12.786,11.886,20.023.593.7,1.186,1.448,1.814,2.235a38.971,38.971,0,0,0,5.947,6.432c1,.78,1.784,1.01,2.328.68,1.142-.689,1.169-3.712.823-5.638-2.133-11.886-4.788-26.678-11.553-39.049a14.8,14.8,0,0,0-3.925-5.03,5.74,5.74,0,0,0-5.905-.784c-1.911,1.011-2.981,3.37-3.183,7.01a39.632,39.632,0,0,0,1.768,14.121Z" fill="#404040"/><path d="M4644.466,622.954a40.079,40.079,0,0,0-9.335-10.85c-2.15-1.739-4.954-3.325-7.553-2.381a5.982,5.982,0,0,0-3.53,5.093,14.929,14.929,0,0,0,1.107,6.384c4.487,12.9,12.882,24.022,21.232,34.834,1.766,2.288,5.841,5.674,6.2.87.27-3.662-.724-7.981-1.22-11.618C4650.306,637.536,4648.459,629.758,4644.466,622.954Z" fill="#fff"/><path d="M4650.964,659.568c-1.555,0-3.638-1.947-4.756-3.4-7.4-9.584-16.611-21.512-21.267-34.9a15.2,15.2,0,0,1-1.118-6.481,6.147,6.147,0,0,1,3.678-5.283c2.19-.8,4.806.018,7.772,2.418a40.116,40.116,0,0,1,9.389,10.911c3.438,5.86,5.639,12.983,6.926,22.416.123.908.276,1.843.437,2.834a39.2,39.2,0,0,1,.783,8.832c-.108,1.471-.573,2.34-1.379,2.582A1.6,1.6,0,0,1,4650.964,659.568Zm-21.758-49.9a4.5,4.5,0,0,0-1.551.268,5.741,5.741,0,0,0-3.382,4.9,14.814,14.814,0,0,0,1.1,6.286c4.631,13.316,13.816,25.212,21.2,34.77,1.2,1.549,3.454,3.557,4.732,3.174.609-.183.965-.918,1.059-2.183a38.939,38.939,0,0,0-.779-8.725c-.162-.994-.315-1.932-.439-2.846-1.278-9.371-3.46-16.441-6.868-22.248a39.632,39.632,0,0,0-9.283-10.788C4632.84,610.542,4630.9,609.668,4629.206,609.668Z" fill="#404040"/><path d="M4662.291,614.3a40.076,40.076,0,0,1,7.617-12.118c1.866-2.039,4.4-4.025,7.114-3.479a5.981,5.981,0,0,1,4.248,4.512,14.939,14.939,0,0,1-.144,6.477c-2.517,13.427-9.164,25.671-15.811,37.606-1.406,2.526-4.931,6.48-6,1.783-.813-3.582-.473-8-.524-11.671C4658.686,629.591,4659.355,621.625,4662.291,614.3Z" fill="#fff"/><path d="M4661.061,651.5a1.524,1.524,0,0,1-.215-.015c-.834-.12-1.423-.91-1.749-2.349a39.22,39.22,0,0,1-.54-8.85c.012-1,.023-1.951.011-2.867-.132-9.519.984-16.89,3.513-23.2h0a40.062,40.062,0,0,1,7.66-12.187c2.575-2.814,5.041-4.008,7.326-3.548a6.148,6.148,0,0,1,4.422,4.677,15.207,15.207,0,0,1-.14,6.576c-2.612,13.931-9.944,27.1-15.836,37.675C4664.573,649.1,4662.653,651.5,4661.061,651.5Zm1.23-37.194.21.084c-2.5,6.25-3.611,13.566-3.48,23.023.013.922,0,1.872-.011,2.879a38.934,38.934,0,0,0,.529,8.744c.28,1.237.742,1.91,1.371,2,1.32.187,3.255-2.133,4.207-3.843,5.876-10.55,13.188-23.679,15.787-37.538a14.822,14.822,0,0,0,.147-6.378,5.743,5.743,0,0,0-4.074-4.347c-2.119-.426-4.441.721-6.9,3.41a39.626,39.626,0,0,0-7.574,12.049Z" fill="#404040"/><path d="M4659.16,670h-.008a.227.227,0,0,1-.219-.234c.912-26.051,14.862-63.73,15-64.108a.226.226,0,1,1,.424.158c-.14.377-14.065,37.989-14.974,63.965A.227.227,0,0,1,4659.16,670Z" fill="#404040"/><path d="M4659.206,670.812a.226.226,0,0,1-.226-.217c-.011-.254-1.125-25.559-6.621-40.971-5.5-15.436-15.31-37.134-15.409-37.351a.227.227,0,1,1,.413-.187c.1.217,9.913,21.933,15.423,37.386,5.518,15.477,6.636,40.85,6.646,41.105a.225.225,0,0,1-.216.235Z" fill="#404040"/><path d="M4656.142,670.72a.228.228,0,0,1-.217-.16c-3.935-12.806-11.6-27.106-17.346-36.847-6.222-10.559-11.581-18.183-11.634-18.258a.226.226,0,1,1,.37-.261c.053.075,5.423,7.714,11.654,18.289,5.754,9.762,13.441,24.1,17.389,36.944a.226.226,0,0,1-.15.283A.252.252,0,0,1,4656.142,670.72Z" fill="#404040"/><path d="M4682.95,455.862a.583.583,0,0,1-.276-1.023l58.649-48.617a.582.582,0,1,1,.743.9l-58.649,48.618A.579.579,0,0,1,4682.95,455.862Z" fill="#404040"/><path d="M4739.135,416.05a.582.582,0,0,1-.375-.733l2.73-8.478-8.837,1.111a.582.582,0,1,1-.145-1.155l9.743-1.225a.582.582,0,0,1,.627.756l-3.01,9.348a.582.582,0,0,1-.733.376Z" fill="#404040"/><path d="M4603.036,485.011a.583.583,0,0,1-.269-1.029l1.091-.873a.582.582,0,0,1,.728.909l-1.091.873A.58.58,0,0,1,4603.036,485.011Z" fill="#404040"/><path d="M4606.337,482.368a.582.582,0,0,1-.268-1.029l2.211-1.769a.582.582,0,1,1,.727.909l-2.211,1.769A.578.578,0,0,1,4606.337,482.368Zm4.422-3.539a.583.583,0,0,1-.269-1.029l2.211-1.769a.582.582,0,0,1,.728.909l-2.211,1.769A.58.58,0,0,1,4610.759,478.829Zm4.421-3.539a.582.582,0,0,1-.268-1.029l2.21-1.77a.582.582,0,0,1,.728.909l-2.211,1.77A.582.582,0,0,1,4615.18,475.29Zm4.421-3.539a.583.583,0,0,1-.268-1.029l2.211-1.769a.582.582,0,1,1,.727.909l-2.21,1.769A.586.586,0,0,1,4619.6,471.751Zm4.422-3.539a.583.583,0,0,1-.268-1.029l2.21-1.769a.582.582,0,1,1,.728.908l-2.211,1.77A.582.582,0,0,1,4624.023,468.212Zm4.421-3.539a.583.583,0,0,1-.268-1.029l2.211-1.77a.582.582,0,1,1,.727.909l-2.211,1.77A.582.582,0,0,1,4628.444,464.673Zm4.422-3.539a.583.583,0,0,1-.269-1.029l2.211-1.77a.582.582,0,0,1,.728.909l-2.211,1.77A.583.583,0,0,1,4632.866,461.134Zm4.421-3.54a.576.576,0,0,1-.359-.21.583.583,0,0,1,.091-.819l2.211-1.769a.582.582,0,0,1,.727.909l-2.211,1.77A.582.582,0,0,1,4637.287,457.594Zm4.421-3.539a.582.582,0,0,1-.268-1.029l2.211-1.769a.582.582,0,0,1,.728.909l-2.211,1.769A.581.581,0,0,1,4641.708,454.055Zm4.422-3.539a.583.583,0,0,1-.268-1.029l2.21-1.769a.582.582,0,1,1,.728.909l-2.211,1.769A.579.579,0,0,1,4646.13,450.516Zm4.421-3.539a.582.582,0,0,1-.268-1.029l2.211-1.769a.582.582,0,0,1,.727.909l-2.21,1.769A.582.582,0,0,1,4650.551,446.977Zm4.422-3.539a.582.582,0,0,1-.268-1.029l2.21-1.769a.582.582,0,0,1,.728.909l-2.211,1.769A.58.58,0,0,1,4654.973,443.438Zm4.421-3.539a.583.583,0,0,1-.268-1.029l2.211-1.77a.582.582,0,0,1,.727.909l-2.21,1.77A.581.581,0,0,1,4659.394,439.9Zm4.422-3.539a.583.583,0,0,1-.269-1.029l2.211-1.77a.582.582,0,0,1,.728.909l-2.211,1.77A.583.583,0,0,1,4663.816,436.36Zm4.421-3.54a.574.574,0,0,1-.359-.21.581.581,0,0,1,.091-.818l2.211-1.77a.582.582,0,0,1,.727.909l-2.211,1.77A.577.577,0,0,1,4668.237,432.82Zm4.422-3.539a.581.581,0,0,1-.269-1.028l2.211-1.77a.582.582,0,0,1,.727.909l-2.21,1.77A.58.58,0,0,1,4672.659,429.281Zm4.421-3.539a.576.576,0,0,1-.359-.21.582.582,0,0,1,.09-.818l2.211-1.77a.582.582,0,0,1,.728.909l-2.211,1.77A.583.583,0,0,1,4677.08,425.742Zm4.421-3.539a.582.582,0,0,1-.268-1.029l2.211-1.769a.582.582,0,1,1,.727.909l-2.21,1.769A.581.581,0,0,1,4681.5,422.2Zm4.422-3.539a.582.582,0,0,1-.269-1.029l2.211-1.769a.582.582,0,0,1,.728.909l-2.211,1.769A.58.58,0,0,1,4685.923,418.664Zm4.421-3.539a.582.582,0,0,1-.268-1.029l2.211-1.769a.582.582,0,1,1,.727.909l-2.211,1.769A.579.579,0,0,1,4690.344,415.125Zm4.422-3.539a.582.582,0,0,1-.269-1.029l2.211-1.769a.582.582,0,1,1,.727.909l-2.21,1.769A.58.58,0,0,1,4694.766,411.586Zm4.421-3.539a.583.583,0,0,1-.268-1.029l2.21-1.77a.582.582,0,1,1,.728.909l-2.211,1.77A.578.578,0,0,1,4699.187,408.047Zm4.421-3.539a.583.583,0,0,1-.268-1.029l2.211-1.77a.582.582,0,1,1,.727.909l-2.21,1.77A.585.585,0,0,1,4703.608,404.508Zm4.422-3.539a.583.583,0,0,1-.269-1.029l2.211-1.77a.582.582,0,0,1,.728.909l-2.211,1.77A.582.582,0,0,1,4708.03,400.969Zm4.421-3.54a.576.576,0,0,1-.359-.21.582.582,0,0,1,.091-.818l2.211-1.77a.582.582,0,0,1,.727.909l-2.21,1.77A.581.581,0,0,1,4712.451,397.429Z" fill="#404040"/><path d="M4716.872,393.89a.572.572,0,0,1-.358-.21.582.582,0,0,1,.09-.818l1.091-.873a.582.582,0,1,1,.728.908l-1.091.873A.577.577,0,0,1,4716.872,393.89Z" fill="#404040"/><path d="M4715.339,401.778a.582.582,0,0,1-.363-.739l2.875-8.43-8.854.959a.582.582,0,1,1-.126-1.157l9.763-1.058a.582.582,0,0,1,.614.767l-3.169,9.3a.592.592,0,0,1-.188.266A.582.582,0,0,1,4715.339,401.778Z" fill="#404040"/><path d="M4984.673,604.043l.645,55.38h-8.294a4.193,4.193,0,0,0-4.193,4.193h2.679a2.533,2.533,0,0,0-.783,1.841,2.57,2.57,0,0,0,2.467,2.535,2.542,2.542,0,0,0,1.839-4.376h6.285v2.039a2.544,2.544,0,1,0,4.193,0v-2.039h5.785a2.521,2.521,0,0,0-.252,1.435,2.545,2.545,0,0,0,5.072-.3,2.525,2.525,0,0,0-.27-1.134h3.3l-1.2-2.717a4.122,4.122,0,0,0-3.161-1.476h-9.272l-.645-55.38Z" fill="#404040"/><path d="M5006.93,601.478h-41.268V578.206a20.633,20.633,0,0,1,20.634-20.633h0a20.634,20.634,0,0,1,20.634,20.633Z" fill="#fff"/><path d="M5006.93,601.717h-41.268a.239.239,0,0,1-.239-.239V566.712a9.39,9.39,0,0,1,9.379-9.378h22.989a9.389,9.389,0,0,1,9.378,9.378v34.766A.238.238,0,0,1,5006.93,601.717Zm-41.029-.478h40.79V566.712a8.91,8.91,0,0,0-8.9-8.9H4974.8a8.911,8.911,0,0,0-8.9,8.9Z" fill="#404040"/><path d="M4964.608,601.478h44.816a4.183,4.183,0,0,1,4.183,4.183h0a4.183,4.183,0,0,1-4.183,4.183h-44.816a4.183,4.183,0,0,1-4.183-4.183h0A4.183,4.183,0,0,1,4964.608,601.478Z" fill="#fff"/><path d="M5009.424,610.083h-44.816a4.422,4.422,0,0,1,0-8.844h44.816a4.422,4.422,0,1,1,0,8.844Zm-44.816-8.366a3.944,3.944,0,0,0,0,7.888h44.816a3.944,3.944,0,1,0,0-7.888Z" fill="#404040"/><path d="M4975.9,593.86c-.128-.323-.541-1.9-.914-9.273a.235.235,0,0,0-.094-.178.236.236,0,0,0-.2-.043,34.85,34.85,0,0,1-6.129.784c-1.6,0-2.531-.3-2.615-.856-2.694-17.728,3.073-27.252,8.386-32.12,1.822-1.669,5.475-2.155,5.512-2.159l8.9-1.327.037,0c.423,0,4.254.106,8.46,3.777,5.463,4.768,9.168,13.176,11.014,24.991a6.506,6.506,0,0,1-1.413,5.257,5.56,5.56,0,0,1-4.29,1.962l-5.663.039a.24.24,0,0,0-.236.208c-.824,6.387-1.172,8.389-1.278,8.936Z" fill="#004890"/><path d="M4988.781,548.929a9.58,9.58,0,0,1,2.79.511,15.709,15.709,0,0,1,5.514,3.208,26.478,26.478,0,0,1,6.185,8.477,58.394,58.394,0,0,1,4.749,16.37,6.269,6.269,0,0,1-1.358,5.065,5.328,5.328,0,0,1-4.113,1.878l-5.661.039a.479.479,0,0,0-.471.417c-.747,5.791-1.1,7.972-1.239,8.727h-19.108c-.151-.537-.516-2.46-.849-9.046a.482.482,0,0,0-.188-.357.477.477,0,0,0-.289-.1.53.53,0,0,0-.1.011,34.462,34.462,0,0,1-6.077.779c-1.68,0-2.331-.337-2.379-.653-2.678-17.624,3.042-27.079,8.311-31.907,1.764-1.616,5.346-2.094,5.391-2.1l8.866-1.322h.031m0-.478h-.072l-8.9,1.326s-3.744.48-5.643,2.22c-4.167,3.818-11.408,12.945-8.461,32.332.122.8,1.343,1.059,2.851,1.059a34.783,34.783,0,0,0,6.182-.79c.477,9.435,1.022,9.5,1.022,9.5h19.8s.292-1.168,1.321-9.144l5.662-.039c3.931,0,6.545-3.611,5.939-7.495-4.436-28.4-18.574-28.97-19.71-28.97Z" fill="#404040"/><path d="M4989.6,536.257l-.966-4.26-5.567-1.748-6.868,6.235.736,6.5a5.414,5.414,0,0,0,3.371,4.525l.005-.013.136,2.239,3.111,5.809,5.921-6.823.562-7.7s3.792.472,3.31-2.891-3.751-1.867-3.751-1.867" fill="#fff"/><path d="M4983.554,555.781l-.027,0a.238.238,0,0,1-.184-.124l-3.111-5.809a.242.242,0,0,1-.028-.1l-.126-2.074a5.636,5.636,0,0,1-3.385-4.669l-.735-6.494a.236.236,0,0,1,.077-.2l6.868-6.235a.238.238,0,0,1,.232-.051l5.566,1.748a.238.238,0,0,1,.162.175l.905,3.989a3.325,3.325,0,0,1,2.569.035,3.2,3.2,0,0,1,.646,4.464,3.721,3.721,0,0,1-2.725.84l-.544,7.465a.238.238,0,0,1-.058.139l-5.922,6.823A.238.238,0,0,1,4983.554,555.781Zm-2.876-6.115,2.923,5.457,5.642-6.5L4989.8,541a.24.24,0,0,1,.087-.168.23.23,0,0,1,.181-.052,3.544,3.544,0,0,0,2.577-.682,2.193,2.193,0,0,0,.466-1.938,2.227,2.227,0,0,0-1-1.771,3.139,3.139,0,0,0-2.412.087.239.239,0,0,1-.333-.164l-.936-4.126-5.3-1.666-6.677,6.06.722,6.377a5.162,5.162,0,0,0,3.172,4.309h0a.234.234,0,0,1,.2.215Z" fill="#404040"/><path d="M4978.578,538.055c.03.33-.11.613-.314.632s-.4-.233-.425-.564.109-.614.314-.633S4978.547,537.724,4978.578,538.055Z" fill="#404040"/><path d="M4982.472,537.606c.031.33-.11.614-.314.633s-.394-.234-.425-.565.11-.613.314-.632S4982.442,537.275,4982.472,537.606Z" fill="#404040"/><path d="M4980.122,542.628a.914.914,0,0,1-.874-1.175l.266-.888-.34-2.444a.239.239,0,0,1,.474-.065l.347,2.495a.242.242,0,0,1-.008.1l-.281.938a.431.431,0,0,0,.087.409.437.437,0,0,0,.392.147l.042-.006a.239.239,0,1,1,.066.473l-.042.006A.934.934,0,0,1,4980.122,542.628Z" fill="#404040"/><path d="M4992.662,538.788a.239.239,0,0,1-.233-.186,1.9,1.9,0,0,0-.838-1.348,1.462,1.462,0,0,0-1.1-.075.239.239,0,1,1-.169-.447,1.944,1.944,0,0,1,1.5.1,2.345,2.345,0,0,1,1.077,1.664.239.239,0,0,1-.18.285A.242.242,0,0,1,4992.662,538.788Z" fill="#404040"/><path d="M4990.744,539.69l-.035,0a.238.238,0,0,1-.2-.271,3.216,3.216,0,0,1,1.515-2.227.239.239,0,0,1,.231.419h0a2.78,2.78,0,0,0-1.274,1.879A.238.238,0,0,1,4990.744,539.69Z" fill="#404040"/><path d="M4989.6,536.5h-.019a5.788,5.788,0,0,1-5.729-6.088.239.239,0,0,1,.477.032c-.014.21-.269,5.129,5.29,5.58a.239.239,0,0,1-.019.477Z" fill="#404040"/><path d="M4975.841,532.663a5.446,5.446,0,0,1,2.86-5.293,12.445,12.445,0,0,1,9.386-.846,5.4,5.4,0,0,1,3.969,4.732l.477,5.138c-1.125-.965-2.937-.137-2.937-.137h0c-4.36-1.791-5.305-4.669-5.305-4.669s-3.786,4.608-8.315,5.028Z" fill="#404040"/><path d="M4981.272,536.646a.239.239,0,0,1-.174-.4,1.685,1.685,0,0,1,2.357-.072.239.239,0,1,1-.3.371,1.206,1.206,0,0,0-1.709.03A.239.239,0,0,1,4981.272,536.646Z" fill="#404040"/><path d="M4976.826,537.112a.239.239,0,0,1-.18-.4,1.413,1.413,0,0,1,1.887-.278.239.239,0,0,1-.267.4.938.938,0,0,0-1.26.2A.235.235,0,0,1,4976.826,537.112Z" fill="#404040"/><path d="M4980.871,547.779a5.5,5.5,0,0,1-.667-.04.239.239,0,1,1,.058-.474,5.126,5.126,0,0,0,2.417-.288l1.206-.448a.239.239,0,1,1,.166.448l-1.206.448A5.7,5.7,0,0,1,4980.871,547.779Z" fill="#404040"/><path d="M4981.559,545.215a1.62,1.62,0,0,1-.687-.147.239.239,0,1,1,.2-.433,1.405,1.405,0,0,0,1.119-.038.982.982,0,0,0,.527-.437.239.239,0,1,1,.456.143,1.386,1.386,0,0,1-.79.73A2.038,2.038,0,0,1,4981.559,545.215Z" fill="#404040"/><path d="M4977.537,578.089l-.844,4.375,11.462-1.917Z" fill="#fff"/><path d="M4976.693,582.7a.239.239,0,0,1-.235-.284l.844-4.375a.239.239,0,0,1,.1-.155.242.242,0,0,1,.185-.033l10.618,2.458a.239.239,0,0,1-.014.469l-11.463,1.917A.25.25,0,0,1,4976.693,582.7Zm1.031-4.325-.731,3.794,9.94-1.663Z" fill="#404040"/><path d="M4994.115,575.977l-17.4,5.109s-7.532-.731-8,3.555h24.712Z" fill="#fff"/><path d="M4993.427,584.88h-24.712a.239.239,0,0,1-.238-.264c.2-1.869,1.713-3.112,4.368-3.6a15.848,15.848,0,0,1,3.843-.178l17.36-5.1a.239.239,0,0,1,.305.248l-.688,8.664A.238.238,0,0,1,4993.427,584.88Zm-24.435-.478h24.214l.643-8.1-17.07,5.011a.247.247,0,0,1-.09.008C4976.618,581.316,4969.71,580.7,4968.992,584.4Z" fill="#404040"/><path d="M4994.445,576.039a.239.239,0,0,1-.081-.464l8.668-3.1a.239.239,0,0,1,.161.45l-8.668,3.1A.249.249,0,0,1,4994.445,576.039Z" fill="#404040"/><path d="M4997.308,574.81h-.014a.239.239,0,0,1-.225-.252l.4-7a.242.242,0,0,1,.252-.225.239.239,0,0,1,.225.253l-.4,7A.238.238,0,0,1,4997.308,574.81Z" fill="#404040"/><path d="M4974.171,577.589l-.038,0a.239.239,0,0,1-.2-.274l2.385-14.994a.239.239,0,0,1,.472.075l-2.385,14.994A.24.24,0,0,1,4974.171,577.589Z" fill="#404040"/><path d="M4977.6,578.375a.268.268,0,0,1-.04,0l-6.738-1.145a.239.239,0,1,1,.08-.471l6.738,1.145a.239.239,0,0,1-.04.474Z" fill="#404040"/><path d="M4986.538,557.287c-.054,0-.107,0-.161,0a3.673,3.673,0,0,1-2.8-1.456l-.082.064a3.718,3.718,0,0,1-5.834-1.794l-1-3.135a.239.239,0,1,1,.455-.146l1,3.135a3.24,3.24,0,0,0,5.084,1.564l.28-.219a.24.24,0,0,1,.347.057,3.239,3.239,0,0,0,5.252.217l4.442-5.536a.239.239,0,0,1,.373.3l-4.441,5.534A3.672,3.672,0,0,1,4986.538,557.287Z" fill="#404040"/><path d="M4984.2,664.61l-1.656-9.59h7.495l-1.337,9.59.087,3.961-4.688-.594Z" fill="#fff"/><path d="M4988.785,668.81l-.03,0-4.688-.594a.238.238,0,0,1-.209-.244l.1-3.343-1.651-9.566a.24.24,0,0,1,.052-.195.243.243,0,0,1,.183-.085h7.494a.238.238,0,0,1,.237.272l-1.334,9.571.087,3.942a.238.238,0,0,1-.079.183A.241.241,0,0,1,4988.785,668.81Zm-4.443-1.043,4.2.532-.081-3.684a.254.254,0,0,1,0-.038l1.3-9.318h-6.936l1.607,9.311a.248.248,0,0,1,0,.047Z" fill="#404040"/><path d="M4984.2,663.806l-2.644,6.061h11.141l-3.995-5.774s-.724,2.446-2,2.446C4984.95,666.539,4984.2,663.806,4984.2,663.806Z" fill="#404040"/><path d="M4980.374,655.259a.24.24,0,0,1-.239-.23l-1.989-52.387a9.482,9.482,0,0,1,2.521-6.934,6.905,6.905,0,0,1,10.19-.031,9.467,9.467,0,0,1,2.554,6.856l-1.434,52.494a.239.239,0,0,1-.239.232Z" fill="#f2f2f2"/><path d="M4985.777,593.687c4.178,0,7.528,4,7.4,8.84l-1.435,52.493h-11.364l-1.99-52.387c-.185-4.876,3.179-8.946,7.393-8.946h0m0-.478a7.316,7.316,0,0,0-5.282,2.333,9.721,9.721,0,0,0-2.588,7.109l1.989,52.388a.478.478,0,0,0,.478.459h11.364a.478.478,0,0,0,.478-.464l1.434-52.494a9.7,9.7,0,0,0-2.622-7.03,7.316,7.316,0,0,0-5.251-2.3Z" fill="#404040"/><path d="M4965.8,654.523l4.881-8.419-7.028-2.6-2.076,9.457-1.457,3.684,4.6,1.07Z" fill="#fff"/><path d="M4964.726,657.954a.248.248,0,0,1-.054-.006l-4.6-1.071a.238.238,0,0,1-.157-.122.242.242,0,0,1-.011-.2l1.45-3.666,2.072-9.438a.239.239,0,0,1,.119-.159.234.234,0,0,1,.2-.014l7.028,2.6a.242.242,0,0,1,.142.144.24.24,0,0,1-.018.2l-4.87,8.4-1.068,3.169A.239.239,0,0,1,4964.726,657.954Zm-4.279-1.48,4.122.959,1.006-2.986a.2.2,0,0,1,.02-.044l4.739-8.173-6.5-2.408-2.017,9.189a.189.189,0,0,1-.011.037Z" fill="#404040"/><path d="M4966.081,653.768l.375,6.6-10.448-3.867,5.751-4.028s-.17,2.546,1.024,2.988C4964.424,656.07,4966.081,653.768,4966.081,653.768Z" fill="#404040"/><path d="M4973.141,647.253a.236.236,0,0,1-.083-.015l-11.025-4.081a.239.239,0,0,1-.143-.3l16.834-49.679c1.387-3.747,4.673-6.259,8.18-6.259a6.956,6.956,0,0,1,2.426.433,6.767,6.767,0,0,1,.8.359c.632.213,6.2,2.319,7.893,3.127a11.812,11.812,0,0,1,6.417,13.932c-1.074,4.086-4.256,4.943-6.737,4.943a13.693,13.693,0,0,1-4.259-.721.238.238,0,0,1-.156-.229l.186-7.989-20.118,46.336A.239.239,0,0,1,4973.141,647.253Z" fill="#f2f2f2"/><path d="M4986.9,587.156a6.717,6.717,0,0,1,2.343.419h0a6.727,6.727,0,0,1,.787.352s5.975,2.214,7.89,3.125a11.5,11.5,0,0,1,6.289,13.656c-1.014,3.86-3.963,4.765-6.506,4.765a13.6,13.6,0,0,1-4.176-.706l.214-9.209-20.6,47.456-11.025-4.081,16.834-49.679c1.378-3.723,4.65-6.1,7.954-6.1m0-.477h0c-3.606,0-6.983,2.575-8.4,6.409l-16.838,49.692a.477.477,0,0,0,.286.6l11.025,4.081a.483.483,0,0,0,.166.03.477.477,0,0,0,.438-.288l19.631-45.215-.157,6.767a.477.477,0,0,0,.313.46,13.986,13.986,0,0,0,4.341.735c2.565,0,5.856-.888,6.968-5.121a11.836,11.836,0,0,0-1.191-9.391,13.015,13.015,0,0,0-5.354-4.818c-1.855-.883-7.449-2.963-7.9-3.131a7.1,7.1,0,0,0-.816-.363,7.19,7.19,0,0,0-2.509-.448Z" fill="#404040"/><path d="M4993.5,601.051a.228.228,0,0,1-.072-.012.238.238,0,0,1-.155-.3l1.4-4.405a.239.239,0,1,1,.455.145l-1.4,4.4A.239.239,0,0,1,4993.5,601.051Z" fill="#404040"/><path d="M4973.761,607.136a.24.24,0,0,1-.225-.165,14.407,14.407,0,0,1,2.045-13.025.24.24,0,0,1,.183-.086h2.386a.238.238,0,0,1,.226.317l-4.387,12.8a.238.238,0,0,1-.226.161Z" fill="#f2f2f2"/><path d="M4978.15,594.1h0m0,0-4.387,12.8a14.038,14.038,0,0,1,2-12.8h2.385m0-.478h-2.386a.476.476,0,0,0-.367.172,14.39,14.39,0,0,0-2.089,13.251.478.478,0,0,0,.45.331h.005a.479.479,0,0,0,.452-.323l4.378-12.774a.484.484,0,0,0,.035-.179.478.478,0,0,0-.478-.478Zm0,.956h0Z" fill="#404040"/><path d="M4992.269,545.053c.918,1.158,2.484,1.519,3.82,2.151a7.269,7.269,0,0,1,3.871,4.134,6.788,6.788,0,0,1-1.631,6.613,8.853,8.853,0,0,1-6.453,2.59,8.552,8.552,0,0,1-4.517-1.241,6.326,6.326,0,0,1-2.785-3.7c-.57-2.247.3-4.58,1.166-6.732q.806-2.02,1.616-4.041c.425-1.064.794-2.81,1.7-3.588C4991.342,539.273,4991.532,544.121,4992.269,545.053Z" fill="#404040"/><path d="M5003.623,670.151V588.076a.239.239,0,0,0-.239-.239h-51.218a.24.24,0,0,0-.239.232l-2.671,82.082h-2.6V588.076a.239.239,0,0,0-.239-.239h-11.073V583.87H5051.1v86.281Z" fill="#fff"/><path d="M5050.858,584.109v85.8h-47V588.076a.478.478,0,0,0-.478-.478h-51.218a.478.478,0,0,0-.478.463l-2.663,81.851h-2.131V588.076a.478.478,0,0,0-.478-.478h-10.834v-3.489h115.276m.478-.478H4935.1v4.445h11.312V670.39h3.071l2.679-82.314h51.218V670.39h47.952V583.631Z" fill="#404040"/><rect width="12.374" height="82.314" transform="translate(5003.384 588.076)" fill="#404040"/><path d="M2.661,0H41.24A2.661,2.661,0,0,1,43.9,2.661V22.668a2.661,2.661,0,0,1-2.661,2.661H2.66A2.66,2.66,0,0,1,0,22.668V2.661A2.661,2.661,0,0,1,2.661,0Z" transform="translate(4941.637 550.243)" fill="#fff"/><path d="M4982.877,550.482a2.424,2.424,0,0,1,2.422,2.421V572.91a2.424,2.424,0,0,1-2.422,2.422H4944.3a2.424,2.424,0,0,1-2.421-2.422V552.9a2.424,2.424,0,0,1,2.421-2.421h38.58m0-.478H4944.3a2.9,2.9,0,0,0-2.9,2.9V572.91a2.9,2.9,0,0,0,2.9,2.9h38.58a2.9,2.9,0,0,0,2.9-2.9V552.9a2.9,2.9,0,0,0-2.9-2.9Z" fill="#404040"/><path d="M4958.506,583.817l2.909-12.748a.846.846,0,0,1,.828-.66h2.679a.854.854,0,0,1,.83.671l2.748,12.737Z" fill="#fff"/><path d="M4964.922,570.648a.614.614,0,0,1,.6.482l2.686,12.448h-9.4l2.842-12.455a.606.606,0,0,1,.6-.475h2.679m0-.478h-2.679a1.088,1.088,0,0,0-1.061.847l-2.976,13.039h10.59l-2.811-13.027a1.088,1.088,0,0,0-1.063-.859Z" fill="#404040"/><path d="M5051.336,588.315h-47.952a.239.239,0,0,1,0-.478h47.952a.239.239,0,1,1,0,.478Z" fill="#404040"/><path d="M4963.443,576.953a2,2,0,1,1-2,2,2.007,2.007,0,0,1,2-2m0-.478a2.483,2.483,0,1,0,2.483,2.482,2.482,2.482,0,0,0-2.483-2.482Z" fill="#404040"/><path d="M4956.629,571.5h-5.935a.239.239,0,0,1,0-.478h5.935a.239.239,0,1,1,0,.478Z" fill="#404040"/><path d="M4956.629,569.769h-5.935a.239.239,0,0,1,0-.478h5.935a.239.239,0,1,1,0,.478Z" fill="#404040"/><path d="M4956.629,573.223h-5.935a.239.239,0,0,1,0-.478h5.935a.239.239,0,1,1,0,.478Z" fill="#404040"/><path d="M5400.32,670.588H4768.273c-.175,0-.316-.088-.316-.2s.141-.2.316-.2H5400.32c.175,0,.317.089.317.2S5400.5,670.588,5400.32,670.588Z" fill="#404040"/><path d="M4929.481,297.426a11.1,11.1,0,0,1-11.084-11.083V273.4a.86.86,0,1,1,1.719,0v12.939a9.365,9.365,0,1,0,18.729,0V273.186a.859.859,0,0,1,1.719,0v13.157A11.1,11.1,0,0,1,4929.481,297.426Z" fill="#404040"/><path d="M4939.561,317.3h-.654a9.94,9.94,0,0,1-9.928-9.928V296.567a.5.5,0,0,1,1,0v10.808a8.935,8.935,0,0,0,8.925,8.925h.654a8.935,8.935,0,0,0,8.925-8.925.5.5,0,1,1,1,0A9.939,9.939,0,0,1,4939.561,317.3Z" fill="#404040"/><path d="M4951.424,304.938a2.437,2.437,0,1,1-2.437-2.436A2.437,2.437,0,0,1,4951.424,304.938Z" fill="#fff"/><path d="M4948.988,307.876a2.938,2.938,0,1,1,2.937-2.938A2.942,2.942,0,0,1,4948.988,307.876Zm0-4.873a1.935,1.935,0,1,0,1.934,1.935A1.937,1.937,0,0,0,4948.988,303Z" fill="#404040"/><path d="M4949.967,304.938a.98.98,0,1,1-.98-.98A.98.98,0,0,1,4949.967,304.938Z" fill="#404040"/><path d="M4941.665,273.186a1.96,1.96,0,1,1-1.96-1.961A1.96,1.96,0,0,1,4941.665,273.186Z" fill="#404040"/><path d="M4921.217,273.186a1.961,1.961,0,1,1-1.961-1.961A1.961,1.961,0,0,1,4921.217,273.186Z" fill="#404040"/><path d="M4929.481,301.774a1.432,1.432,0,0,1-1.433-1.432v-3.775a1.433,1.433,0,1,1,2.865,0v3.775A1.432,1.432,0,0,1,4929.481,301.774Z" fill="#404040"/><path d="M5000.072,399.159h-14.113a15.109,15.109,0,0,1-15.109-15.109h0a15.11,15.11,0,0,1,15.109-15.11h14.113a15.11,15.11,0,0,1,15.109,15.11h0A15.109,15.109,0,0,1,5000.072,399.159Z" fill="#fff"/><path d="M5009.728,399.566H4976.3a5.867,5.867,0,0,1-5.861-5.86V374.394a5.866,5.866,0,0,1,5.861-5.86h33.424a5.866,5.866,0,0,1,5.86,5.86v19.312A5.867,5.867,0,0,1,5009.728,399.566ZM4976.3,369.347a5.053,5.053,0,0,0-5.047,5.047v19.312a5.053,5.053,0,0,0,5.047,5.046h33.424a5.052,5.052,0,0,0,5.046-5.046V374.394a5.052,5.052,0,0,0-5.046-5.047Z" fill="#404040"/><path d="M5000.137,380.573h-3.645v-3.645h-6.954v3.645h-3.645v6.954h3.645v3.644h6.954v-3.644h3.645Z" fill="#e6e6e6"/><path d="M5001.366,369.4a.465.465,0,0,1-.465-.465v-2a4.01,4.01,0,0,0-4.006-4.006h-7.759a4.01,4.01,0,0,0-4.006,4.006v2a.465.465,0,1,1-.93,0v-2a4.941,4.941,0,0,1,4.936-4.936h7.759a4.942,4.942,0,0,1,4.937,4.936v2A.465.465,0,0,1,5001.366,369.4Z" fill="#404040"/><path d="M4552.968,570.583l1.915,2.262,2.339-1.941c2.132-1.766,4.033-1.694,5.469-.777l-5.889,4.985,1.915,2.262,5.889-4.985c.662,1.565.435,3.475-1.675,5.261l-2.318,1.962,1.416,1.672.514.6.6-.508,12.712.9.213-2.956-9.961-.715a7.438,7.438,0,0,0,.811-8.178l3.106-2.629-1.915-2.262-3.1,2.629a7.322,7.322,0,0,0-3-1.345l4.189-3.546-1.914-2.261c-3.758,3.177-11.31,9.571-11.31,9.571Z" fill="#404040" fill-rule="evenodd"/><path d="M4543,627v7h34s-2-29-2-34l-11,9Z" fill="#004890" stroke="#404040" stroke-miterlimit="10" stroke-width="0.25"/><path d="M4510,615c.184.367.362.758.53,1.15C4511.278,617.891,4510,615,4510,615Z" fill="#404040"/><path d="M5146.11,502.3v-.366a34.48,34.48,0,0,0-2.646-13.257A35.571,35.571,0,0,0,5136,477.383a35.992,35.992,0,0,1,25.411-61.141l.336,0a35.992,35.992,0,0,1,25.562,61.33,33.909,33.909,0,0,0-7.368,11.192,34.862,34.862,0,0,0-2.56,13.169v.366Z" fill="#f2f2f2"/><path d="M5161.744,416.4a35.818,35.818,0,0,1,25.447,61.054,34.069,34.069,0,0,0-7.4,11.245,35.024,35.024,0,0,0-2.572,13.23v.2h-30.944v-.2a34.633,34.633,0,0,0-2.659-13.319,35.71,35.71,0,0,0-7.5-11.342,35.83,35.83,0,0,1,25.3-60.866l.334,0m0-.324-.337,0a36.153,36.153,0,0,0-25.525,61.416,35,35,0,0,1,10.066,24.435v.528h31.592v-.528a34.414,34.414,0,0,1,9.881-24.247,36.153,36.153,0,0,0-25.677-61.606Z" fill="#404040"/><path d="M5173.511,508.709h-23.534s.95,8.547,7.312,11.5a4.8,4.8,0,0,0,4.567,3.561,4.422,4.422,0,0,0,4.365-3.313C5173.119,517.774,5173.511,508.709,5173.511,508.709Z" fill="#404040"/><path d="M5178.309,505.159h-33.13a2.011,2.011,0,0,1-2.011-2.011h0a2.011,2.011,0,0,1,2.011-2.011h33.13a2.01,2.01,0,0,1,2.011,2.011h0A2.01,2.01,0,0,1,5178.309,505.159Z" fill="#404040"/><path d="M5178.309,510.247h-33.13a2.011,2.011,0,0,1-2.011-2.011h0a2.011,2.011,0,0,1,2.011-2.012h33.13a2.011,2.011,0,0,1,2.011,2.012h0A2.01,2.01,0,0,1,5178.309,510.247Z" fill="#404040"/><path d="M5168.149,501.3a.163.163,0,0,1-.057-.01.16.16,0,0,1-.094-.208l8.29-22.069a18.405,18.405,0,0,1-3.616.62,6.522,6.522,0,0,1-3.773-.774,9.269,9.269,0,0,1-1.132-.8,8.757,8.757,0,0,1-5.2,1.746,9.562,9.562,0,0,1-5.9-2.164,8.39,8.39,0,0,1-2.482,1.888,7.056,7.056,0,0,1-6.909-.311l8.214,21.867a.162.162,0,0,1-.3.114l-8.4-22.363a.162.162,0,0,1,.251-.185,6.679,6.679,0,0,0,7,.588,8.049,8.049,0,0,0,2.376-1.805,10.2,10.2,0,0,1-2.6-3.4,5.747,5.747,0,0,1-.592-3.725,2.884,2.884,0,0,1,5.632-.444,5.819,5.819,0,0,1,.033,3.7,9.965,9.965,0,0,1-2.008,3.841,9.234,9.234,0,0,0,5.69,2.083h.021a8.419,8.419,0,0,0,4.925-1.637,9.72,9.72,0,0,1-2.987-4.978c-.414-1.777-.115-3.968,1.484-4.859a3.368,3.368,0,0,1,4.205,1.151,5.359,5.359,0,0,1,.617,4.485,8.07,8.07,0,0,1-2.806,4.213,8.952,8.952,0,0,0,1.035.728c2.073,1.243,5.067.674,7.443.039a.162.162,0,0,1,.162.048.158.158,0,0,1,.031.165l-8.4,22.363A.163.163,0,0,1,5168.149,501.3Zm-.8-33.31a2.385,2.385,0,0,0-1.175.3c-1.453.809-1.713,2.844-1.327,4.5a9.38,9.38,0,0,0,2.935,4.852,7.761,7.761,0,0,0,2.742-4.082,5.037,5.037,0,0,0-.566-4.215A3.361,3.361,0,0,0,5167.347,467.988Zm-11.289.112c-.044,0-.09,0-.135.005a2.832,2.832,0,0,0-2.383,2.268,5.437,5.437,0,0,0,.569,3.515,9.871,9.871,0,0,0,2.523,3.3,9.645,9.645,0,0,0,1.944-3.72,5.506,5.506,0,0,0-.02-3.489A2.9,2.9,0,0,0,5156.058,468.1Z" fill="#404040"/><path d="M5151.483,426.287c1.429,1.614-.962,6.066-5.341,9.943s-9.087,5.711-10.516,4.1.961-6.067,5.34-9.943S5150.053,424.672,5151.483,426.287Z" fill="#fff"/><path d="M5090.072,606.824l.617,53.061h-7.947a4.017,4.017,0,0,0-4.017,4.017h2.567a2.43,2.43,0,0,0-.75,1.764,2.465,2.465,0,0,0,2.364,2.43,2.436,2.436,0,0,0,1.761-4.194h6.022v1.954a2.439,2.439,0,1,0,4.017,0V663.9h5.543a2.438,2.438,0,1,0,4.36,0h.826v-4.017h-10.729l-.617-53.061Z" fill="#404040"/><path d="M5061.585,555.33a6.609,6.609,0,0,0-6.391,8.293l13.213,50.122a7.623,7.623,0,0,0,7.351,5.607h56.072a7.442,7.442,0,0,0,7.441-7.441v-.149a4.816,4.816,0,0,0-4.81-4.844h-15.913l-11.2-46.525a6.609,6.609,0,0,0-6.425-5.063Z" fill="#fff"/><path d="M5131.83,619.572h-56.071a7.862,7.862,0,0,1-7.564-5.769l-13.213-50.123a6.828,6.828,0,0,1,6.6-8.569h39.342a6.807,6.807,0,0,1,6.638,5.23l11.156,46.357h15.74a4.983,4.983,0,0,1,3.557,1.478,5.048,5.048,0,0,1,1.473,3.586v.149A7.67,7.67,0,0,1,5131.83,619.572Zm-70.245-64.022a6.389,6.389,0,0,0-6.178,8.017l13.213,50.122a7.419,7.419,0,0,0,7.139,5.443h56.071a7.229,7.229,0,0,0,7.221-7.221v-.149a4.611,4.611,0,0,0-1.345-3.276,4.546,4.546,0,0,0-3.245-1.348h-15.913a.22.22,0,0,1-.214-.168l-11.2-46.526a6.372,6.372,0,0,0-6.211-4.894Z" fill="#404040"/><path d="M5087.128,605.606h-12.94a.22.22,0,1,1,0-.439h12.94a.22.22,0,1,1,0,.439Z" fill="#404040"/><path d="M5122.8,580.015c-1.093,6.448-1.886,7.038-5.06,19.672l-30.64-7.113.834-4.775c-5.716-2.6-9.149-7.542-6.707-17.451,7.394-30,29.78-27.984,29.78-27.984l8.46,2.024s7.774.255,11.97,35.349Z" fill="#fff"/><path d="M5117.741,599.907a.213.213,0,0,1-.05-.005l-30.641-7.114a.221.221,0,0,1-.167-.252l.805-4.608c-6.651-3.1-8.834-8.872-6.675-17.632,2.119-8.6,6.924-19.986,17.779-25.388a25.311,25.311,0,0,1,12.235-2.763l.031.005,8.442,2.019c.58.045,8.062,1.3,12.155,35.542a.218.218,0,0,1-.211.246l-8.457.272a63.577,63.577,0,0,1-1.984,8.254c-.693,2.388-1.642,5.658-3.049,11.258A.22.22,0,0,1,5117.741,599.907Zm-30.388-7.5,30.227,7.017c1.38-5.48,2.316-8.7,3-11.064a63.042,63.042,0,0,0,2-8.382.22.22,0,0,1,.21-.183l8.4-.27c-4.11-34.088-11.657-34.913-11.733-34.918a.192.192,0,0,1-.041-.005l-8.443-2.02a24.939,24.939,0,0,0-12.007,2.73c-10.689,5.332-15.431,16.587-17.526,25.089-2.117,8.589.037,14.215,6.585,17.2a.221.221,0,0,1,.126.238Z" fill="#404040"/><path d="M5128.736,530.51l-3.169,8.74a5.558,5.558,0,0,1-4.974,3.5l-.642,1.771-2.836,2.349-5.745-4.51,5.487-15.793s7.951-4.889,11.879,3.943" fill="#fff"/><path d="M5117.115,547.09a.223.223,0,0,1-.136-.047l-5.744-4.51a.219.219,0,0,1-.072-.245l5.486-15.793a.213.213,0,0,1,.093-.115c.144-.089,3.578-2.162,7.11-1.068,2.165.671,3.876,2.39,5.085,5.108a.224.224,0,0,1,.006.165l-3.169,8.74a5.791,5.791,0,0,1-5.024,3.637l-.592,1.634a.226.226,0,0,1-.067.094l-2.836,2.35A.22.22,0,0,1,5117.115,547.09Zm-5.486-4.806,5.482,4.3,2.654-2.2.621-1.715a.221.221,0,0,1,.2-.145,5.348,5.348,0,0,0,4.776-3.355l3.138-8.657c-1.153-2.55-2.76-4.16-4.777-4.785-3.087-.957-6.2.7-6.684.983Z" fill="#404040"/><path d="M5114.186,534.272s-3.713-.491-2.423-3.561,3.819-.554,3.819-.554Z" fill="#fff"/><path d="M5114.186,534.492l-.029,0a3.861,3.861,0,0,1-2.608-1.507,2.578,2.578,0,0,1,.011-2.357,2.4,2.4,0,0,1,1.647-1.626,3.308,3.308,0,0,1,2.53,1,.222.222,0,0,1,.053.227l-1.4,4.115A.22.22,0,0,1,5114.186,534.492Zm-.627-5.086a1.345,1.345,0,0,0-.268.026c-.545.108-.99.567-1.326,1.364a2.168,2.168,0,0,0-.036,1.967,3.257,3.257,0,0,0,2.11,1.259l1.289-3.8A3.056,3.056,0,0,0,5113.559,529.406Z" fill="#404040"/><path d="M5121.925,537.772a.22.22,0,0,1-.064-.43l1.159-.354a.585.585,0,0,0,.371-.779l-.439-1.082a.22.22,0,0,1,0-.167l.814-1.96a.22.22,0,0,1,.406.169l-.779,1.876.4,1a1.026,1.026,0,0,1-.651,1.366l-1.159.354A.236.236,0,0,1,5121.925,537.772Z" fill="#404040"/><path d="M5121.882,530.762a1.463,1.463,0,0,0-1.644-.971" fill="#fff"/><path d="M5121.882,530.982a.221.221,0,0,1-.211-.159,1.24,1.24,0,0,0-1.409-.813.22.22,0,0,1-.047-.438,1.68,1.68,0,0,1,1.878,1.129.221.221,0,0,1-.211.281Z" fill="#404040"/><path d="M5126.519,532.523a1.463,1.463,0,0,0-1.777-.7" fill="#fff"/><path d="M5126.52,532.743a.218.218,0,0,1-.2-.126,1.246,1.246,0,0,0-1.521-.578.22.22,0,0,1-.116-.425,1.681,1.681,0,0,1,2.034.816.22.22,0,0,1-.2.313Z" fill="#404040"/><path d="M5114.841,530.331s-1.495-1.058-2.534.953" fill="#fff"/><path d="M5112.307,531.5a.215.215,0,0,1-.1-.025.219.219,0,0,1-.094-.3,2.287,2.287,0,0,1,1.424-1.3,1.9,1.9,0,0,1,1.432.272.22.22,0,1,1-.253.36,1.463,1.463,0,0,0-1.08-.2,1.884,1.884,0,0,0-1.133,1.077A.219.219,0,0,1,5112.307,531.5Z" fill="#404040"/><path d="M5113.089,530.322a2.936,2.936,0,0,1,.814,2.292" fill="#fff"/><path d="M5113.9,532.834h-.023a.22.22,0,0,1-.2-.242,2.722,2.722,0,0,0-.746-2.109.22.22,0,1,1,.3-.319,3.14,3.14,0,0,1,.882,2.475A.22.22,0,0,1,5113.9,532.834Z" fill="#404040"/><path d="M5120.887,592.574H5087.1s-10.417,25.463,30.125,22.95l-.551,46.14,13.132-.249,8.655-55.84c.271-3.61-1.168-8.816-5.943-8.69l-11.271-.608Z" fill="#004890"/><path d="M5116.674,661.884a.22.22,0,0,1-.22-.223l.548-45.9c-14.661.873-24.327-1.8-28.737-7.948-4.807-6.7-1.4-15.234-1.368-15.319a.219.219,0,0,1,.2-.137h33.787a.219.219,0,0,1,.218.2l.343,3.515,11.081.6a5.149,5.149,0,0,1,4.014,1.607c1.838,1.93,2.3,5.149,2.138,7.319l-8.658,55.858a.22.22,0,0,1-.213.186l-13.132.249Zm.551-46.58a.224.224,0,0,1,.152.061.22.22,0,0,1,.068.162l-.548,45.913,12.72-.241,8.627-55.658c.154-2.063-.281-5.14-2.02-6.965a4.73,4.73,0,0,0-3.7-1.471l-11.288-.608a.221.221,0,0,1-.208-.2l-.341-3.505h-33.435c-.41,1.109-2.964,8.719,1.372,14.762s13.957,8.655,28.587,7.749Z" fill="#404040"/><path d="M5125.523,661.664l12.013,8.01h-19.153l.594-8.01Z" fill="#404040"/><path d="M5145.861,659.825l13.922,3.827-18.182,6.022-1.954-7.791Z" fill="#404040"/><path d="M5121.5,596.476h-5.6a.22.22,0,1,1,0-.44h5.6a.22.22,0,1,1,0,.44Z" fill="#404040"/><path d="M5092.265,575.742l31.38,12.057h-35.711" fill="#fff"/><path d="M5087.934,588.019a.22.22,0,1,1,0-.44h34.526l-30.274-11.631a.22.22,0,0,1,.158-.411l31.38,12.057a.22.22,0,0,1-.079.425Z" fill="#404040"/><path d="M5093.888,576.5a.217.217,0,0,1-.1-.027.219.219,0,0,1-.089-.3l10.943-20.264a.219.219,0,1,1,.386.209l-10.942,20.264A.221.221,0,0,1,5093.888,576.5Z" fill="#404040"/><path d="M5132.366,525.844A4.622,4.622,0,0,0,5124.99,522l-.079-.024c-7.162-2.118-8.25.087-9.114,2.22-.541,1.336-1.449,5-1.449,5a3.725,3.725,0,0,1,1.415,1.165l.958-2.156a2.7,2.7,0,0,1,3.943-1.146c.681.464,1.26,1.117,1.98,1.621,1.581,1.108,4.8,2.428,6.187,1.753a1.971,1.971,0,0,0,.507-.383A4.626,4.626,0,0,0,5132.366,525.844Z" fill="#404040"/><path d="M5125.354,539.747l-10.3-4.432.685-5.533-2.329,6.705a6.448,6.448,0,0,0,7.123,6.426A5.668,5.668,0,0,0,5125.354,539.747Z" fill="#404040"/><path d="M5120.088,530.808c-.168.279-.165.589.008.692s.447-.038.615-.316.165-.589-.007-.693S5120.256,530.529,5120.088,530.808Z" fill="#404040"/><path d="M5124.673,532.773c-.168.278-.165.588.007.692s.448-.038.616-.317.165-.588-.007-.692S5124.841,532.494,5124.673,532.773Z" fill="#404040"/><path d="M5118.631,539.821a.219.219,0,0,1-.172-.082l-.714-.89a.22.22,0,1,1,.343-.276l.714.891a.22.22,0,0,1-.034.309A.222.222,0,0,1,5118.631,539.821Z" fill="#fff"/><path d="M5125.81,545.145l.149-.56,3.809-3.519.366-3.747a.955.955,0,0,0-.684-1.029.93.93,0,0,0-1.118.6l-.175.515-.063-.6a.961.961,0,0,0-.9-.875.925.925,0,0,0-.819.438,1.022,1.022,0,0,0-.555-.123,1.041,1.041,0,0,0-.972,1.014l-.052,4.2a15.967,15.967,0,0,0-2.036,1.1,4.845,4.845,0,0,0-1.4,3.693l-2.853,34.1a6.87,6.87,0,0,0,6.442,7.431h0a6.87,6.87,0,0,0,7.162-8.091Z" fill="#fff"/><path d="M5125.362,588.019c-.141,0-.283,0-.426-.013a7.091,7.091,0,0,1-6.649-7.668l2.854-34.1a4.907,4.907,0,0,1,1.482-3.845,14,14,0,0,1,1.957-1.072l.05-4.064a1.255,1.255,0,0,1,1.177-1.231,1.238,1.238,0,0,1,.5.071,1.127,1.127,0,0,1,.9-.387,1.166,1.166,0,0,1,1.058.827,1.144,1.144,0,0,1,1.244-.465,1.178,1.178,0,0,1,.848,1.263l-.366,3.748a.224.224,0,0,1-.07.14l-3.762,3.475-.12.452,6.292,34.5a7.09,7.09,0,0,1-6.965,8.362Zm.527-51.551h-.052a.819.819,0,0,0-.767.8l-.052,4.2a.22.22,0,0,1-.127.2,14.931,14.931,0,0,0-1.99,1.072,4.521,4.521,0,0,0-1.321,3.53l-2.854,34.106a6.65,6.65,0,1,0,13.169-.638l-6.3-34.551a.212.212,0,0,1,0-.1l.15-.561a.212.212,0,0,1,.063-.1l3.747-3.462.359-3.665a.736.736,0,0,0-.52-.794.708.708,0,0,0-.856.459l-.175.515a.22.22,0,0,1-.427-.047l-.063-.6a.737.737,0,0,0-.686-.679.7.7,0,0,0-.625.335.222.222,0,0,1-.29.077A.816.816,0,0,0,5125.889,536.468Z" fill="#404040"/><path d="M5127.241,542.514a.219.219,0,0,1-.178-.347l1.2-1.678-.366-3.45a.22.22,0,1,1,.437-.046l.375,3.533a.214.214,0,0,1-.04.151l-1.25,1.746A.218.218,0,0,1,5127.241,542.514Z" fill="#404040"/><path d="M5126.364,542.839a.23.23,0,0,1-.057-.008.219.219,0,0,1-.155-.269l.34-1.276.123-4.049a.9.9,0,0,0-.443-.754.22.22,0,0,1,.216-.383,1.35,1.35,0,0,1,.667,1.15l-.125,4.075a.221.221,0,0,1-.007.05l-.346,1.3A.222.222,0,0,1,5126.364,542.839Zm.347-1.521h0Z" fill="#404040"/><path d="M5120.937,551.532a.22.22,0,0,1-.02-.439l5.9-.545a.22.22,0,1,1,.04.438l-5.9.545Z" fill="#404040"/><path d="M5120.636,555.129a.22.22,0,0,1-.025-.439l6.6-.768a.218.218,0,0,1,.244.193.221.221,0,0,1-.193.244l-6.6.768Z" fill="#404040"/><ellipse cx="0.364" cy="0.589" rx="0.364" ry="0.589" transform="translate(5121.561 552.439)" fill="#404040"/><path d="M5117.225,615.744a.22.22,0,0,1-.22-.214l-.083-3.459a.22.22,0,0,1,.214-.225.214.214,0,0,1,.226.214l.083,3.459a.22.22,0,0,1-.215.225Z" fill="#404040"/><path d="M5137.851,662.912l10.7-4.135-10.057-54.309-5.764,38.113Z" fill="#004890"/><path d="M5137.851,663.132a.217.217,0,0,1-.213-.166l-5.126-20.331a.209.209,0,0,1,0-.087l5.764-38.113a.22.22,0,0,1,.434-.007l10.056,54.309a.219.219,0,0,1-.137.245l-10.695,4.136A.237.237,0,0,1,5137.851,663.132Zm-4.9-20.562L5138,662.618l10.294-3.981-9.786-52.843Z" fill="#404040"/><path d="M5120.937,550.3a.217.217,0,0,1-.141-.052l-3.7-3.1-4.162,2.733a.218.218,0,0,1-.315-.081l-3.816-7.213a.22.22,0,1,1,.388-.206l3.7,7,4.1-2.691a.219.219,0,0,1,.262.016l3.822,3.208a.221.221,0,0,1-.141.389Z" fill="#404040"/><path d="M5194.617,606.824l.617,53.061h-7.947a4.017,4.017,0,0,0-4.017,4.017h2.567a2.43,2.43,0,0,0-.75,1.764,2.464,2.464,0,0,0,2.363,2.43,2.436,2.436,0,0,0,1.762-4.194h6.022v1.954a2.439,2.439,0,1,0,4.017,0V663.9h5.543a2.421,2.421,0,0,0-.241,1.375,2.438,2.438,0,0,0,4.859-.288,2.418,2.418,0,0,0-.258-1.087h3.16l-1.15-2.6a3.948,3.948,0,0,0-3.028-1.415h-8.885l-.617-53.061Z" fill="#404040"/><path d="M5.7,0H33.842a5.7,5.7,0,0,1,5.7,5.7V42.066a0,0,0,0,1,0,0H0a0,0,0,0,1,0,0V5.7A5.7,5.7,0,0,1,5.7,0Z" transform="translate(5176.402 562.3)" fill="#fff"/><path d="M5215.941,604.586H5176.4a.219.219,0,0,1-.22-.22V570.711a8.641,8.641,0,0,1,8.631-8.631h22.717a8.641,8.641,0,0,1,8.631,8.631v33.655A.22.22,0,0,1,5215.941,604.586Zm-39.319-.439h39.1V570.711a8.2,8.2,0,0,0-8.192-8.191h-22.717a8.2,8.2,0,0,0-8.191,8.191Z" fill="#404040"/><path d="M5175.391,604.366h42.939a4.008,4.008,0,0,1,4.008,4.008h0a4.007,4.007,0,0,1-4.008,4.008h-42.939a4.008,4.008,0,0,1-4.008-4.008h0A4.009,4.009,0,0,1,5175.391,604.366Z" fill="#fff"/><path d="M5218.33,612.6h-42.939a4.228,4.228,0,0,1,0-8.455h42.939a4.228,4.228,0,1,1,0,8.455Zm-42.939-8.016a3.788,3.788,0,1,0,0,7.576h42.939a3.788,3.788,0,1,0,0-7.576Z" fill="#404040"/><path d="M5205.373,552.89a9.859,9.859,0,0,0-1.727-1.327l-8.271,6.6-1.213-4.795s-14.524-.6-18.953,27.755c-.582,3.722,1.923,7.181,5.69,7.181l5.424.038c.987,7.641,1.266,8.761,1.266,8.761h18.975s1.318-9.669,1.776-18.709c2.8.373,7.782,1.271,9.161-5.169C5219.448,564.137,5209.587,556.29,5205.373,552.89Z" fill="#004890"/><path d="M5206.564,597.325h-18.975a.219.219,0,0,1-.213-.167c-.011-.046-.289-1.2-1.246-8.6l-5.233-.036a5.767,5.767,0,0,1-4.45-2.037,6.679,6.679,0,0,1-1.456-5.4c1.269-8.123,4.245-18.992,11.217-24.648,4.2-3.407,7.812-3.3,7.963-3.294a.219.219,0,0,1,.2.166l1.13,4.465,8-6.389a.219.219,0,0,1,.251-.017,10.037,10.037,0,0,1,1.758,1.35l.116.093c4.2,3.388,14.038,11.32,12.082,20.455-1.377,6.43-6.228,5.772-9.127,5.378l-.042-.005c-.463,8.878-1.752,18.393-1.765,18.489A.22.22,0,0,1,5206.564,597.325Zm-18.8-.44h18.6c.185-1.4,1.331-10.266,1.748-18.5a.221.221,0,0,1,.079-.158.215.215,0,0,1,.17-.049l.279.037c2.926.4,7.346,1,8.638-5.034,1.9-8.87-7.79-16.684-11.928-20.02l-.123-.1-.014-.012a9.7,9.7,0,0,0-1.558-1.217l-8.151,6.505a.219.219,0,0,1-.35-.118l-1.171-4.628a13.118,13.118,0,0,0-7.537,3.22c-6.842,5.576-9.774,16.319-11.028,24.349a6.239,6.239,0,0,0,1.355,5.043,5.338,5.338,0,0,0,4.118,1.883l5.426.038a.22.22,0,0,1,.216.192C5187.335,594.463,5187.667,596.371,5187.768,596.885Z" fill="#404040"/><path d="M5204.091,541.69l-.54-4.15-5.152-2.167-7.112,5.331.119,6.265a5.189,5.189,0,0,0,2.81,4.619l.006-.012-.072,2.147.542,5.8,7.992-4.883,1.4-8.372s3.574.791,3.416-2.46-3.41-2.118-3.41-2.118" fill="#fff"/><path d="M5194.692,559.743a.212.212,0,0,1-.1-.023.22.22,0,0,1-.121-.176l-.542-5.8a.279.279,0,0,1,0-.028l.067-2a5.388,5.388,0,0,1-2.811-4.751l-.118-6.261a.217.217,0,0,1,.088-.18l7.111-5.331a.22.22,0,0,1,.217-.027l5.153,2.167a.223.223,0,0,1,.133.174l.506,3.9a3.185,3.185,0,0,1,2.45.26,2.553,2.553,0,0,1,1,2.129,2.521,2.521,0,0,1-.779,2.172,3.553,3.553,0,0,1-2.677.554l-1.364,8.153a.221.221,0,0,1-.1.152l-7.992,4.883A.225.225,0,0,1,5194.692,559.743Zm-.322-6.026.508,5.435,7.606-4.647,1.384-8.273a.219.219,0,0,1,.094-.146.223.223,0,0,1,.17-.033,3.4,3.4,0,0,0,2.527-.421,2.114,2.114,0,0,0,.623-1.814,2.144,2.144,0,0,0-.8-1.786,3.011,3.011,0,0,0-2.317-.134.22.22,0,0,1-.29-.18l-.523-4.025-4.921-2.069-6.919,5.188.116,6.153a4.952,4.952,0,0,0,2.644,4.4h0a.216.216,0,0,1,.167.214Z" fill="#404040"/><path d="M5194.267,542.387c0,.318-.16.576-.357.575s-.355-.258-.355-.576.16-.575.357-.575S5194.267,542.069,5194.267,542.387Z" fill="#404040"/><path d="M5198.566,542.393c0,.318-.16.575-.357.575s-.355-.258-.355-.576.16-.576.357-.575S5198.566,542.075,5198.566,542.393Z" fill="#404040"/><path d="M5195.338,547.367a.864.864,0,0,1-.8-1.191l.333-.825-.1-2.363a.22.22,0,1,1,.44-.02l.107,2.411a.225.225,0,0,1-.016.093l-.352.869a.427.427,0,0,0,.415.586l.041,0a.224.224,0,0,1,.23.209.22.22,0,0,1-.209.23l-.041,0Z" fill="#404040"/><path d="M5206.81,544.372a.22.22,0,0,1-.218-.192,1.839,1.839,0,0,0-.678-1.365,1.426,1.426,0,0,0-1.056-.173.222.222,0,0,1-.269-.156.219.219,0,0,1,.154-.269,1.86,1.86,0,0,1,1.411.23,2.241,2.241,0,0,1,.874,1.677.219.219,0,0,1-.19.246Z" fill="#404040"/><path d="M5204.9,545.06a.229.229,0,0,1-.053-.006.221.221,0,0,1-.161-.267,3.075,3.075,0,0,1,1.64-1.982.22.22,0,0,1,.175.4h0a2.673,2.673,0,0,0-1.388,1.684A.22.22,0,0,1,5204.9,545.06Z" fill="#404040"/><path d="M5204.091,541.91a.237.237,0,0,1-.038,0,5.537,5.537,0,0,1-4.911-6.311.217.217,0,0,1,.252-.182.221.221,0,0,1,.182.252c-.032.2-.719,4.877,4.553,5.807a.22.22,0,0,1-.038.437Z" fill="#404040"/><path d="M5191.292,537.027a5.219,5.219,0,0,1,3.2-4.792,11.915,11.915,0,0,1,9.028.036,5.172,5.172,0,0,1,3.362,4.87l-.006,4.943c-.986-1.021-2.789-.394-2.789-.394h0c-4-2.1-4.642-4.929-4.642-4.929s-4.024,4.055-8.383,4.049Z" fill="#404040"/><path d="M5198.74,541.633a.221.221,0,0,1-.154-.063,1.173,1.173,0,0,0-1.644-.126.22.22,0,0,1-.29-.331,1.607,1.607,0,0,1,2.243.143.221.221,0,0,1-.155.377Z" fill="#404040"/><path d="M5192.7,541.322a.22.22,0,0,1-.152-.379,1.346,1.346,0,0,1,1.813-.1.22.22,0,0,1-.278.341.907.907,0,0,0-1.231.074A.224.224,0,0,1,5192.7,541.322Z" fill="#404040"/><path d="M5195.242,551.913a5.382,5.382,0,0,1-1.139-.122.22.22,0,1,1,.094-.429,4.926,4.926,0,0,0,2.336-.058l1.19-.319a.22.22,0,0,1,.114.425l-1.19.319A5.474,5.474,0,0,1,5195.242,551.913Z" fill="#404040"/><path d="M5215.5,552.419l-.013-.006a5.418,5.418,0,0,0-1.693-3.61,5.729,5.729,0,0,0-7-.627l0,0,0,0,0-2.484a2.658,2.658,0,0,1-2.821.436s-6.074,7.545-.126,13.458C5206.845,562.56,5217.23,562.876,5215.5,552.419Z" fill="#404040"/><path d="M5208.775,578.368c-3.932.54-13.843-6.933-15.29-15.571a15.882,15.882,0,0,1,.422-6.708l2.612-2.055-.888-.761a.859.859,0,0,1-.116-1.186h0a.859.859,0,0,1,1.236-.118l2.525,2.175a1.848,1.848,0,0,1,.443,2.231l-1.583,3.139a21.667,21.667,0,0,0,4.457,5.8,49.26,49.26,0,0,0,5.172,4.4Z" fill="#fff"/><path d="M5208.354,578.615c-2.09,0-5.341-1.719-8.3-4.428-3.662-3.349-6.134-7.487-6.781-11.354a15.909,15.909,0,0,1,.429-6.811.215.215,0,0,1,.073-.106l2.4-1.89-.685-.586a1.08,1.08,0,1,1,1.408-1.638l2.524,2.175a2.064,2.064,0,0,1,.5,2.5l-1.536,3.044a21.276,21.276,0,0,0,4.367,5.639,49.453,49.453,0,0,0,5.146,4.377.22.22,0,0,1,.09.153l1.01,8.655a.22.22,0,0,1-.188.243A3.271,3.271,0,0,1,5208.354,578.615Zm-14.256-22.4a15.815,15.815,0,0,0-.4,6.541c1.4,8.344,10.86,15.649,14.829,15.411l-.974-8.337a50.333,50.333,0,0,1-5.118-4.363,21.379,21.379,0,0,1-4.5-5.865.219.219,0,0,1,0-.191l1.583-3.139a1.624,1.624,0,0,0-.391-1.965l-2.525-2.176a.64.64,0,1,0-.833.971l.888.761a.219.219,0,0,1-.007.339Z" fill="#404040"/><line x2="1.834" y2="1.593" transform="translate(5196.519 554.034)" fill="#fff"/><path d="M5198.352,555.846a.218.218,0,0,1-.144-.053l-1.834-1.593a.22.22,0,0,1,.289-.332l1.833,1.592a.22.22,0,0,1-.144.386Z" fill="#404040"/><line x2="1.686" y2="1.502" transform="translate(5195.507 554.83)" fill="#fff"/><path d="M5197.193,556.552a.223.223,0,0,1-.147-.055l-1.685-1.5a.22.22,0,1,1,.292-.328l1.686,1.5a.22.22,0,0,1,.018.311A.223.223,0,0,1,5197.193,556.552Z" fill="#404040"/><line x2="1.636" y2="1.508" transform="translate(5194.553 555.581)" fill="#fff"/><path d="M5196.188,557.31a.22.22,0,0,1-.149-.058l-1.635-1.509a.22.22,0,1,1,.3-.323l1.635,1.508a.22.22,0,0,1-.149.382Z" fill="#404040"/><path d="M5196.4,549.406a.215.215,0,0,1-.116-.034.22.22,0,0,1-.07-.3,2.982,2.982,0,0,1,.985-.867l.124-.079a.22.22,0,1,1,.242.367c-.038.026-.083.054-.133.085a2.616,2.616,0,0,0-.845.727A.219.219,0,0,1,5196.4,549.406Z" fill="#404040"/><path d="M5212.329,569.933h-4.564a.221.221,0,0,1-.219-.192l-.839-6.631a.22.22,0,1,1,.436-.055l.815,6.438h4.371a.22.22,0,0,1,0,.44Z" fill="#404040"/><path d="M5183.486,611.3s-.025-8.794,4.1-14.184h18.975s5.765,3.766,6.023,14.184Z" fill="#404040"/><path d="M5196.789,655.255h-11.263l-2.065-50.238c0-4.709,3.3-8.527,7.363-8.527h0c4.066,0,7.363,3.818,7.363,8.527Z" fill="#404040"/><path d="M5210.681,655.255h-10.888l-1.375-50.294c-.126-4.634,3.083-8.471,7.086-8.471h0c4.038,0,7.26,3.9,7.083,8.572Z" fill="#404040"/><path d="M5189.623,664.443l-1.586-9.188h7.18l-1.281,9.188.084,3.8-4.492-.569Z" fill="#fff"/><path d="M5194.021,668.458h-.028l-4.493-.569a.221.221,0,0,1-.192-.225l.095-3.2-1.583-9.166a.221.221,0,0,1,.217-.257h7.18a.22.22,0,0,1,.218.25l-1.278,9.17.083,3.778a.22.22,0,0,1-.072.168A.222.222,0,0,1,5194.021,668.458Zm-4.267-.982,4.041.512-.078-3.54a.123.123,0,0,1,0-.035l1.245-8.938H5188.3l1.542,8.931a.333.333,0,0,1,0,.044Z" fill="#404040"/><path d="M5189.623,663.673l-2.532,5.807h10.673l-3.827-5.532s-.694,2.344-1.914,2.344C5190.346,666.292,5189.623,663.673,5189.623,663.673Z" fill="#404040"/><path d="M5207.019,664.443l1.586-9.188h-7.18l1.28,9.188-.083,3.8,4.492-.569Z" fill="#fff"/><path d="M5202.622,668.458a.22.22,0,0,1-.147-.056.216.216,0,0,1-.073-.168l.084-3.778-1.279-9.17a.223.223,0,0,1,.052-.175.221.221,0,0,1,.166-.075h7.181a.22.22,0,0,1,.168.078.217.217,0,0,1,.048.179l-1.582,9.166.094,3.2a.221.221,0,0,1-.192.225l-4.492.569Zm-.944-12.983,1.245,8.938a.22.22,0,0,1,0,.035l-.079,3.54,4.041-.512-.089-3.026a.333.333,0,0,1,0-.044l1.542-8.931Z" fill="#404040"/><path d="M5207.019,663.673l2.533,5.807h-10.674l3.828-5.532s.693,2.344,1.913,2.344C5206.3,666.292,5207.019,663.673,5207.019,663.673Z" fill="#404040"/><path d="M5188.982,579.742l16.674,4.894s7.217-.7,7.663,3.407h-23.678Z" fill="#fff"/><path d="M5213.319,588.263h-23.678a.22.22,0,0,1-.219-.2l-.659-8.3a.219.219,0,0,1,.08-.188.222.222,0,0,1,.2-.04l16.634,4.883a15.105,15.105,0,0,1,3.682.169c2.539.463,3.983,1.651,4.177,3.437a.22.22,0,0,1-.218.243Zm-23.474-.44h23.219c-.679-3.572-7.318-2.975-7.387-2.968a.232.232,0,0,1-.083-.008l-16.367-4.8Z" fill="#404040"/><path d="M5188.666,579.792a.22.22,0,0,1-.074-.013l-8.3-2.97a.22.22,0,1,1,.149-.414l8.3,2.97a.22.22,0,0,1-.074.427Z" fill="#404040"/><path d="M5185.923,578.615a.22.22,0,0,1-.219-.207l-.382-6.708a.22.22,0,0,1,.439-.025l.382,6.708a.22.22,0,0,1-.207.232Z" fill="#404040"/><path d="M5233.488,573.874h-3.915a.588.588,0,0,0-.587.588h0a.587.587,0,0,0,.587.587h1.929a.588.588,0,0,1,.588.588h0a.587.587,0,0,1-.588.588h-.586a.587.587,0,0,0-.588.587h0a.587.587,0,0,0,.588.588h2.74a.588.588,0,0,1,.587.588v.569a.587.587,0,0,0,.588.588h0a.588.588,0,0,0,.588-.588v-1.745a.587.587,0,0,1,.587-.587h.586a.588.588,0,0,0,.588-.588h0a.588.588,0,0,0-.588-.588h-1.928a.587.587,0,0,1-.588-.587h0A.588.588,0,0,0,5233.488,573.874Z" fill="#ccc"/><path d="M5234.7,573.874h0a.587.587,0,0,0,.587.588h1.535a.588.588,0,0,0,.588-.588h0a.588.588,0,0,0-.588-.588h-1.535A.587.587,0,0,0,5234.7,573.874Z" fill="#ccc"/><path d="M5238.235,580.437c-.009-.528-.037-.857-.037-.857h-8.128s-.733,8.562,4.064,8.562a3.492,3.492,0,0,0,3.274-2.416c1.122-.455,3-1.472,3.186-3.235C5240.81,580.47,5238.981,580.388,5238.235,580.437Z" fill="#fff"/><path d="M5234.134,588.362a3.362,3.362,0,0,1-2.577-1.116c-2.138-2.328-1.725-7.467-1.706-7.685a.22.22,0,0,1,.219-.2h8.128a.22.22,0,0,1,.219.2c0,.011.021.25.033.646a2.59,2.59,0,0,1,1.9.633,2,2,0,0,1,.461,1.674c-.2,1.835-2.077,2.9-3.24,3.381A3.644,3.644,0,0,1,5234.134,588.362Zm-3.858-8.562c-.053.972-.174,5.211,1.6,7.149a2.94,2.94,0,0,0,2.253.973,3.264,3.264,0,0,0,3.072-2.283.223.223,0,0,1,.119-.117c1.063-.431,2.873-1.4,3.05-3.054a1.588,1.588,0,0,0-.34-1.322,2.353,2.353,0,0,0-1.786-.49.216.216,0,0,1-.163-.057.222.222,0,0,1-.071-.158c-.005-.274-.015-.494-.023-.641Z" fill="#404040"/><line x1="0.15" y2="1.877" transform="translate(5238.085 580.437)" fill="#fff"/><path d="M5238.085,582.534h-.018a.219.219,0,0,1-.2-.237l.15-1.877a.22.22,0,0,1,.438.035l-.15,1.877A.22.22,0,0,1,5238.085,582.534Z" fill="#404040"/><path d="M5237.834,584.591a.22.22,0,0,1-.077-.425c.591-.224,1.592-.819,1.592-1.626a.817.817,0,0,0-.245-.656,1.173,1.173,0,0,0-.833-.182.22.22,0,0,1-.073-.434,1.607,1.607,0,0,1,1.189.279,1.231,1.231,0,0,1,.4.993c0,1.289-1.685,1.964-1.877,2.037A.213.213,0,0,1,5237.834,584.591Z" fill="#404040"/><rect width="164.731" height="5.347" transform="translate(5081.875 588.002)" fill="#404040"/><rect width="2.52" height="79.561" transform="translate(5092.08 593.349)" fill="#404040"/><rect width="2.52" height="79.561" transform="translate(5233.881 593.349)" fill="#404040"/><path d="M5180.226,567.994v17.147h14.2V588.8h-46.861v-20.8Z" fill="#404040"/><path d="M5161.744,579.028a1.687,1.687,0,1,0,1.686-1.687A1.686,1.686,0,0,0,5161.744,579.028Z" fill="#fff"/></g></svg>