<svg xmlns="http://www.w3.org/2000/svg" width="59.571" height="57.661" viewBox="0 0 59.571 57.661"><g transform="translate(-4432.506 -1421.955)"><path d="M4464.978,1452.27a13.375,13.375,0,0,1-20.268-1.589l3.9-4.05a3.055,3.055,0,0,0,3.968-1.012l6.886,2.16c0,.021,0,.039,0,.06a3.063,3.063,0,1,0,5.764-1.44l3.665-3.586a13.286,13.286,0,0,1-3.916,9.457Zm-13.6-8.35a1.345,1.345,0,1,1-1.345-1.345A1.347,1.347,0,0,1,4451.379,1443.92Zm12.492,3.921a1.345,1.345,0,1,1-1.345-1.345A1.347,1.347,0,0,1,4463.871,1447.841Zm-17.8-14.481a13.374,13.374,0,0,1,22.642,7.232l-4.684,4.58a3.06,3.06,0,0,0-4.047.971l-6.886-2.16c0-.021,0-.04,0-.06a3.063,3.063,0,1,0-6.125,0,3.029,3.029,0,0,0,.4,1.517l-3.612,3.744a13.4,13.4,0,0,1,2.3-15.824Zm20.124-1.215a15.093,15.093,0,1,0,4.419,10.672A14.987,14.987,0,0,0,4466.193,1432.145Z" fill="#fff"/><path d="M4484.06,1477.185l-12.594-12.55,5.585-5.585,12.594,12.55ZM4468.611,1459a21.27,21.27,0,0,0,1.631-1.468,20.965,20.965,0,0,0,1.422-1.573l2.925,3.125-3.046,3.046Zm-26.59-2.683a19.1,19.1,0,1,1,27,0A19.121,19.121,0,0,1,4442.021,1456.316Zm-6.453,3.945a1.346,1.346,0,1,1,1.345-1.346A1.347,1.347,0,0,1,4435.568,1460.261Zm43.691-30.2a1.345,1.345,0,1,1-1.345,1.345A1.347,1.347,0,0,1,4479.259,1430.06Zm-2.208,26.561-1.247,1.248-3.1-3.31a20.874,20.874,0,0,0,2.645-18.06l2.456-2.4a3.061,3.061,0,0,0,4.177-4.087l5.273-5.156v2.664h1.72l0-5.564h-5.566v1.72h2.6l-5.2,5.087a3.061,3.061,0,0,0-4.224,4.13l-1.883,1.841a20.813,20.813,0,1,0-36.262,19.973l-1.448,1.5a3.06,3.06,0,1,0,1.641,2.709,3.023,3.023,0,0,0-.4-1.517l1.263-1.311q.618.747,1.315,1.446a20.853,20.853,0,0,0,26.417,2.5l3.1,3.316-1.291,1.291,15.028,14.978,8.017-8.017Z" fill="#fff"/><path d="M4477.051,1461.545l-2.459,2.46,1.217,1.215,1.243-1.245,4.745,4.745,1.215-1.217Z" fill="#fff"/><rect width="1.718" height="1.8" transform="translate(4483.27 1470.19) rotate(-45)" fill="#fff"/><rect width="1.72" height="1.873" transform="translate(4441.817 1464.499)" fill="#fff"/><rect width="1.72" height="1.873" transform="translate(4441.817 1474.994)" fill="#fff"/><rect width="1.72" height="1.873" transform="translate(4455.973 1468.11)" fill="#fff"/><rect width="1.72" height="1.873" transform="translate(4480.602 1452.654)" fill="#fff"/><rect width="1.72" height="1.873" transform="translate(4482.553 1437.739)" fill="#fff"/><rect width="1.72" height="1.873" transform="translate(4488.249 1445.637)" fill="#fff"/><path d="M4464.978,1452.27a13.375,13.375,0,0,1-20.268-1.589l3.9-4.05a3.055,3.055,0,0,0,3.968-1.012l6.886,2.16c0,.021,0,.039,0,.06a3.063,3.063,0,1,0,5.764-1.44l3.665-3.586a13.286,13.286,0,0,1-3.916,9.457Z" fill="#fff" opacity="0.3"/><path d="M4446.069,1433.36a13.374,13.374,0,0,1,22.642,7.232l-4.684,4.58a3.06,3.06,0,0,0-4.047.971l-6.886-2.16c0-.021,0-.04,0-.06a3.063,3.063,0,1,0-6.125,0,3.029,3.029,0,0,0,.4,1.517l-3.612,3.744a13.4,13.4,0,0,1,2.3-15.824Z" fill="#fff" opacity="0.3"/></g></svg>