<svg xmlns="http://www.w3.org/2000/svg" width="39.158" height="39.158" viewBox="0 0 39.158 39.158"><g transform="translate(-4728.723 -910.555)"><path d="M4766.342,922.512h0a19.582,19.582,0,1,0-27.375,24.837.612.612,0,0,0,.625-.024l.005-.007,1.981,1.012a.608.608,0,0,0,.355.326,19.463,19.463,0,0,0,4.233.942l.015,0,.046.005.1.01c.093.009.188.019.282.026l.082.008.335.024.113.007.288.015.069,0c.116.005.231.007.345.011h.1l.364,0c.117,0,.233,0,.349,0l.11,0c.084,0,.167,0,.249-.007l.114-.005c.11,0,.22-.009.33-.017.035,0,.07,0,.1-.006.083,0,.165-.01.246-.017l.126-.009.266-.024.079-.008c.1-.009.2-.021.3-.032h.01a19.424,19.424,0,0,0,3.858-.851.594.594,0,0,0,.263-.187,8.9,8.9,0,0,0,3.857-1.529.573.573,0,0,0,.23-.352,19.545,19.545,0,0,0,9.089-16.527A19.448,19.448,0,0,0,4766.342,922.512Zm-24.01,24.987a.606.606,0,0,0-.244-.031l-2.253-1.15-1.3-17.024a.612.612,0,0,0-1.192-.145l-1.8,5.39a.772.772,0,1,1-1.465-.489l1.773-5.314a3.257,3.257,0,0,1,1.88-2c.949-.382,2.389-.987,4-1.747,1.072.5,1.938.818,2.647,1.08a8.2,8.2,0,0,1,2.9,1.517l.043.039.043.024c-.1.086-.2.17-.3.252-.992.839-2.017,1.706-2.017,3.243a3.329,3.329,0,0,0,1.229,2.582,5.5,5.5,0,0,0-3.317,5.054v2.308a1.623,1.623,0,0,0,1.621,1.621h.722l.294,5.58A18.091,18.091,0,0,1,4742.332,947.5Zm-.6-23.866c-1.125-.571-2.811-1.69-2.811-3.278a2.677,2.677,0,1,1,5.354,0C4744.275,921.106,4743.94,922.516,4741.734,923.633Zm6.126,5.2c.181-.153.368-.31.553-.475.953.731,2.075,1.821,2.075,2.785h0a2.106,2.106,0,0,1-4.212,0C4746.276,930.223,4746.878,929.666,4747.86,928.835Zm2.483,13.224-.415,6.356-.068.006c-.075.006-.15.013-.225.017l-.146.011-.246.014c-.043,0-.084,0-.127.006l-.264.009-.112,0c-.093,0-.185,0-.278.005h-.374c-.04,0-.078,0-.118,0-.088,0-.177-.005-.266-.008-.039,0-.079,0-.12,0l-.259-.012-.128-.006-.247-.017c-.038,0-.078-.006-.116-.007l-.335-6.365a.613.613,0,0,0-.61-.58h-1.3a.4.4,0,0,1-.4-.4V938.78a4.246,4.246,0,0,1,4.2-4.264h.015a4.213,4.213,0,0,1,4.214,4.212h0v2.006a.751.751,0,0,1-.751.751h-.91A.611.611,0,0,0,4750.343,942.059Zm1.179.653h.337a1.976,1.976,0,0,0,1.974-1.975V938.73a5.447,5.447,0,0,0-3.334-5.017,3.325,3.325,0,0,0,1.21-2.567,4.6,4.6,0,0,0-1.92-3.238c-.153-.134-.306-.26-.454-.378a10.225,10.225,0,0,1,5.786-3.051,8.6,8.6,0,0,1,3.455,1.2,7.092,7.092,0,0,1,2.237,2.659l1.6,4.339,0,.006a.86.86,0,0,1-1.5.814l-1.931-5.18a.612.612,0,0,0-1.145.43l1.46,3.907a.636.636,0,0,0,.04.225l.327.852a1.983,1.983,0,0,0,.157.321l1.57,4.2h-3.521a.612.612,0,0,0-.609.557l-.72,8.051a.563.563,0,0,0,.022.12,7.836,7.836,0,0,1-2.126.6.6.6,0,0,0-.38-.009,18.237,18.237,0,0,1-2.9.7Zm.924-22.358a2.677,2.677,0,1,1,5.353,0,2.851,2.851,0,0,1-2.542,2.863c-.044.006-.088.014-.133.022l-.136-.022A2.849,2.849,0,0,1,4752.446,920.354Zm11.5,19.387h0a18.422,18.422,0,0,1-6.081,6.063l.566-6.328h3.844a.611.611,0,0,0,.573-.825l-1.34-3.584.1,0a2.088,2.088,0,0,0,1.949-2.819l-1.625-4.421-.021-.04a7.5,7.5,0,0,0-4.646-4.067,4.061,4.061,0,0,0,.741-.647,4.011,4.011,0,0,0,1.014-2.721,3.9,3.9,0,0,0-7.8,0,4,4,0,0,0,1.787,3.391,12.947,12.947,0,0,0-4.691,3.055c-.129-.083-.227-.143-.282-.176a9.495,9.495,0,0,0-3.232-1.7c-.511-.188-1.066-.393-1.71-.665a6.428,6.428,0,0,0,1.34-1.158,4.134,4.134,0,0,0,1.065-2.744,3.9,3.9,0,0,0-7.8,0c0,1.473.94,2.838,2.675,3.919-1.244.566-2.334,1.022-3.1,1.331a4.486,4.486,0,0,0-2.583,2.744l-1.773,5.313a2,2,0,1,0,3.789,1.265l.838-2.514,1.017,13.284a18.358,18.358,0,1,1,25.387-5.956Z" fill="#404040"/><path d="M4742.332,947.5a.606.606,0,0,0-.244-.031l-2.253-1.15-1.3-17.024a.612.612,0,0,0-1.192-.145l-1.8,5.39a.772.772,0,1,1-1.465-.489l1.773-5.314a3.257,3.257,0,0,1,1.88-2c.949-.382,2.389-.987,4-1.747,1.072.5,1.938.818,2.647,1.08a8.2,8.2,0,0,1,2.9,1.517l.043.039.043.024c-.1.086-.2.17-.3.252-.992.839-2.017,1.706-2.017,3.243a3.329,3.329,0,0,0,1.229,2.582,5.5,5.5,0,0,0-3.317,5.054v2.308a1.623,1.623,0,0,0,1.621,1.621h.722l.294,5.58A18.091,18.091,0,0,1,4742.332,947.5Z" fill="#eb0c6e"/><path d="M4751.522,942.712h.337a1.976,1.976,0,0,0,1.974-1.975V938.73a5.447,5.447,0,0,0-3.334-5.017,3.325,3.325,0,0,0,1.21-2.567,4.6,4.6,0,0,0-1.92-3.238c-.153-.134-.306-.26-.454-.378a10.225,10.225,0,0,1,5.786-3.051,8.6,8.6,0,0,1,3.455,1.2,7.092,7.092,0,0,1,2.237,2.659l1.6,4.339,0,.006a.86.86,0,0,1-1.5.814l-1.931-5.18a.612.612,0,0,0-1.145.43l1.46,3.907a.636.636,0,0,0,.04.225l.327.852a1.983,1.983,0,0,0,.157.321l1.57,4.2h-3.521a.612.612,0,0,0-.609.557l-.72,8.051a.563.563,0,0,0,.022.12,7.836,7.836,0,0,1-2.126.6.6.6,0,0,0-.38-.009,18.237,18.237,0,0,1-2.9.7Z" fill="#eb0c6e"/></g></svg>