<svg xmlns="http://www.w3.org/2000/svg" width="433.635" height="186.391" viewBox="0 0 433.635 186.391"><g transform="translate(-5534.365 -3046.881)"><path d="M5776.277,3176.235,5890.9,3159l8.845-48.375-101.108-56.682Z" fill="#fff"/><path d="M5776.277,3176.477a.242.242,0,0,1-.238-.286L5798.4,3053.9a.242.242,0,0,1,.356-.167l101.108,56.682a.244.244,0,0,1,.12.255l-8.845,48.375a.242.242,0,0,1-.2.2l-114.624,17.237Zm22.538-122.161-22.239,121.629,114.118-17.161,8.783-48.035Z" fill="#404040"/><ellipse cx="62.161" cy="16.81" rx="62.161" ry="16.81" transform="translate(5759.741 3173.211) rotate(-79.638)" fill="#404040"/><path d="M5796.242,3146.295a125.426,125.426,0,0,1-17.628-11.72,58.444,58.444,0,0,1-11.559-11.905c-3.246-4.739-4.517-9.192-3.778-13.233s3.5-7.758,8.219-11.043a58.475,58.475,0,0,1,15.028-7.044,125.524,125.524,0,0,1,20.611-4.72C5806.986,3090.069,5805.319,3123.52,5796.242,3146.295Z" fill="#fff"/><path d="M5806.88,3086.909c-.1,2.17-.529,10.268-1.828,20.448-1.381,10.809-4.047,26.213-8.935,38.595a125.39,125.39,0,0,1-17.346-11.561,58.229,58.229,0,0,1-11.515-11.855c-3.21-4.686-4.469-9.078-3.742-13.056s3.457-7.638,8.115-10.883a58.2,58.2,0,0,1,14.957-7.013,125.562,125.562,0,0,1,20.294-4.675m.508-.556s-41.057,5.032-44.349,23.04,33.327,37.243,33.327,37.243c9.748-24.23,11.022-60.283,11.022-60.283Z" fill="#404040"/><path d="M5899.746,3110.622,5890.9,3159l26.759-5.544a8.15,8.15,0,0,0,6.365-6.515l2.7-14.78a8.151,8.151,0,0,0-4.01-8.564Z" fill="#004890"/><path d="M5890.9,3159.24a.242.242,0,0,1-.238-.286l8.845-48.375a.241.241,0,0,1,.357-.167l22.971,12.973a8.4,8.4,0,0,1,4.129,8.817l-2.7,14.78a8.361,8.361,0,0,1-6.554,6.709l-26.759,5.544A.291.291,0,0,1,5890.9,3159.24Zm9.022-48.24-8.72,47.688,26.408-5.47a7.88,7.88,0,0,0,6.176-6.323l2.7-14.78a7.913,7.913,0,0,0-3.891-8.309Z" fill="#404040"/><path d="M5890.9,3159l-15.979,74.033h7.807a19.463,19.463,0,0,0,18.992-15.214l14.319-64.024Z" fill="#fff"/><path d="M5882.729,3233.272h-7.807a.241.241,0,0,1-.188-.09.238.238,0,0,1-.048-.2l15.978-74.032a.242.242,0,0,1,.188-.186l25.139-5.205a.242.242,0,0,1,.285.289l-14.319,64.025a19.7,19.7,0,0,1-19.228,15.4Zm-7.507-.483h7.507a19.22,19.22,0,0,0,18.756-15.025l14.237-63.658-24.618,5.1Z" fill="#404040"/><path d="M5860.13,3163.625l12.473-68.219,14.5,8.13-10.535,57.616Z" fill="#004890"/><path d="M5860.13,3163.867a.243.243,0,0,1-.238-.286l12.474-68.218a.241.241,0,0,1,.356-.168l14.5,8.131a.241.241,0,0,1,.119.254L5876.81,3161.2a.244.244,0,0,1-.2.2l-16.441,2.472Zm12.651-68.084-12.352,67.552,15.936-2.4,10.472-57.276Z" fill="#404040"/><path d="M5752.65,3103.335a.149.149,0,0,1-.055-.011c-8.063-3.436-11.348-7.733-12.606-10.059a27.226,27.226,0,0,1-8.931,1.537c-8.367,0-15.2-4.107-17.405-10.463-1.5-4.314-.741-9.119,2.129-13.528a25.344,25.344,0,0,1,13.026-9.8c.564-.2,1.132-.372,1.735-.54a26.99,26.99,0,0,1,7.208-1,21.588,21.588,0,0,1,10.689,2.65,14.572,14.572,0,0,1,6.566,7.4c.055.148.1.281.151.415.077.221.137.406.189.584l.083.3c1.567,5.761-.883,12.356-6.394,17.228a56.31,56.31,0,0,0,2.917,12.855c.477,1.382.825,2.234.829,2.242a.142.142,0,0,1-.032.154A.138.138,0,0,1,5752.65,3103.335Z" fill="#fff"/><path d="M5737.751,3059.612c7.889,0,14.72,3.7,17.124,9.959.05.137.1.273.149.411.067.193.13.384.187.577l.082.294c1.611,5.923-1.03,12.408-6.4,17.131a55.956,55.956,0,0,0,2.931,12.96c.483,1.4.831,2.25.831,2.25-8.246-3.514-11.457-7.95-12.594-10.1l-.1.036a27.2,27.2,0,0,1-8.9,1.533c-8.06,0-15.013-3.86-17.272-10.368-3.066-8.834,3.68-19.2,15.068-23.15.577-.2,1.15-.377,1.727-.537a26.89,26.89,0,0,1,7.17-.994m0-.282v0a27.14,27.14,0,0,0-7.245,1c-.606.168-1.176.345-1.744.543a25.475,25.475,0,0,0-13.1,9.857c-2.9,4.446-3.656,9.3-2.145,13.651a14.579,14.579,0,0,0,6.585,7.776,21.618,21.618,0,0,0,10.954,2.782,27.351,27.351,0,0,0,8.864-1.506c1.309,2.365,4.635,6.615,12.618,10.016a.263.263,0,0,0,.11.023.282.282,0,0,0,.261-.389c0-.009-.351-.858-.825-2.235a56.3,56.3,0,0,1-2.9-12.75,21.215,21.215,0,0,0,5.793-8.133,14.76,14.76,0,0,0,.591-9.19l-.083-.3c-.054-.184-.114-.372-.192-.594-.048-.139-.1-.278-.151-.416a14.711,14.711,0,0,0-6.629-7.474,21.731,21.731,0,0,0-10.759-2.669Z" fill="#404040"/><path d="M5755.024,3069.982c.067.193.13.384.187.577l.082.294c1.611,5.923-1.03,12.408-6.4,17.131a55.956,55.956,0,0,0,2.931,12.96c-5.331-3.436-7.687-7.065-8.624-8.941l-.087.03c-9.644,3.347-19.949-1.1-23.014-9.929-2.911-8.389,1.751-17.714,10.487-21.5a5.7,5.7,0,0,1,1.427-.557c10-1.39,19.627.962,22.867,9.522C5754.925,3069.708,5754.976,3069.844,5755.024,3069.982Z" fill="#ccc"/><ellipse cx="3.166" cy="3.455" rx="3.166" ry="3.455" transform="translate(5720.39 3079.078) rotate(-19.14)" fill="#fff"/><ellipse cx="3.166" cy="3.455" rx="3.166" ry="3.455" transform="translate(5730.789 3075.47) rotate(-19.138)" fill="#fff"/><ellipse cx="3.166" cy="3.455" rx="3.166" ry="3.455" transform="translate(5741.187 3071.861) rotate(-19.138)" fill="#fff"/><path d="M5950.2,3131.643v6.722h5.267v-7.426Z" fill="#404040"/><path d="M5959.87,3130.939s.385,6.725.38,7.854-4.788.269-4.788.269l.161-8.123Z" fill="#404040"/><path d="M5957.009,3136.342v-3.6l1.106-1.544s2.233.491,2.132-1.54-2.132-1.319-2.132-1.319,1.029-4.162-.987-4.672-7.091.153-7.011,4.066l.079,3.913a3.241,3.241,0,0,0,2.127,3.044h0l-.116,1.657s-.268,2.16,1.669,2.015a3.459,3.459,0,0,0,3.133-2.016" fill="#fff"/><path d="M5953.693,3138.506a1.527,1.527,0,0,1-1.155-.443,2.369,2.369,0,0,1-.471-1.738l.108-1.544a3.394,3.394,0,0,1-2.12-3.139l-.08-3.91a3.614,3.614,0,0,1,1.417-3.043,7.547,7.547,0,0,1,5.771-1.163c1.865.472,1.33,3.7,1.141,4.611a1.94,1.94,0,0,1,1.459.178,1.6,1.6,0,0,1,.625,1.332,1.582,1.582,0,0,1-.486,1.361,2.267,2.267,0,0,1-1.725.341l-1.027,1.435v3.558a.144.144,0,0,1-.012.057,3.6,3.6,0,0,1-3.252,2.1C5953.821,3138.5,5953.756,3138.506,5953.693,3138.506Zm2.024-14.853a6.911,6.911,0,0,0-4.149,1.257,3.34,3.34,0,0,0-1.31,2.816l.079,3.914a3.11,3.11,0,0,0,2.034,2.914.141.141,0,0,1,.092.142l-.116,1.656a2.137,2.137,0,0,0,.4,1.517,1.337,1.337,0,0,0,1.122.348,3.337,3.337,0,0,0,3-1.906v-3.573a.142.142,0,0,1,.026-.082l1.106-1.544a.143.143,0,0,1,.145-.056,2.123,2.123,0,0,0,1.575-.264,1.315,1.315,0,0,0,.386-1.131,1.336,1.336,0,0,0-.5-1.111,1.885,1.885,0,0,0-1.445-.082.14.14,0,0,1-.141-.029.142.142,0,0,1-.042-.138c.01-.041.973-4.031-.884-4.5A5.76,5.76,0,0,0,5955.717,3123.653Zm1.292,12.689h0Z" fill="#404040"/><path d="M5957.009,3136.342a3.8,3.8,0,0,1-3.133,2.016c-.821,0-1.513-.111-1.683-1.893,0,0-4.952.747-7.767,3.81s-5.314,6.614-9.748,1.352l-2.414,2.785s3.059,6.447,8.357,6.447c2.9,0,6.014-4.779,6.014-4.779l1.915,15.153h9.75l.266-1.076a68.088,68.088,0,0,0,2.529-12.109,4.084,4.084,0,0,1,1.838,3.86c-.1,5.317-2.431,7.346-2.431,7.346l.818,2.851s7.1-3.21,6.5-12.882C5967.077,3136.991,5957.009,3136.342,5957.009,3136.342Z" fill="#004890"/><path d="M5961.32,3162.246a.133.133,0,0,1-.059-.013.143.143,0,0,1-.077-.089l-.818-2.851a.141.141,0,0,1,.043-.145c.023-.021,2.287-2.061,2.383-7.243a4.536,4.536,0,0,0-.86-2.917,3.335,3.335,0,0,0-.72-.7,69.055,69.055,0,0,1-2.512,11.912l-.263,1.067a.14.14,0,0,1-.137.107h-9.75a.141.141,0,0,1-.14-.123l-1.868-14.786a19.436,19.436,0,0,1-1.724,2.1c-1.542,1.614-2.954,2.433-4.2,2.433-5.326,0-8.454-6.462-8.485-6.527a.139.139,0,0,1,.021-.153l2.414-2.786a.12.12,0,0,1,.108-.048.14.14,0,0,1,.107.05c1.48,1.756,2.82,2.621,4.1,2.642,1.805.031,3.28-1.607,4.842-3.34q.3-.33.6-.658c2.817-3.065,7.8-3.847,7.85-3.855a.143.143,0,0,1,.161.127c.169,1.765.867,1.765,1.543,1.765a3.679,3.679,0,0,0,3.007-1.939.139.139,0,0,1,.135-.077,12.082,12.082,0,0,1,5.195,1.876c4.365,2.828,5.537,7.618,5.752,11.138a13.944,13.944,0,0,1-3.063,10.167,11.142,11.142,0,0,1-3.524,2.852A.143.143,0,0,1,5961.32,3162.246Zm-.659-2.948.748,2.6a11.457,11.457,0,0,0,3.286-2.714,13.672,13.672,0,0,0,2.989-9.957c-.212-3.455-1.359-8.154-5.624-10.918a11.97,11.97,0,0,0-4.971-1.824,3.853,3.853,0,0,1-3.213,2.009c-.868,0-1.6-.144-1.808-1.869-.835.153-5.057,1.042-7.538,3.741-.2.217-.4.437-.595.656-1.592,1.765-3.1,3.434-5,3.434h-.055c-1.331-.022-2.707-.878-4.2-2.617l-2.245,2.591c.379.744,3.364,6.284,8.189,6.284,2.791,0,5.865-4.668,5.9-4.715a.138.138,0,0,1,.15-.06.14.14,0,0,1,.108.119l1.9,15.03h9.515l.238-.969a68.409,68.409,0,0,0,2.526-12.089.14.14,0,0,1,.073-.11.143.143,0,0,1,.132,0,3.251,3.251,0,0,1,.987.881,4.8,4.8,0,0,1,.928,3.107C5962.984,3156.788,5961.056,3158.914,5960.661,3159.3Z" fill="#404040"/><path d="M5951.453,3129.12c0,.2-.1.36-.222.36s-.222-.161-.222-.36.1-.359.222-.359S5951.453,3128.922,5951.453,3129.12Z" fill="#404040"/><path d="M5954.37,3129.12c0,.2-.1.36-.223.36s-.222-.161-.222-.36.1-.359.222-.359S5954.37,3128.922,5954.37,3129.12Z" fill="#404040"/><path d="M5954.136,3135h-.769a3.375,3.375,0,0,1-1.163-.205.141.141,0,0,1,.1-.265,3.11,3.11,0,0,0,1.066.188h.769a.141.141,0,0,1,0,.282Z" fill="#404040"/><path d="M5952.4,3131.809a.141.141,0,0,1-.1-.043l-.264-.275a.58.58,0,0,1,.32-.974l-.063-1.364a.141.141,0,0,1,.282-.013l.069,1.506a.14.14,0,0,1-.157.147.3.3,0,0,0-.248.5l.264.274a.142.142,0,0,1,0,.2A.145.145,0,0,1,5952.4,3131.809Z" fill="#404040"/><path d="M5959.815,3130.011a.142.142,0,0,1-.14-.123,1.139,1.139,0,0,0-.425-.851.876.876,0,0,0-.654-.105.142.142,0,0,1-.173-.1.14.14,0,0,1,.1-.173,1.16,1.16,0,0,1,.884.142,1.4,1.4,0,0,1,.549,1.05.141.141,0,0,1-.121.158Z" fill="#404040"/><path d="M5958.623,3130.443a.2.2,0,0,1-.034,0,.141.141,0,0,1-.1-.171,1.921,1.921,0,0,1,1.025-1.242.141.141,0,0,1,.112.259,1.666,1.666,0,0,0-.863,1.05A.141.141,0,0,1,5958.623,3130.443Z" fill="#404040"/><path d="M5958.115,3128.476l-.024,0a3.461,3.461,0,0,1-3.076-3.942.141.141,0,0,1,.278.044,3.146,3.146,0,0,0,2.846,3.62.141.141,0,0,1-.024.28Z" fill="#404040"/><path d="M5955.9,3122.033a11.552,11.552,0,0,0-3.973.453,3.3,3.3,0,0,0-2.033,3.049v2.338c2.771,0,5.186-2.514,5.186-2.514a5.4,5.4,0,0,0,2.955,3.13s1.146-.4,1.774.248C5959.814,3128.737,5960.649,3121.958,5955.9,3122.033Z" fill="#404040"/><path d="M5958,3229.606s5.233-25.624,4.309-41.972l-9.072-.588c2.241,19.166,2.241,42.56,2.241,42.56s.039,2.221,1.64,2.221C5957.8,3231.827,5958,3229.606,5958,3229.606Z" fill="#fff"/><path d="M5957.123,3231.968c-1.376,0-1.767-1.543-1.781-2.359,0-.236-.026-23.608-2.24-42.547a.142.142,0,0,1,.149-.157l9.072.589a.141.141,0,0,1,.132.132,104.011,104.011,0,0,1-.284,13.474c-.319,4.162-.832,8.762-1.525,13.671-1.162,8.229-2.449,14.6-2.5,14.856C5958.106,3230.036,5957.881,3231.968,5957.123,3231.968Zm-3.721-44.77c2.2,18.925,2.222,42.175,2.222,42.408a3.6,3.6,0,0,0,.213,1.067,1.342,1.342,0,0,0,1.286,1.013c.371,0,.662-1.249.742-2.093l0-.015c.013-.064,1.321-6.5,2.5-14.849,1.082-7.664,2.271-18.546,1.813-26.962Z" fill="#404040"/><path d="M5942.852,3229.965a269.628,269.628,0,0,0,9.355-43.032l-9.309-.475c0,10.657-2.116,42.977-2.116,42.977l-2.444,1.725S5942.124,3232.385,5942.852,3229.965Z" fill="#fff"/><path d="M5940.335,3231.613a7.33,7.33,0,0,1-2.04-.319.141.141,0,0,1-.038-.249l2.389-1.686c.108-1.661,2.111-32.6,2.111-42.9a.144.144,0,0,1,.044-.1.133.133,0,0,1,.1-.038l9.308.475a.143.143,0,0,1,.133.156,272.391,272.391,0,0,1-9.36,43.057h0a2.045,2.045,0,0,1-1.033,1.268A3.521,3.521,0,0,1,5940.335,3231.613Zm-1.672-.509a4.979,4.979,0,0,0,3.16-.082,1.767,1.767,0,0,0,.894-1.1h0a274,274,0,0,0,9.332-42.858l-9.01-.46c-.019,10.689-2.1,42.517-2.116,42.839a.138.138,0,0,1-.059.1Zm4.189-1.139h0Z" fill="#404040"/><path d="M5938.349,3230.987c1.762.956,4.535-1.279,4.535-1.279l1,3.155-8.732.168Z" fill="#404040"/><path d="M5964.584,3185.9" fill="none" stroke="#fff" stroke-linecap="round" stroke-linejoin="round" stroke-width="0.161"/><path d="M5940.67,3185.9" fill="none" stroke="#fff" stroke-linecap="round" stroke-linejoin="round" stroke-width="0.161"/><path d="M5958.031,3161.233c7.06,4.945,6.553,26.542,6.553,26.542l-12.03-.746-10.662-.571c.283-10.965,3.879-22.748,6.918-25.225Z" fill="#fff"/><path d="M5964.584,3187.916h-.009l-12.029-.746-10.662-.571a.142.142,0,0,1-.133-.145c.291-11.3,3.986-22.9,6.969-25.33a.141.141,0,0,1,.09-.032h9.221a.146.146,0,0,1,.081.025c2.962,2.075,4.975,7.2,5.983,15.224a87.742,87.742,0,0,1,.63,11.438.141.141,0,0,1-.045.1A.144.144,0,0,1,5964.584,3187.916Zm-22.548-1.592,10.526.564,11.883.737c.026-1.9.119-21.571-6.459-26.251h-9.126C5945.942,3163.826,5942.351,3175.186,5942.036,3186.324Z" fill="#404040"/><path d="M5930.848,3142.248a9.133,9.133,0,0,1-3.071-.3,2.125,2.125,0,0,1-1.39-2.329.366.366,0,0,1,.6-.28l.907.734h1.921l-.768-.6a1.37,1.37,0,0,1-.5-1.359h0a.281.281,0,0,1,.414-.188l2.665,1.526,1.866,1.442.982.966-1.761,2.032Z" fill="#fff"/><path d="M5932.711,3144.037a.142.142,0,0,1-.094-.035l-1.816-1.608a9.494,9.494,0,0,1-3.058-.308c-.981-.245-1.512-1.121-1.5-2.468a.509.509,0,0,1,.828-.388l.867.7h1.461l-.443-.345a1.52,1.52,0,0,1-.552-1.5.419.419,0,0,1,.239-.3.415.415,0,0,1,.382.018l2.667,1.526.016.011,1.865,1.441.012.011.983.966a.141.141,0,0,1,.008.193l-1.761,2.032a.144.144,0,0,1-.1.049Zm-1.863-1.931a.142.142,0,0,1,.094.036l1.756,1.554,1.581-1.824-.882-.868-1.851-1.43-2.657-1.521a.14.14,0,0,0-.206.093,1.237,1.237,0,0,0,.449,1.219l.768.6a.143.143,0,0,1,.046.158.14.14,0,0,1-.133.095h-1.921a.136.136,0,0,1-.089-.032l-.906-.733a.224.224,0,0,0-.24-.029.218.218,0,0,0-.128.2c-.01.851.2,1.922,1.282,2.192a9.081,9.081,0,0,0,3.019.295Z" fill="#404040"/><path d="M5954.868,3128.18a.145.145,0,0,1-.091-.033.624.624,0,0,0-.894-.01.141.141,0,0,1-.2-.2.909.909,0,0,1,1.279-.011.141.141,0,0,1-.09.25Z" fill="#404040"/><path d="M5951.766,3128.18a.14.14,0,0,1-.09-.033.626.626,0,0,0-.9-.01.141.141,0,0,1-.2-.2.908.908,0,0,1,1.278-.011.141.141,0,0,1-.09.25Z" fill="#404040"/><path d="M5951.7,3163.166a.922.922,0,0,1-.546-.174.8.8,0,0,1-.326-.689,1.163,1.163,0,0,1,.53-.8h0c.037-.028.072-.058.107-.087a.706.706,0,0,1,.5-.24.392.392,0,0,1,.27.182,1.8,1.8,0,0,1,.252,1.085.813.813,0,0,1-.21.51.754.754,0,0,1-.392.2A.973.973,0,0,1,5951.7,3163.166Zm-.168-1.445a.913.913,0,0,0-.422.6.521.521,0,0,0,.212.442.652.652,0,0,0,.509.106.479.479,0,0,0,.246-.12.554.554,0,0,0,.13-.337,1.548,1.548,0,0,0-.2-.9c-.016-.023-.048-.062-.076-.066-.061-.008-.185.095-.284.177l-.114.093Z" fill="#404040"/><path d="M5952.589,3163.115a.781.781,0,0,1-.529-.2,1.164,1.164,0,0,1-.3-.914c0-.046,0-.092,0-.138a.706.706,0,0,1,.122-.542.407.407,0,0,1,.311-.1,1.806,1.806,0,0,1,1.007.477.81.81,0,0,1,.269.481.747.747,0,0,1-.087.431.94.94,0,0,1-.577.477A.81.81,0,0,1,5952.589,3163.115Zm-.433-1.612a.127.127,0,0,0-.08.019c-.045.044-.041.2-.037.333,0,.049,0,.1,0,.147h0a.912.912,0,0,0,.209.7.522.522,0,0,0,.479.108.654.654,0,0,0,.4-.333.477.477,0,0,0,.058-.267.549.549,0,0,0-.183-.311,1.553,1.553,0,0,0-.828-.4Zm-.256.5h0Z" fill="#404040"/><path d="M5958.515,3161.434l-1.527.611a.523.523,0,0,1-.68-.292h0a.523.523,0,0,1,.292-.68l1.526-.61-1.2.48a.522.522,0,0,1-.679-.291h0a.523.523,0,0,1,.291-.68l1.586-.634a2.442,2.442,0,0,1,.433-.13,4.552,4.552,0,0,1,1.946.046l.818,2.851-3.432.619a.466.466,0,0,1-.655-.214h0a.523.523,0,0,1,.292-.68Z" fill="#fff"/><path d="M5957.635,3162.917a.615.615,0,0,1-.173-.024.542.542,0,0,1-.36-.331.658.658,0,0,1-.029-.4l-.033.013a4.4,4.4,0,0,0-.926-1.472.666.666,0,0,1,.371-.863l1.585-.634a2.567,2.567,0,0,1,.459-.137,4.718,4.718,0,0,1,2.007.047.141.141,0,0,1,.1.1l.819,2.851a.142.142,0,0,1-.111.178l-3.418.616A.815.815,0,0,1,5957.635,3162.917Zm-.064-.953a.382.382,0,0,0-.207.494.263.263,0,0,0,.175.164.471.471,0,0,0,.3-.029.152.152,0,0,1,.027-.008l3.278-.591-.752-2.622a4.472,4.472,0,0,0-1.806-.026,2.315,2.315,0,0,0-.408.123l-1.586.634a.382.382,0,0,0,.279.711l1.206-.482a.141.141,0,0,1,.1.262l-1.2.48-.007,0-.319.127a.382.382,0,0,0,.284.71l.528-.211.008,0,.99-.4a.141.141,0,1,1,.1.262Z" fill="#404040"/><path d="M5961.1,3148.189h-.009a.142.142,0,0,1-.132-.15l.225-3.718a.144.144,0,0,1,.15-.133.142.142,0,0,1,.132.15l-.225,3.718A.142.142,0,0,1,5961.1,3148.189Z" fill="#404040"/><path d="M5946.635,3146.221a.141.141,0,0,1-.139-.117l-.579-3.363a.142.142,0,0,1,.115-.163.14.14,0,0,1,.163.115l.579,3.363a.141.141,0,0,1-.115.163Z" fill="#404040"/><path d="M5952.194,3133.484a.815.815,0,0,0,.024.269.292.292,0,0,0,.451.182.7.7,0,0,0,.212-.205,1.075,1.075,0,0,0,.223-.53c.027-.3-.221-.717-.579-.649C5952.186,3132.616,5952.2,3133.224,5952.194,3133.484Z" fill="#404040"/><path d="M5955.483,3229.634l-1.481,3.4h6.242l-2.239-3.236s-.4,1.371-1.119,1.371C5955.906,3231.166,5955.483,3229.634,5955.483,3229.634Z" fill="#404040"/><path d="M5700.11,3071.2s1.347-2.756,3.329-1.969,2.9,4.2-1.519,8.462c-5.986-1.363-6.967-4.756-5.678-6.455S5700.11,3071.2,5700.11,3071.2Z" fill="#ccc"/><path d="M5649.881,3076.259s.882-1.806,2.182-1.29,1.9,2.751-1,5.546c-3.923-.894-4.566-3.117-3.721-4.231S5649.881,3076.259,5649.881,3076.259Z" fill="#ccc"/><path d="M5714.665,3099.532v-1.4h-.69a4,4,0,0,0-.654-1.619l.476-.476-.991-.991-.469.469a3.988,3.988,0,0,0-1.627-.681v-.656h-1.4v.656a3.993,3.993,0,0,0-1.627.681l-.468-.469-.991.991.475.476a4,4,0,0,0-.654,1.619h-.689v1.4h.7a4,4,0,0,0,.674,1.585l-.51.51.991.991.517-.517a4.012,4.012,0,0,0,1.578.647v.738h1.4v-.738a4.01,4.01,0,0,0,1.579-.647l.517.517.991-.991-.51-.51a4,4,0,0,0,.673-1.585Zm-4.655,1.064a1.806,1.806,0,1,1,1.806-1.806A1.806,1.806,0,0,1,5710.01,3100.6Z" fill="#404040"/><path d="M5694.758,3116.054v-1.935h-.952a5.515,5.515,0,0,0-.9-2.236l.656-.657-1.368-1.368-.646.647a5.523,5.523,0,0,0-2.246-.94v-.905h-1.935v.905a5.523,5.523,0,0,0-2.246.94l-.647-.647-1.368,1.368.657.657a5.521,5.521,0,0,0-.9,2.236h-.952v1.935h.972a5.527,5.527,0,0,0,.93,2.189l-.7.7,1.368,1.368.714-.714a5.537,5.537,0,0,0,2.179.893v1.019h1.935v-1.019a5.536,5.536,0,0,0,2.179-.893l.713.714,1.368-1.368-.7-.7a5.536,5.536,0,0,0,.931-2.189Zm-6.427,1.469a2.494,2.494,0,1,1,2.494-2.494A2.494,2.494,0,0,1,5688.331,3117.523Z" fill="#ccc"/><path d="M5690.514,3052.012v-1.343h-.661a3.841,3.841,0,0,0-.626-1.552l.455-.455-.949-.95-.449.449a3.822,3.822,0,0,0-1.559-.652v-.628h-1.342v.628a3.817,3.817,0,0,0-1.559.652l-.449-.449-.949.95.455.455a3.843,3.843,0,0,0-.627,1.552h-.66v1.343h.675a3.831,3.831,0,0,0,.645,1.519l-.488.488.949.95.5-.5a3.814,3.814,0,0,0,1.513.62v.707h1.342v-.707a3.8,3.8,0,0,0,1.512-.62l.5.5.949-.95-.489-.488a3.833,3.833,0,0,0,.646-1.519Zm-4.46,1.019a1.73,1.73,0,1,1,1.73-1.73A1.73,1.73,0,0,1,5686.054,3053.031Z" fill="#ccc"/><path d="M5716.913,3134.689s-6.275,9.905-23.754,3.927c-.511-.422-1.322-1.258-1.736-1.583a.788.788,0,0,0-1.238.3c-.834-.428-1.333-.209-1.5.152h0c-.163.361.389.921.75,1.084l-.468-.212a.718.718,0,0,0-.592,1.307l1.211.548.005.009-1.176-.533a.54.54,0,0,0-.446.984l1.394.571,2.194.49,0,.009c16.375,11.951,25.2.3,25.2.3Z" fill="#fff"/><path d="M5705.592,3147.26c-3.7,0-8.449-1.268-14.114-5.4l-2.143-.479-.023-.007-1.394-.571a.683.683,0,0,1-.344-.9.674.674,0,0,1,.381-.357l.035-.012a.829.829,0,0,1-.119-.217.858.858,0,0,1,.858-1.159.726.726,0,0,1-.169-.727.779.779,0,0,1,.462-.416,1.476,1.476,0,0,1,1.116.142,1.038,1.038,0,0,1,.646-.439.912.912,0,0,1,.726.209c.216.169.529.466.859.78.3.288.616.585.86.789,4.959,1.692,12.15,3.109,18.3.275a12.933,12.933,0,0,0,5.262-4.152.141.141,0,0,1,.26.078l-.159,7.349a.143.143,0,0,1-.029.082,14.587,14.587,0,0,1-6.526,4.382A14.931,14.931,0,0,1,5705.592,3147.26Zm-13.914-5.6c4.638,3.376,11.61,6.9,18.558,4.586a14.4,14.4,0,0,0,6.378-4.254l.148-6.85a10.945,10.945,0,0,1-1,1.107,14.877,14.877,0,0,1-4.108,2.778c-6.248,2.877-13.529,1.439-18.537-.274a.154.154,0,0,1-.044-.024c-.255-.211-.58-.52-.894-.818s-.633-.6-.839-.763a.635.635,0,0,0-.5-.153.826.826,0,0,0-.527.417.142.142,0,0,1-.184.05,1.3,1.3,0,0,0-1.007-.182.5.5,0,0,0-.3.266c-.049.108.009.28.16.47a1.573,1.573,0,0,0,.519.427h0a.141.141,0,1,1-.116.257l-.468-.212a.576.576,0,1,0-.476,1.049l1.211.549a.139.139,0,0,1,.064.058.146.146,0,0,1-.015.169.137.137,0,0,1-.161.038l-1.176-.533a.4.4,0,0,0-.329.728l1.378.564,2.183.488A.14.14,0,0,1,5691.678,3141.656Z" fill="#404040"/><path d="M5689.18,3138.574a.13.13,0,0,1-.058-.013.942.942,0,0,1-.56-1.152.781.781,0,0,1,.463-.416,1.554,1.554,0,0,1,1.228.2.141.141,0,1,1-.129.251,1.3,1.3,0,0,0-1.007-.182.5.5,0,0,0-.3.266c-.126.28.117.642.419.779a.141.141,0,0,1-.058.27Z" fill="#404040"/><path d="M5689.592,3140.335a.147.147,0,0,1-.059-.012l-1.21-.549a.859.859,0,1,1,.709-1.564l.467.212a.141.141,0,1,1-.116.257l-.468-.212a.576.576,0,1,0-.476,1.05l1.211.549a.141.141,0,0,1-.058.269Z" fill="#404040"/><path d="M5689.373,3141.377a.677.677,0,0,1-.281-.062h0l-1.176-.533a.681.681,0,0,1,.563-1.241l1.176.533a.682.682,0,0,1-.282,1.3Zm-.164-.319a.4.4,0,0,0,.528-.2.4.4,0,0,0-.2-.529l-1.176-.533a.4.4,0,1,0-.329.727Z" fill="#404040"/><path d="M5690.13,3140.117a.887.887,0,0,1-.855-1.122c.169-.6.563-1.994,1.64-2.29a.141.141,0,0,1,.075.272c-.819.225-1.2,1.237-1.443,2.094a.6.6,0,0,0,1.138.4l.373-.865a.141.141,0,0,1,.242-.03,2.537,2.537,0,0,0,1.217.835.141.141,0,0,1-.073.273,2.822,2.822,0,0,1-1.217-.756l-.282.655a.887.887,0,0,1-.54.492A.861.861,0,0,1,5690.13,3140.117Z" fill="#404040"/><path d="M5723.091,3186.29l.14,13.169,29.832,13.482,3.257-9.452-21.652-10.645.318-26.567-18.673,3.5-10.2,25.831-1.028,31.142,8.093,1.545,3.234-31.132,6.679-10.875" fill="#004890"/><path d="M5713.177,3228.438l-.026,0-8.093-1.544a.141.141,0,0,1-.114-.143l1.027-31.142a.154.154,0,0,1,.01-.047l10.2-25.831a.142.142,0,0,1,.106-.087l18.673-3.5a.14.14,0,0,1,.116.03.145.145,0,0,1,.051.11l-.317,26.478,21.573,10.606a.141.141,0,0,1,.071.172l-3.258,9.453a.14.14,0,0,1-.191.082l-29.832-13.481a.144.144,0,0,1-.083-.128l-.134-12.68-6.406,10.431-3.231,31.1a.141.141,0,0,1-.056.1A.146.146,0,0,1,5713.177,3228.438Zm-7.947-1.8,7.823,1.494,3.218-30.98a.135.135,0,0,1,.021-.059l6.679-10.875a.141.141,0,0,1,.157-.063.142.142,0,0,1,.1.135l.138,13.079,29.609,13.381,3.167-9.188-21.541-10.59a.141.141,0,0,1-.079-.128l.316-26.4-18.428,3.457-10.161,25.736Z" fill="#404040"/><path d="M5706.835,3227.086l-8.314,4.388,12.19,1.556.272-5.146Z" fill="#404040"/><path d="M5754.029,3210.52l2.7,8.863,3.546-11.766-5.031-1.118Z" fill="#404040"/><path d="M5735.483,3168.2l-.625-11.16-11.328,6.009a15.683,15.683,0,0,1-2,2.453,7.092,7.092,0,0,1-1.306,1.135.708.708,0,0,1-.992-.772h0l-.676.26a1.422,1.422,0,0,1-.72-.056c-.231-.134-2.277,1.326-2.277,1.326h0c.147,1.212.356,2.716.356,2.716l19.567-1.911Z" fill="#fff"/><path d="M5715.915,3170.254a.141.141,0,0,1-.139-.121c0-.015-.21-1.52-.356-2.719a.141.141,0,0,1,.058-.132c2.12-1.512,2.354-1.377,2.43-1.332a1.22,1.22,0,0,0,.612.039l.572-.219v-.4a.141.141,0,0,1,.141-.141h0a.141.141,0,0,1,.141.141h0v.5a.692.692,0,0,0,.216.6.746.746,0,0,0,.587.04,8.016,8.016,0,0,0,1.255-1.1,15.728,15.728,0,0,0,1.979-2.428.141.141,0,0,1,.053-.048l11.328-6.01a.143.143,0,0,1,.136,0,.14.14,0,0,1,.071.115l.625,11.16a.142.142,0,0,1-.127.149l-19.568,1.911Zm-.205-2.79c.119.97.274,2.111.327,2.5l19.3-1.885-.6-10.8-11.1,5.889a16.084,16.084,0,0,1-2,2.446,7.041,7.041,0,0,1-1.347,1.163,1.022,1.022,0,0,1-.855-.071.847.847,0,0,1-.325-.629l-.5.19a.147.147,0,0,1-.028.008,1.558,1.558,0,0,1-.793-.062A10.79,10.79,0,0,0,5715.71,3167.464Zm2.056-1.271Z" fill="#404040"/><path d="M5723.075,3186.431a.142.142,0,0,1-.142-.14l-.089-8.457-2.425-3.59a.142.142,0,0,1,.038-.2.14.14,0,0,1,.2.038l2.449,3.625a.15.15,0,0,1,.024.077l.09,8.5a.142.142,0,0,1-.14.143Z" fill="#404040"/><rect width="32.835" height="21.528" transform="translate(5702.212 3149.991) rotate(-27.946)" fill="#fff"/><path d="M5712.3,3169.149a.14.14,0,0,1-.125-.075l-10.088-19.017a.141.141,0,0,1,.058-.191l29.007-15.388a.142.142,0,0,1,.107-.01.137.137,0,0,1,.083.069l10.089,19.017a.142.142,0,0,1-.059.191l-29.006,15.388A.137.137,0,0,1,5712.3,3169.149Zm-9.9-19.1,9.956,18.768,28.758-15.255-9.957-18.768Z" fill="#404040"/><path d="M5723.837,3155.862a.145.145,0,0,1-.036-.005l-21.625-5.73a.141.141,0,0,1,.072-.273l21.5,5.7,7.338-20.994a.141.141,0,0,1,.267.093l-7.382,21.117A.142.142,0,0,1,5723.837,3155.862Z" fill="#404040"/><path d="M5712.3,3169.149a.121.121,0,0,1-.038,0,.141.141,0,0,1-.1-.174l4.3-15.2a.141.141,0,0,1,.174-.1.143.143,0,0,1,.1.175l-4.3,15.2A.141.141,0,0,1,5712.3,3169.149Z" fill="#404040"/><path d="M5741.307,3153.762a.135.135,0,0,1-.044-.008l-15-4.962a.141.141,0,0,1,.089-.268l15,4.963a.141.141,0,0,1-.045.275Z" fill="#404040"/><path d="M5719.9,3166.859a.83.83,0,0,1-.642-.3.819.819,0,0,1-.19-.557l-.108.089a4.033,4.033,0,0,0-1.695-1.474.834.834,0,0,1,.113-1.172l2.249-1.857-.673.107-.625.494a.881.881,0,0,1-1.136-.034l-.113-.1a.547.547,0,0,1,.042-.85l1.33-.974a.139.139,0,0,1,.062-.025l2.868-.451c.379-.823,4.03-8.8,5.591-13.445.989-2.943-2.01-5.308-4.731-6.785l-6.623,3.4a.143.143,0,0,1-.064.015.138.138,0,0,1-.085-.028.144.144,0,0,1-.054-.14c.566-2.888,1.36-8.048,1.411-8.378l-.384-4.8a3.374,3.374,0,0,1-.475.034c-1.688,0-2.9-1.244-3.189-3.253l-1.193-.331a.141.141,0,0,1-.073-.223l.939-1.191-.882-3.262a2.208,2.208,0,0,1-1.429-1.855,3.346,3.346,0,0,1,1.386-3.446,17.389,17.389,0,0,1,6-1.586,1.66,1.66,0,0,1,.509.061,4.064,4.064,0,0,1,2.707,3.228l.489,6.582.932,4.249.224.136a18.875,18.875,0,0,1,3.2,2.367h0c.36.275,8.581,6.633,8.94,13.033.4,7.1-9.572,17.323-10.116,17.875l-.947,1.383a14.923,14.923,0,0,1-1.724,2.1c-.365.365-.752.717-1.15,1.046l-.162.133A.834.834,0,0,1,5719.9,3166.859Z" fill="#fff"/><path d="M5717.535,3114.613a1.541,1.541,0,0,1,.464.054,3.943,3.943,0,0,1,2.613,3.117l.488,6.579.947,4.317a19.662,19.662,0,0,1,3.451,2.519h0s8.531,6.417,8.9,12.937c.4,7.164-10.084,17.777-10.084,17.777l-.954,1.394a14.662,14.662,0,0,1-1.708,2.081q-.544.545-1.14,1.037l-.162.133a.689.689,0,0,1-.973-.093h0a.691.691,0,0,1,.093-.973l-.59.486a.689.689,0,0,1-.973-.093h0a.691.691,0,0,1,.093-.973l.358-.3a.691.691,0,1,1-.881-1.066l2.648-2.186-1.22.193-.653.518a.741.741,0,0,1-.954-.029l-.114-.1a.407.407,0,0,1,.031-.631l1.331-.974,2.942-.462h0s3.967-8.585,5.628-13.528c1.051-3.127-2.276-5.6-4.863-6.99l-6.689,3.429c.588-3.007,1.414-8.4,1.414-8.4l-.4-4.968a3.424,3.424,0,0,1-.6.056c-1.571,0-2.8-1.174-3.062-3.223l-1.282-.356.983-1.247-.923-3.411c-1.681-.349-2.169-3.718-.08-5.065a17.148,17.148,0,0,1,5.926-1.563m0-.282a17.221,17.221,0,0,0-6.079,1.608,3.489,3.489,0,0,0-1.449,3.591,2.379,2.379,0,0,0,1.452,1.941l.843,3.118-.895,1.135a.282.282,0,0,0,.146.447l1.1.307c.319,2,1.6,3.282,3.315,3.282.113,0,.229-.006.346-.017l.371,4.637c-.07.454-.85,5.51-1.407,8.356a.283.283,0,0,0,.107.28.286.286,0,0,0,.17.056.275.275,0,0,0,.128-.031l6.557-3.361c2.656,1.453,5.55,3.754,4.6,6.581-1.524,4.533-5.04,12.241-5.554,13.363l-2.794.438a.286.286,0,0,0-.123.051l-1.33.974a.688.688,0,0,0-.053,1.069l.113.1a1.025,1.025,0,0,0,1.318.039l.6-.472.127-.02-1.851,1.528a22.456,22.456,0,0,1,.391,2.733.973.973,0,0,1,1.47.58.974.974,0,0,0,1.371.131l.162-.134c.4-.331.792-.686,1.159-1.055a14.882,14.882,0,0,0,1.741-2.121l.941-1.373a60.687,60.687,0,0,0,5.2-6.216c3.451-4.764,5.115-8.719,4.945-11.757-.155-2.77-1.722-5.827-4.657-9.087a35.029,35.029,0,0,0-4.334-4.047,19.023,19.023,0,0,0-3.216-2.38l-.171-.1-.917-4.182-.486-6.559,0-.025a4.208,4.208,0,0,0-2.8-3.339,1.781,1.781,0,0,0-.553-.068Z" fill="#404040"/><path d="M5717.4,3122.131l-.652-2.284s-3.48,1.849-5.162,1.5" fill="#fff"/><path d="M5717.4,3122.273a.142.142,0,0,1-.136-.1l-.6-2.119c-.7.359-3.575,1.751-5.1,1.434a.141.141,0,1,1,.057-.277c1.612.336,5.032-1.468,5.067-1.486a.138.138,0,0,1,.121,0,.143.143,0,0,1,.081.091l.651,2.285a.14.14,0,0,1-.1.174A.134.134,0,0,1,5717.4,3122.273Z" fill="#404040"/><path d="M5716.974,3134.531a.14.14,0,0,1-.045-.274c.045-.015,4.5-1.544,5.027-5.345a.141.141,0,1,1,.279.039c-.553,3.976-5.17,5.558-5.216,5.573A.139.139,0,0,1,5716.974,3134.531Z" fill="#404040"/><path d="M5725.705,3142.014a.138.138,0,0,1-.093-.035.141.141,0,0,1-.013-.2l4.551-5.155a.141.141,0,1,1,.211.187l-4.55,5.154A.14.14,0,0,1,5725.705,3142.014Z" fill="#404040"/><path d="M5714.025,3123.39c.038.205-.035.39-.162.413s-.26-.124-.3-.33.035-.39.162-.413S5713.988,3123.184,5714.025,3123.39Z" fill="#404040"/><path d="M5717.979,3125.23h-.053a.141.141,0,0,1-.135-.146.138.138,0,0,1,.146-.136,2.231,2.231,0,0,0,1.585-.571,1.387,1.387,0,0,0,.188-1.247,1.408,1.408,0,0,0-.729-1.061,1.992,1.992,0,0,0-1.516.186.141.141,0,1,1-.139-.245,2.23,2.23,0,0,1,1.767-.2,2,2,0,0,1,.646,2.748A2.414,2.414,0,0,1,5717.979,3125.23Z" fill="#404040"/><path d="M5713.135,3122.735a.142.142,0,0,1-.08-.026.14.14,0,0,1-.035-.2,1.079,1.079,0,0,1,1.374-.3.141.141,0,1,1-.119.256.79.79,0,0,0-1.024.2A.139.139,0,0,1,5713.135,3122.735Z" fill="#404040"/><path d="M5719.442,3123.542a.143.143,0,0,1-.135-.1,1.2,1.2,0,0,0-.6-.8.93.93,0,0,0-.7.013.141.141,0,0,1-.122-.254,1.215,1.215,0,0,1,.936-.018,1.468,1.468,0,0,1,.76.978.141.141,0,0,1-.091.177A.158.158,0,0,1,5719.442,3123.542Z" fill="#404040"/><path d="M5718.289,3124.211h-.009a.142.142,0,0,1-.132-.149,2.013,2.013,0,0,1,.824-1.471.141.141,0,1,1,.157.234,1.76,1.76,0,0,0-.7,1.254A.142.142,0,0,1,5718.289,3124.211Z" fill="#404040"/><line x2="1.85" y2="0.95" transform="translate(5719.509 3124.593)" fill="#fff"/><path d="M5721.359,3125.684a.143.143,0,0,1-.064-.015l-1.851-.95a.142.142,0,0,1-.061-.19.141.141,0,0,1,.19-.061l1.85.95a.141.141,0,0,1-.064.266Z" fill="#404040"/><path d="M5714.128,3127.964a.141.141,0,0,1-.032-.279,1.014,1.014,0,0,0,.743-.955.145.145,0,0,1,.143-.14.142.142,0,0,1,.14.142,1.291,1.291,0,0,1-.962,1.228A.127.127,0,0,1,5714.128,3127.964Z" fill="#404040"/><path d="M5722.249,3139.5a.156.156,0,0,1-.066-.016l-1.652-.862a.141.141,0,0,1,.13-.251l1.653.862a.141.141,0,0,1-.065.267Z" fill="#404040"/><path d="M5713.023,3115.567s-2.192,1.458-1.463,3.637a2.156,2.156,0,0,0,2.017,1.6,2.728,2.728,0,0,0,1.192-.224,18.578,18.578,0,0,0,1.894-.856.149.149,0,0,1,.228.118l.6,2.076s1.867-.885,2.4.815c.416,1.332-.142,1.821-.142,1.821l1.575.806-.225-1.068-.175-2.363c-.131-1.347-.2-3.17-.3-4.083a3.307,3.307,0,0,0-.556-1.539,3.851,3.851,0,0,0-2.1-1.655,3.712,3.712,0,0,0-1.286.025A28.05,28.05,0,0,0,5713.023,3115.567Z" fill="#ccc"/><path d="M5717.774,3165.055a.144.144,0,0,1-.12-.066.142.142,0,0,1,.045-.2l1.632-1.027a.141.141,0,1,1,.15.239l-1.632,1.027A.136.136,0,0,1,5717.774,3165.055Z" fill="#404040"/><path d="M5719.124,3166.1a.141.141,0,0,1-.1-.244l1.249-1.193a.141.141,0,1,1,.2.2l-1.249,1.194A.144.144,0,0,1,5719.124,3166.1Z" fill="#404040"/><path d="M5623.48,3230.8c-.143,0-.29-.006-.436-.018-.862-.07-1.351-.272-1.5-.617a.648.648,0,0,1,.109-.621.144.144,0,0,1,.064-.045l2.046-.685-.571-9.188a.141.141,0,0,1,.046-.114.142.142,0,0,1,.094-.036l.024,0,4.879.824a.14.14,0,0,1,.114.17l-2.077,9.348a.138.138,0,0,1-.042.073A4.2,4.2,0,0,1,5623.48,3230.8Z" fill="#fff"/><path d="M5623.335,3219.617l4.879.824-2.077,9.349a4.088,4.088,0,0,1-2.657.868c-.137,0-.278,0-.425-.017-1.989-.161-1.29-1.008-1.29-1.008l2.149-.719-.579-9.3m0-.282a.282.282,0,0,0-.188.073.278.278,0,0,0-.093.227l.565,9.08-1.943.651a.274.274,0,0,0-.128.088.778.778,0,0,0-.131.766c.168.4.7.628,1.615.7.15.013.3.019.448.019a4.352,4.352,0,0,0,2.849-.944.29.29,0,0,0,.084-.146l2.077-9.349a.281.281,0,0,0-.229-.339l-4.879-.824a.225.225,0,0,0-.047,0Z" fill="#404040"/><path d="M5679.227,3216.426a2.448,2.448,0,0,1-.4-.032.142.142,0,0,1-.111-.106l-.5-2.058-8.609-.5a.14.14,0,0,1-.115-.073.138.138,0,0,1,0-.136l2.682-4.828a.143.143,0,0,1,.123-.073.137.137,0,0,1,.056.012l7.306,3.155a.133.133,0,0,1,.054.041,6.015,6.015,0,0,1,1.2,2.456,2,2,0,0,1-.355,1.627,1.744,1.744,0,0,1-1.331.515Z" fill="#fff"/><path d="M5672.3,3208.761l7.306,3.155a5.96,5.96,0,0,1,1.169,2.385c.221,1.753-.928,1.984-1.546,1.984a2.141,2.141,0,0,1-.374-.03l-.524-2.16-8.713-.506,2.682-4.828m0-.282a.281.281,0,0,0-.246.145l-2.682,4.828a.28.28,0,0,0,0,.273.284.284,0,0,0,.231.146l8.5.494.475,1.957a.28.28,0,0,0,.221.21,2.362,2.362,0,0,0,.427.035,1.877,1.877,0,0,0,1.436-.562,2.132,2.132,0,0,0,.39-1.739,6.17,6.17,0,0,0-1.229-2.527.283.283,0,0,0-.108-.082l-7.306-3.155a.3.3,0,0,0-.112-.023Z" fill="#404040"/><path d="M5639.511,3187.945l3.431,18.725,27.949,9.03,1.935-8.815-21.089-6.985-2.93-21.424Z" fill="#004890"/><path d="M5670.892,3215.84a.132.132,0,0,1-.044-.007l-27.949-9.03a.14.14,0,0,1-.1-.108l-3.431-18.725a.138.138,0,0,1,.039-.124l9.3-9.469a.139.139,0,0,1,.145-.035.143.143,0,0,1,.1.114l2.917,21.337,21.006,6.957a.141.141,0,0,1,.093.164l-1.935,8.815a.139.139,0,0,1-.067.092A.137.137,0,0,1,5670.892,3215.84Zm-27.826-9.279,27.721,8.956,1.874-8.539-20.968-6.944a.141.141,0,0,1-.095-.115l-2.891-21.139-9.044,9.211Z" fill="#404040"/><path d="M5644.267,3163.808a.154.154,0,0,1-.055-.011l-17.328-7.2a.141.141,0,0,1-.04-.235c.023-.021,2.332-2.165,2.367-7.135.043-5.968,6.411-11.256,7.1-11.808l-.177-2.713-.02-.007a3.393,3.393,0,0,1-2.1-2.972l-.022-.465-.373-.389a.73.73,0,0,1,.294-1.2l-.1-1.24c-.044-.219-.6-3.137.817-4.962a3.818,3.818,0,0,1,3-1.4c.122,0,.241-.008.357-.008,2.037,0,4.521.9,4.793,5.18,0,.058.006.107.009.146.035.429.1,1.918.158,3.148h.1a1.589,1.589,0,0,1,1.33.565,2.961,2.961,0,0,1,.283,2.22.139.139,0,0,1-.115.1l-4.259.652a15.72,15.72,0,0,1,3.367,2.059,27.975,27.975,0,0,1,5.322,4.252c2.425,2.483,5.293,6.468,5.181,11.349s-2.012,7.241-3.586,8.353a6.854,6.854,0,0,1-3.3,1.245v1.709a.14.14,0,0,1-.111.138l-2.852.617A.137.137,0,0,1,5644.267,3163.808Z" fill="#fff"/><path d="M5637.984,3122.208c4.569,0,4.6,4.428,4.662,5.2.036.442.107,2,.163,3.286.081-.006.158-.009.231-.009,2.13,0,1.476,2.61,1.476,2.61l-4.916.753c1.44.205,3.966,2.214,3.966,2.214s10.656,6.128,10.441,15.48-6.889,9.469-6.889,9.469v1.842l-2.851.617-17.328-7.2s2.377-2.139,2.414-7.239c.044-6.28,7.1-11.745,7.1-11.745l-.19-2.929-.1.015a3.242,3.242,0,0,1-2.01-2.848l-.025-.518-.409-.428a.589.589,0,0,1,.268-.975l.074-.02-.109-1.364s-1.238-5.969,3.681-6.2c.12-.005.236-.008.35-.008m0-.282h0c-.118,0-.241,0-.364.008a3.955,3.955,0,0,0-3.1,1.455c-1.437,1.853-.9,4.784-.845,5.067l.09,1.13a.871.871,0,0,0-.247,1.385l.336.351.02.413a3.537,3.537,0,0,0,2.124,3.07l.166,2.55a25.462,25.462,0,0,0-3.46,3.467c-1.644,2-3.608,5.078-3.632,8.405-.035,4.9-2.3,7.011-2.321,7.032a.283.283,0,0,0,.081.47l17.328,7.2a.294.294,0,0,0,.109.022.279.279,0,0,0,.059-.007l2.852-.617a.282.282,0,0,0,.222-.276v-1.58a7.087,7.087,0,0,0,3.245-1.259c1.6-1.13,3.531-3.517,3.645-8.465a13.482,13.482,0,0,0-1.572-6.5,20.663,20.663,0,0,0-3.649-4.951,28.173,28.173,0,0,0-5.343-4.269,17.56,17.56,0,0,0-2.935-1.878l3.768-.577a.284.284,0,0,0,.231-.211,3.109,3.109,0,0,0-.308-2.341,1.709,1.709,0,0,0-1.4-.619c-.053-1.2-.118-2.6-.152-3.018,0-.038-.006-.086-.01-.143a7.337,7.337,0,0,0-.76-3.042,4.38,4.38,0,0,0-4.173-2.27Z" fill="#404040"/><path d="M5678.611,3216.223c1.692-1.077,1.084-4.585,1.084-4.585l3.242.662-4.1,7.714Z" fill="#404040"/><path d="M5621.731,3229.369c1.327,1.5,4.7.357,4.7.357l-.149,3.3-8.258-2.843Z" fill="#404040"/><path d="M5637.742,3163.875l-13.156,25.614-3.01,29.831,9.674,1.634,2.365-27.363,13.453-12.884a9.676,9.676,0,0,0,2.8-9.023,36.9,36.9,0,0,0-2.762-7.705" fill="#004890"/><path d="M5631.25,3221.095l-.023,0-9.675-1.634a.141.141,0,0,1-.117-.153l3.01-29.831a.147.147,0,0,1,.015-.05l13.157-25.614a.14.14,0,0,1,.19-.061.142.142,0,0,1,.061.19l-13.145,25.59-2.994,29.673,9.394,1.586,2.352-27.21a.137.137,0,0,1,.043-.089l13.452-12.885a9.585,9.585,0,0,0,2.756-8.891,37.089,37.089,0,0,0-2.75-7.672.141.141,0,0,1,.252-.127,37.355,37.355,0,0,1,2.774,7.74,9.873,9.873,0,0,1-2.836,9.154l-13.415,12.848-2.36,27.309a.142.142,0,0,1-.054.1A.144.144,0,0,1,5631.25,3221.095Z" fill="#404040"/><path d="M5636.034,3128.282c.009.2-.083.364-.205.37s-.23-.151-.239-.349.082-.364.205-.37S5636.024,3128.083,5636.034,3128.282Z" fill="#404040"/><path d="M5636.256,3127.5a.147.147,0,0,1-.085-.029.743.743,0,0,0-.984-.021.141.141,0,0,1-.192-.207,1.033,1.033,0,0,1,1.347,0,.141.141,0,0,1-.086.254Z" fill="#404040"/><path d="M5640.8,3129.15a.14.14,0,0,1-.138-.116.9.9,0,0,0-.36-.649.684.684,0,0,0-.51-.059.141.141,0,0,1-.087-.268.967.967,0,0,1,.74.084,1.155,1.155,0,0,1,.494.842.141.141,0,0,1-.114.164Z" fill="#404040"/><path d="M5639.853,3129.543l-.027,0a.141.141,0,0,1-.111-.166,1.578,1.578,0,0,1,.792-1.057.141.141,0,0,1,.125.253,1.31,1.31,0,0,0-.641.859A.141.141,0,0,1,5639.853,3129.543Z" fill="#404040"/><path d="M5639.813,3130.3a2.223,2.223,0,0,1-.358-.026.141.141,0,1,1,.047-.278,1.679,1.679,0,0,0,1.234-.266,1.033,1.033,0,0,0,.259-.9,1.071,1.071,0,0,0-.434-.871,1.394,1.394,0,0,0-1.079-.014.141.141,0,0,1-.106-.262,1.66,1.66,0,0,1,1.33.034,1.331,1.331,0,0,1,.57,1.085,1.3,1.3,0,0,1-.348,1.137A1.651,1.651,0,0,1,5639.813,3130.3Z" fill="#404040"/><path d="M5635.349,3132.659a.14.14,0,0,1-.135-.1.142.142,0,0,1,.094-.176,2.544,2.544,0,0,0,1.029-.6.141.141,0,1,1,.2.2,2.836,2.836,0,0,1-1.143.671A.124.124,0,0,1,5635.349,3132.659Z" fill="#404040"/><path d="M5639.429,3127.958h-.01c-.165-.011-4.047-.307-5.5-2.41a.142.142,0,0,1,.036-.2.141.141,0,0,1,.2.036,5.427,5.427,0,0,0,2.874,1.81,7.1,7.1,0,0,1-2.941-2.472.141.141,0,1,1,.236-.154,8.129,8.129,0,0,0,5.133,3.107.141.141,0,0,1-.019.281Z" fill="#404040"/><path d="M5639.429,3127.817a9,9,0,0,1-5.215-3.319s.6-2.483,4.173-2.278a3.578,3.578,0,0,1,3.3,2.958,46.861,46.861,0,0,1,.768,5.735s1.685-.5,1.589,1.472l.637.459c-.007.032-.012.064-.02.1,0,0,1.358,1.886-1.092,3.317s-4.333-1.055-4.693-2.307a5.848,5.848,0,0,1,.6-3.812s1.681.33,1.658-1.32S5639.429,3127.817,5639.429,3127.817Z" fill="#004890"/><path d="M5642.145,3136.783a3.231,3.231,0,0,1-1.706-.506c-3.252-2.017-1.107-6.162-1.085-6.2a.141.141,0,0,1,.19-.059.142.142,0,0,1,.059.191,7.008,7.008,0,0,0-.66,2.227,3.479,3.479,0,0,0,1.644,3.605,2.807,2.807,0,0,0,3.289-.146,2.24,2.24,0,0,0,1-2.22,1.872,1.872,0,0,0-1.838-1.337.146.146,0,0,1-.146-.136.14.14,0,0,1,.135-.146,2.186,2.186,0,0,1,2.119,1.538,2.517,2.517,0,0,1-1.1,2.525A3.116,3.116,0,0,1,5642.145,3136.783Z" fill="#404040"/><path d="M5622.606,3158.21l5.838-5.929.72-9.141a2.051,2.051,0,0,1,1.017-1.614h0a2.915,2.915,0,0,1,4.116,1.3,13.172,13.172,0,0,1,1.006,6.386h5.171a4.33,4.33,0,0,1,4.33,4.33v7.245a4.69,4.69,0,0,1-2.25,4.006l-7,4.263Z" fill="#fff"/><path d="M5635.555,3169.2a.143.143,0,0,1-.091-.033l-12.949-10.847a.14.14,0,0,1-.009-.207l5.8-5.892.716-9.09a2.191,2.191,0,0,1,1.088-1.725,3.079,3.079,0,0,1,2.475-.268,3.044,3.044,0,0,1,1.84,1.632,13.3,13.3,0,0,1,1.027,6.3h5.021a4.476,4.476,0,0,1,4.471,4.471v4.336a.141.141,0,1,1-.282,0v-4.336a4.193,4.193,0,0,0-4.189-4.189H5635.3a.142.142,0,0,1-.1-.044.139.139,0,0,1-.038-.106,13.1,13.1,0,0,0-.993-6.319,2.721,2.721,0,0,0-1.669-1.48,2.792,2.792,0,0,0-2.248.243,1.908,1.908,0,0,0-.947,1.5l-.721,9.141a.133.133,0,0,1-.04.088l-5.73,5.82,12.754,10.684,6.912-4.21a4.583,4.583,0,0,0,2.06-2.833.141.141,0,1,1,.274.065,4.862,4.862,0,0,1-2.187,3.009l-7,4.262A.137.137,0,0,1,5635.555,3169.2Z" fill="#404040"/><path d="M5640.84,3164.127h-6.684a2.6,2.6,0,1,1,0-5.2h5.3a.141.141,0,1,1,0,.282h-5.3a2.318,2.318,0,1,0,0,4.637h6.684a.141.141,0,1,1,0,.282Z" fill="#404040"/><path d="M5640.84,3159.208h-6.684a2.6,2.6,0,1,1,0-5.2h5.3a.141.141,0,1,1,0,.282h-5.3a2.318,2.318,0,1,0,0,4.637h6.684a.141.141,0,1,1,0,.282Z" fill="#404040"/><path d="M5640.84,3154.289h-6.684a2.6,2.6,0,1,1,0-5.2.141.141,0,0,1,0,.282,2.318,2.318,0,1,0,0,4.637h6.684a.141.141,0,1,1,0,.282Z" fill="#404040"/><path d="M5642.544,3163.628a.588.588,0,0,1-.446-.971l.71-.829-1.344.682a.693.693,0,0,1-.627-1.236l1.026-.52-1.219.286a.693.693,0,0,1-.321-1.348l1.65-.386-.8-.334a.655.655,0,1,1,.508-1.208l1.812.771a5.99,5.99,0,0,0,3.868-3.831c.63-2.169-.137-4.659-.892-6.366a19.434,19.434,0,0,0-1.821-3.235.141.141,0,0,1,.228-.167,19.791,19.791,0,0,1,1.848,3.283c.776,1.751,1.562,4.311.909,6.563a6.286,6.286,0,0,1-4.09,4.037.141.141,0,0,1-.107,0l-1.865-.794a.373.373,0,0,0-.494.48.368.368,0,0,0,.2.208l1.206.5a.141.141,0,0,1-.022.267l-2.075.486a.41.41,0,0,0,.191.8l2.289-.537a.141.141,0,0,1,.151.214l-.019.029a.129.129,0,0,1-.055.05l-1.98,1a.412.412,0,0,0-.181.552.411.411,0,0,0,.552.18l1.981-1.005a.142.142,0,0,1,.154.235l-1.159,1.353a.3.3,0,0,0-.072.222.3.3,0,0,0,.106.209.306.306,0,0,0,.431-.034l1.169-1.366a.143.143,0,0,1,.081-.047l3.141-.613a.141.141,0,1,1,.054.277l-3.093.6-1.138,1.329a.584.584,0,0,1-.4.2Z" fill="#404040"/><path d="M5649.328,3160.779a.141.141,0,0,1-.115-.06l-2.809-4.031a.141.141,0,1,1,.231-.161l2.809,4.03a.141.141,0,0,1-.035.2A.144.144,0,0,1,5649.328,3160.779Z" fill="#404040"/><path d="M5626.139,3160.15l-.411.467a.564.564,0,0,0,.05.8h0a.564.564,0,0,0,.8-.051l.411-.466a.563.563,0,0,0-.051-.795h0A.562.562,0,0,0,5626.139,3160.15Z" fill="#fff"/><path d="M5626.15,3161.693a.7.7,0,0,1-.528-1.169l.411-.467a.7.7,0,1,1,1.057.931l-.411.466A.7.7,0,0,1,5626.15,3161.693Zm.412-1.593h-.027a.414.414,0,0,0-.29.143l-.411.466a.422.422,0,0,0,.633.558l.411-.467a.421.421,0,0,0-.038-.595A.414.414,0,0,0,5626.562,3160.1Z" fill="#404040"/><path d="M5626.948,3160.863l-.411.467a.563.563,0,0,0,.051.795h0a.563.563,0,0,0,.794-.051l.411-.467a.562.562,0,0,0-.05-.794h0A.563.563,0,0,0,5626.948,3160.863Z" fill="#fff"/><path d="M5626.959,3162.406a.7.7,0,0,1-.528-1.169l.411-.467a.7.7,0,0,1,1.057.931l-.411.466A.7.7,0,0,1,5626.959,3162.406Zm.412-1.592a.422.422,0,0,0-.317.142l-.411.467a.422.422,0,1,0,.634.558l.411-.467a.423.423,0,0,0-.038-.595A.418.418,0,0,0,5627.371,3160.814Z" fill="#404040"/><path d="M5627.706,3161.531l-.411.466a.563.563,0,0,0,.051.795h0a.562.562,0,0,0,.794-.05l.411-.467a.563.563,0,0,0-.05-.795h0A.563.563,0,0,0,5627.706,3161.531Z" fill="#fff"/><path d="M5627.717,3163.073a.7.7,0,0,1-.528-1.169l.411-.467a.7.7,0,0,1,1.057.931l-.411.467A.7.7,0,0,1,5627.717,3163.073Zm.412-1.592a.42.42,0,0,0-.317.143h0l-.411.467a.422.422,0,0,0,.633.557l.411-.466a.421.421,0,0,0-.316-.7Zm-.423.05h0Z" fill="#404040"/><path d="M5738.822,3053.216s2.228-4.557,5.507-3.255,4.794,6.944-2.512,14c-9.9-2.254-11.524-7.867-9.392-10.677S5738.822,3053.216,5738.822,3053.216Z" fill="#004890"/><path d="M5558.937,3186.29l-6.679,10.875-3.234,31.132-8.093-1.545,1.028-31.142,10.2-25.831,18.673-3.5-.318,26.567,21.652,10.645-3.257,9.452-29.832-13.482-.14-13.169,8.084-11.3" fill="#fff"/><path d="M5549.024,3228.438l-.027,0-8.093-1.544a.141.141,0,0,1-.114-.143l1.027-31.142a.142.142,0,0,1,.01-.047l10.2-25.831a.142.142,0,0,1,.106-.087l18.673-3.5a.142.142,0,0,1,.117.03.146.146,0,0,1,.05.11l-.317,26.478,21.573,10.606a.14.14,0,0,1,.071.172l-3.258,9.453a.141.141,0,0,1-.191.082l-29.832-13.481a.143.143,0,0,1-.083-.128l-.134-12.68-6.406,10.431-3.231,31.1a.14.14,0,0,1-.056.1A.142.142,0,0,1,5549.024,3228.438Zm-7.948-1.8,7.823,1.494,3.219-30.98a.133.133,0,0,1,.02-.059l6.679-10.875.006-.01,8.084-11.3a.141.141,0,0,1,.229.164l-8.057,11.26.138,13.033,29.608,13.381,3.167-9.188-21.541-10.59a.14.14,0,0,1-.079-.128l.316-26.4-18.428,3.457L5542.1,3195.64Z" fill="#404040"/><path d="M5571.329,3168.2l-.625-11.16-11.328,6.009a15.683,15.683,0,0,1-2,2.453,7.1,7.1,0,0,1-1.306,1.135.708.708,0,0,1-.992-.772h0l-.676.26a1.42,1.42,0,0,1-.72-.056c-.231-.134-2.277,1.326-2.277,1.326h0c.148,1.212.356,2.716.356,2.716l19.567-1.911Z" fill="#fff"/><path d="M5551.762,3170.254a.141.141,0,0,1-.14-.121c0-.015-.21-1.52-.356-2.719a.142.142,0,0,1,.058-.132c2.12-1.513,2.354-1.377,2.43-1.332a1.222,1.222,0,0,0,.612.039l.572-.219v-.4a.141.141,0,0,1,.141-.141h0a.141.141,0,0,1,.141.141h0v.5a.694.694,0,0,0,.216.6.749.749,0,0,0,.588.04,8.155,8.155,0,0,0,1.254-1.1,15.661,15.661,0,0,0,1.979-2.428.146.146,0,0,1,.053-.048l11.328-6.01a.142.142,0,0,1,.136,0,.139.139,0,0,1,.071.115l.625,11.16a.142.142,0,0,1-.127.149l-19.568,1.911Zm-.206-2.79c.119.97.274,2.111.327,2.5l19.3-1.885-.6-10.8-11.1,5.889a16.084,16.084,0,0,1-2,2.446,7.007,7.007,0,0,1-1.347,1.163,1.021,1.021,0,0,1-.855-.071.845.845,0,0,1-.325-.629l-.5.19a.152.152,0,0,1-.028.008,1.559,1.559,0,0,1-.793-.062A10.838,10.838,0,0,0,5551.556,3167.464Zm2.056-1.271Z" fill="#404040"/><path d="M5575.924,3143.131l-26.031-7.794a8.259,8.259,0,0,0-10.28,5.543l-4.756,15.886a8.257,8.257,0,0,0,5.543,10.279l3.992,1.2s-2.633,8.62,5.14,17.835c0,0,.7-9.568,6.438-14.369l10.46,3.132a8.258,8.258,0,0,0,10.28-5.543l4.756-15.886A8.256,8.256,0,0,0,5575.924,3143.131Z" fill="#fff"/><path d="M5549.532,3186.217a.14.14,0,0,1-.108-.05,22.586,22.586,0,0,1-5.517-12.451,16.351,16.351,0,0,1,.312-5.38l-3.86-1.155a8.4,8.4,0,0,1-5.637-10.456l4.756-15.886a8.408,8.408,0,0,1,10.455-5.637l26.031,7.793a8.41,8.41,0,0,1,5.638,10.456l-4.757,15.886a8.4,8.4,0,0,1-10.455,5.637l-10.387-3.11c-5.579,4.724-6.324,14.128-6.331,14.223a.138.138,0,0,1-.1.123A.128.128,0,0,1,5549.532,3186.217Zm-2-51.087a8.133,8.133,0,0,0-7.78,5.79l-4.756,15.886a8.116,8.116,0,0,0,5.448,10.1l3.992,1.2a.145.145,0,0,1,.084.069.139.139,0,0,1,.011.108,15.468,15.468,0,0,0-.338,5.422,22.235,22.235,0,0,0,5.235,12.023c.193-1.753,1.346-9.856,6.456-14.128a.141.141,0,0,1,.131-.027l10.46,3.132a8.119,8.119,0,0,0,10.1-5.448l4.756-15.886a8.125,8.125,0,0,0-5.448-10.1l-26.031-7.794A8.113,8.113,0,0,0,5547.528,3135.13Z" fill="#404040"/><path d="M5575.743,3153.447a.132.132,0,0,1-.04-.006l-30.894-9.25a.141.141,0,1,1,.08-.27l30.9,9.249a.142.142,0,0,1-.041.277Z" fill="#404040"/><path d="M5563.153,3156.7a.145.145,0,0,1-.04-.006l-20.235-6.058a.141.141,0,0,1,.081-.271l20.234,6.058a.141.141,0,0,1-.04.277Z" fill="#404040"/><path d="M5561.223,3163.15a.146.146,0,0,1-.041-.006l-20.234-6.058a.141.141,0,1,1,.081-.27l20.234,6.058a.141.141,0,0,1-.04.276Z" fill="#404040"/><path d="M5542.681,3227.086l-8.314,4.388,12.19,1.556.272-5.146Z" fill="#404040"/><path d="M5589.875,3210.52l2.7,8.863,3.547-11.766-5.031-1.118Z" fill="#404040"/><path d="M5555.751,3166.86a.833.833,0,0,1-.833-.86l-.108.089a.833.833,0,0,1-1.358-.722.818.818,0,0,1,.192-.457.833.833,0,0,1-.417-1.467l2.246-1.853-.673.1-.623.494a.878.878,0,0,1-1.135-.035l-.113-.1a.548.548,0,0,1,.041-.85l1.328-.972a.136.136,0,0,1,.062-.025l2.865-.448c.378-.824,4.018-8.789,5.574-13.431.993-2.963-2.06-5.344-4.8-6.82l-5.883-3.334a.142.142,0,0,1-.063-.172l.6-1.61-.387-4.782a3.416,3.416,0,0,1-.472.033c-1.67,0-2.879-1.218-3.182-3.192l-.705.161a.176.176,0,0,1-.032,0,.143.143,0,0,1-.14-.159l.332-2.58-.7-2.573a3.783,3.783,0,0,1,.614-2.9,3.627,3.627,0,0,1,2.965-1.153h.05c4.1,0,5.741,1.931,6.052,7.124l.935,4.246c.06.038.135.083.223.136a18.963,18.963,0,0,1,3.2,2.368h0c.359.274,8.578,6.635,8.942,13.031.4,7.1-9.548,17.3-10.091,17.855l-.945,1.382a14.936,14.936,0,0,1-1.721,2.1c-.364.365-.75.716-1.148,1.044l-.162.134A.833.833,0,0,1,5555.751,3166.86Z" fill="#fff"/><path d="M5551,3117.392c4.21,0,5.622,2.134,5.912,7l.949,4.314a19.8,19.8,0,0,1,3.45,2.521h0s8.528,6.419,8.9,12.935c.406,7.16-10.06,17.757-10.06,17.757l-.952,1.392a14.558,14.558,0,0,1-1.7,2.078c-.362.363-.742.709-1.138,1.035l-.162.134a.692.692,0,0,1-.88-1.067l-.588.486a.692.692,0,0,1-.881-1.066l.357-.3a.691.691,0,0,1-.972-.094.691.691,0,0,1,.092-.973l2.643-2.182-1.218.192-.653.517a.741.741,0,0,1-.953-.03l-.113-.1a.407.407,0,0,1,.03-.631l1.328-.972,2.94-.459h0s3.955-8.576,5.611-13.514c1.047-3.124-2.279-5.595-4.864-6.989l-5.88-3.333.606-1.639-.4-4.965a3.381,3.381,0,0,1-.6.055c-1.57,0-2.8-1.174-3.063-3.223l-.856.2.335-2.608-.7-2.6s-.806-3.857,3.443-3.874H5551m0-.282v0h-.051a3.759,3.759,0,0,0-3.074,1.2,3.93,3.93,0,0,0-.644,3.009l0,.016.69,2.546-.328,2.552a.284.284,0,0,0,.28.318.346.346,0,0,0,.063-.007l.56-.128c.352,1.932,1.62,3.162,3.3,3.162.113,0,.228-.006.343-.017l.373,4.606-.585,1.58a.283.283,0,0,0,.125.344l5.881,3.333c2.694,1.452,5.7,3.783,4.735,6.653-1.518,4.528-5.023,12.227-5.537,13.348l-2.79.436a.289.289,0,0,0-.123.051l-1.328.972a.688.688,0,0,0-.052,1.069l.113.1a1.022,1.022,0,0,0,1.317.04l.594-.471.126-.02-1.848,1.525a.975.975,0,0,0-.13,1.37.381.381,0,0,1,.305.65.973.973,0,0,0,1.494.912.956.956,0,0,0,.193.381.974.974,0,0,0,1.37.132l.162-.134c.4-.331.79-.685,1.158-1.053a15.036,15.036,0,0,0,1.737-2.119l.938-1.371a60.535,60.535,0,0,0,5.192-6.208c3.444-4.757,5.1-8.709,4.93-11.745-.157-2.768-1.725-5.824-4.659-9.084a35.058,35.058,0,0,0-4.333-4.048,19.043,19.043,0,0,0-3.214-2.381l-.171-.1-.92-4.177c-.159-2.644-.636-4.329-1.546-5.464-.974-1.215-2.45-1.781-4.646-1.781Z" fill="#404040"/><path d="M5553.672,3165.023a.141.141,0,0,1-.086-.253l1.225-.941a.141.141,0,0,1,.172.224l-1.225.941A.143.143,0,0,1,5553.672,3165.023Z" fill="#404040"/><path d="M5554.929,3166.131a.141.141,0,0,1-.1-.242l1.351-1.3a.141.141,0,0,1,.2.2l-1.352,1.3A.14.14,0,0,1,5554.929,3166.131Z" fill="#404040"/><path d="M5552.82,3134.531a.141.141,0,0,1-.052-.272c.045-.018,4.5-1.844,5.034-5.65a.141.141,0,0,1,.279.039c-.552,3.97-5.162,5.855-5.209,5.873A.133.133,0,0,1,5552.82,3134.531Z" fill="#404040"/><path d="M5561.551,3142.014a.138.138,0,0,1-.093-.035.141.141,0,0,1-.013-.2l4.551-5.155a.14.14,0,0,1,.2-.013.142.142,0,0,1,.012.2l-4.55,5.154A.141.141,0,0,1,5561.551,3142.014Z" fill="#404040"/><path d="M5549.871,3123.39c.038.205-.035.39-.162.413s-.26-.124-.3-.33.035-.39.162-.413S5549.834,3123.184,5549.871,3123.39Z" fill="#404040"/><path d="M5553.826,3125.23h-.053a.141.141,0,0,1,.01-.282,2.236,2.236,0,0,0,1.585-.571,1.387,1.387,0,0,0,.188-1.247,1.408,1.408,0,0,0-.729-1.061,1.992,1.992,0,0,0-1.516.186.141.141,0,0,1-.139-.245,2.231,2.231,0,0,1,1.767-.2,2,2,0,0,1,.646,2.748A2.414,2.414,0,0,1,5553.826,3125.23Z" fill="#404040"/><path d="M5548.982,3122.735a.144.144,0,0,1-.081-.026.14.14,0,0,1-.035-.2,1.079,1.079,0,0,1,1.374-.3.141.141,0,1,1-.118.256.79.79,0,0,0-1.024.2A.142.142,0,0,1,5548.982,3122.735Z" fill="#404040"/><path d="M5555.288,3123.542a.141.141,0,0,1-.134-.1,1.207,1.207,0,0,0-.6-.8.926.926,0,0,0-.7.013.141.141,0,1,1-.122-.254,1.211,1.211,0,0,1,.935-.018,1.468,1.468,0,0,1,.761.978.142.142,0,0,1-.092.177A.158.158,0,0,1,5555.288,3123.542Z" fill="#404040"/><path d="M5554.135,3124.211h-.008a.142.142,0,0,1-.133-.149,2.015,2.015,0,0,1,.825-1.471.141.141,0,1,1,.156.234h0a1.763,1.763,0,0,0-.7,1.254A.141.141,0,0,1,5554.135,3124.211Z" fill="#404040"/><path d="M5549.974,3127.964a.141.141,0,0,1-.032-.279,1.014,1.014,0,0,0,.743-.955.14.14,0,0,1,.143-.14.142.142,0,0,1,.14.142,1.291,1.291,0,0,1-.962,1.228A.118.118,0,0,1,5549.974,3127.964Z" fill="#404040"/><path d="M5558.1,3139.5a.15.15,0,0,1-.065-.016l-1.653-.862a.141.141,0,0,1,.13-.251l1.653.862a.141.141,0,0,1-.065.267Z" fill="#404040"/><path d="M5537.015,3149.659l2.43,1.25a.869.869,0,0,0,1.17-.375h0a.869.869,0,0,0-.375-1.17l-2.429-1.251" fill="#fff"/><path d="M5539.841,3151.147a1,1,0,0,1-.461-.113l-2.429-1.25a.14.14,0,0,1-.061-.19.142.142,0,0,1,.19-.061l2.429,1.251a.726.726,0,0,0,.98-.315.727.727,0,0,0-.314-.98l-2.429-1.25a.141.141,0,0,1,.129-.251l2.429,1.25a1.01,1.01,0,0,1-.154,1.86A.988.988,0,0,1,5539.841,3151.147Z" fill="#404040"/><path d="M5537.015,3149.659l1.575.81a.869.869,0,0,1,.375,1.171h0a.868.868,0,0,1-1.17.375l-2.14-1.1c-1.289-.664-.7-3.464.772-4.453a1.8,1.8,0,0,1,1.817-.079l2.273,1.169a.871.871,0,0,1,.375,1.171h0a.87.87,0,0,1-1.171.375l-1.91-.984" fill="#fff"/><path d="M5538.192,3152.253a1,1,0,0,1-.461-.113l-2.14-1.1a1.609,1.609,0,0,1-.782-1.427,3.923,3.923,0,0,1,1.539-3.268,1.929,1.929,0,0,1,1.961-.087l2.272,1.169a1.01,1.01,0,1,1-.924,1.8l-1.911-.983a.141.141,0,0,1,.129-.251l1.911.983a.728.728,0,0,0,.666-1.294l-2.272-1.17a1.648,1.648,0,0,0-1.674.071,3.688,3.688,0,0,0-1.415,3.018,1.341,1.341,0,0,0,.629,1.192l2.14,1.1a.728.728,0,1,0,.666-1.294l-1.575-.811a.14.14,0,0,1-.061-.19.142.142,0,0,1,.19-.061l1.575.811a1.011,1.011,0,0,1-.463,1.909Z" fill="#404040"/><path d="M5556.579,3118.187a3.945,3.945,0,0,0-2.613-3.117c-.722-.24-3.512.369-5.243.993a2.835,2.835,0,1,0-1.35,5.487,1.43,1.43,0,0,0,.309.1c1.681.349,5.161-1.5,5.161-1.5l.4,1.977a2.451,2.451,0,0,1,1.774-.188l2.051,2.823Z" fill="#404040"/><path d="M5552.751,3134.529s4.517-1.648,5.3-5.7a37.819,37.819,0,0,1,8.5,7.515c3.356,4.245,4.969,7.714,2.437,13.217a40.422,40.422,0,0,1-5.832,8.978l-4.55-1.5s2.334-5.355,3.726-8.972a8.666,8.666,0,0,0,.737-3.552c-1.036-3.917-5.86-5.355-10.877-8.468Z" fill="#004890"/><path d="M5563.153,3158.678a.133.133,0,0,1-.044-.007l-4.55-1.495a.141.141,0,0,1,.088-.268l4.55,1.5a.141.141,0,0,1-.044.275Z" fill="#404040"/><path d="M5683.443,3100.912a7.2,7.2,0,0,1-4.672-1.824,19.928,19.928,0,0,1-1.421-1.481c-1.2-1.336-2.329-2.6-3.971-2.709-1.721-.115-3.053,1.1-4.462,2.392-1.357,1.242-2.76,2.53-4.552,2.508-1.948-.021-3.434-1.573-4.745-2.942-1.226-1.281-2.867-2.713-4.69-2.408a.141.141,0,0,1-.046-.279c1.951-.326,3.665,1.161,4.94,2.492s2.715,2.835,4.544,2.854h.036c1.664,0,3.015-1.237,4.322-2.434,1.391-1.273,2.831-2.59,4.672-2.465,1.757.118,2.98,1.483,4.162,2.8a19.577,19.577,0,0,0,1.4,1.459c2.459,2.221,5.721,2.137,7.455.774a9.461,9.461,0,0,0,1.446-1.549,7.21,7.21,0,0,1,2.035-1.947,3.863,3.863,0,0,1,5.393,2.519.141.141,0,1,1-.277.055,3.581,3.581,0,0,0-4.98-2.327,6.887,6.887,0,0,0-1.951,1.877,9.61,9.61,0,0,1-1.492,1.593A5.021,5.021,0,0,1,5683.443,3100.912Z" fill="#404040"/><path d="M5655.455,3095.514a.141.141,0,0,1-.081-.025l-1.113-.777c-.21-.147-.2-.292-.172-.365a.327.327,0,0,1,.132-.156,9.159,9.159,0,0,0,1.243-1.068.141.141,0,1,1,.2.2,9.478,9.478,0,0,1-1.281,1.1l-.018.013a.377.377,0,0,0,.056.046l1.113.777a.142.142,0,0,1,.034.2A.14.14,0,0,1,5655.455,3095.514Z" fill="#404040"/><path d="M5672.215,3095.082a.974.974,0,1,0,.874-1.065A.974.974,0,0,0,5672.215,3095.082Z" fill="#004890"/><circle cx="0.974" cy="0.974" r="0.974" transform="translate(5682.478 3101.132) rotate(-60.716)" fill="#004890"/><circle cx="8.799" cy="8.799" r="8.799" transform="translate(5662.506 3066.063)" fill="#fff"/><path d="M5671.305,3066.315a8.547,8.547,0,1,1-8.548,8.547,8.547,8.547,0,0,1,8.548-8.547m0-.5a9.051,9.051,0,1,0,9.051,9.05,9.061,9.061,0,0,0-9.051-9.05Z" fill="#404040"/><path d="M5671.305,3068.818a6.044,6.044,0,1,1-6.044,6.044,6.044,6.044,0,0,1,6.044-6.044m0-.5a6.547,6.547,0,1,0,6.547,6.547,6.555,6.555,0,0,0-6.547-6.547Z" fill="#404040"/><circle cx="4.274" cy="4.274" r="4.274" transform="translate(5667.031 3070.588)" fill="#004890"/><path d="M5671.306,3075.114a.252.252,0,0,1-.138-.462l13.088-8.548a.251.251,0,1,1,.275.421l-13.088,8.548A.248.248,0,0,1,5671.306,3075.114Z" fill="#404040"/><path d="M5681.374,3068.538a.258.258,0,0,1-.093-.018.251.251,0,0,1-.14-.327l1.208-3.025a.251.251,0,0,1,.467.186l-1.208,3.026A.252.252,0,0,1,5681.374,3068.538Z" fill="#404040"/><path d="M5682.944,3067.5a.251.251,0,0,1-.233-.344l1.208-3.026a.252.252,0,1,1,.467.187l-1.208,3.025A.253.253,0,0,1,5682.944,3067.5Z" fill="#404040"/></g></svg>