<svg xmlns="http://www.w3.org/2000/svg" width="29.172" height="38.993" viewBox="0 0 29.172 38.993"><g transform="translate(-4732.25 -1197.934)"><path d="M4740.811,1219.511a.656.656,0,0,1-.542-.24,31.683,31.683,0,0,1-3.616-5.486,7.72,7.72,0,0,1-.122-6.992l3.133-6.629a.674.674,0,1,1,1.205.6l-3.133,6.63a6.514,6.514,0,0,0,.12,5.786,35.846,35.846,0,0,0,3.5,5.243.681.681,0,0,1-.12.965,1.138,1.138,0,0,1-.421.121Z" fill="#404040"/><path d="M4754.429,1236.927l-7.17-8.92a.688.688,0,1,1,1.085-.845l6.267,7.834,4.882-4.037-7.173-8.979a.688.688,0,0,1,1.086-.845l8.016,10.006Z" fill="#404040"/><path d="M4734.181,1230.9l4.883,4.038,12.533-15.67a35.368,35.368,0,0,0,4.158-6.088,6.713,6.713,0,0,0,.12-5.787l-1.928-4.216c-.664,2.41-2.411,6.088-6.691,11.389Zm5.061,6.027-6.992-5.787,13.923-17.416c5.123-6.267,6.448-10.064,6.75-12.173a1.383,1.383,0,0,0-.12-.843v-.061a1.569,1.569,0,0,0-1.145-.966,16.32,16.32,0,0,0-4.157-.482h-1.144a15.839,15.839,0,0,0-4.158.482,1.673,1.673,0,0,0-1.266,1.87c.3,2.832,2.109,6.328,5.485,10.666a.688.688,0,1,1-1.085.846c-4.7-6.027-5.544-9.342-5.787-11.331a3.043,3.043,0,0,1,2.35-3.315,17.872,17.872,0,0,1,4.52-.483h.963a21.247,21.247,0,0,1,4.52.483,3.039,3.039,0,0,1,2.109,1.808l3.133,6.629a7.921,7.921,0,0,1-.12,6.993,39.981,39.981,0,0,1-4.338,6.328Z" fill="#404040"/><path d="M4752.139,1206.612h-.121a36.749,36.749,0,0,0-5.184-.483,27.953,27.953,0,0,0-5.183.483.674.674,0,0,1-.243-1.326,30.754,30.754,0,0,1,10.848,0,.68.68,0,0,1,.542.784.7.7,0,0,1-.66.542Z" fill="#404040"/><path d="M4734.181,1230.9l4.883,4.038,12.533-15.67a35.368,35.368,0,0,0,4.158-6.088,6.713,6.713,0,0,0,.12-5.787l-1.928-4.216c-.664,2.41-2.411,6.088-6.691,11.389Z" fill="#28a9e0"/></g></svg>