<svg xmlns="http://www.w3.org/2000/svg" width="349.24" height="72.497" viewBox="0 0 349.24 72.497"><g transform="translate(-5025.38 -35.132)"><path d="M5224.924,97.073l-.451-.273,3.6-5.945-3.759-4.557a.265.265,0,0,1,.177-.432l19.155-1.919a34.215,34.215,0,0,0,2.4-12.541l-7.068-6.1-3.241,2.331,5.424,5.9a.265.265,0,0,1,.053.271.262.262,0,0,1-.216.17l-16.908,2a.261.261,0,0,1-.277-.166.265.265,0,0,1,.092-.311l11.04-7.94-5.233-5.689-9.24-5.125a.263.263,0,0,1-.126-.3l3.044-10.681a.265.265,0,0,1,.413-.139l11.648,8.758,8.434,2.063-.126.513-8.486-2.076a.264.264,0,0,1-.1-.045L5223.8,46.268l-2.881,10.11,9.1,5.044a.239.239,0,0,1,.066.052l5.3,5.767,3.462-2.49a.263.263,0,0,1,.326.015l7.318,6.319a.267.267,0,0,1,.091.2,34.762,34.762,0,0,1-2.5,13.007.264.264,0,0,1-.219.164l-18.821,1.886,3.326,4.034,2.656-4.385a.265.265,0,0,1,.491.145l-.238,7.87a.262.262,0,0,1-.178.242.267.267,0,0,1-.29-.081l-2.375-2.881Zm3.8-6.265,2.046,2.482.186-6.165Zm6.59-22.864-10.263,7.381,15.38-1.818Z" fill="#f8a322"/><path d="M5211.641,106.224a34.8,34.8,0,0,1-12.333-2.239.261.261,0,0,1-.169-.218l-.917-8.257-18.3-10.332a.265.265,0,0,1-.047-.426l9.126-8.23.354.392L5180.5,84.9l18.1,10.218a.265.265,0,0,1,.133.2l.914,8.231a34.3,34.3,0,0,0,11.9,2.148l5.326-4.663-4.589-4.359a.264.264,0,0,1,.3-.428l13.1,6.529,5.1-8.907a.263.263,0,0,1,.326-.114l4.677,1.846,2-13.339.523.079-2.052,13.667a.264.264,0,0,1-.358.206l-4.773-1.884-5.11,8.925a.264.264,0,0,1-.347.105l-11.746-5.853,3.521,3.343a.269.269,0,0,1,.082.2.272.272,0,0,1-.09.194l-5.62,4.919A.264.264,0,0,1,5211.641,106.224Z" fill="#28a9e0"/><path d="M5199.268,103.911a.264.264,0,0,1-.214-.418l7.59-10.62-13.017-1.609.065-.524L5207.15,92.4a.265.265,0,0,1,.209.156.26.26,0,0,1-.027.26l-7.489,10.478,17.38-2.518a.252.252,0,0,1,.1,0l8.262,1.97a34.347,34.347,0,0,0,10.12-6.871L5231.033,75.7a.264.264,0,0,1,.443-.247l5.876,5.788-5.023-12.887.492-.192,5.472,14.039a.265.265,0,0,1-.432.284l-6.108-6.018,4.5,19.437a.261.261,0,0,1-.072.247,34.821,34.821,0,0,1-10.464,7.118.262.262,0,0,1-.168.015l-8.3-1.979-17.942,2.6A.239.239,0,0,1,5199.268,103.911Z" fill="#f8a322"/><path d="M5187.1,95.957l-5.755-17.786a.262.262,0,0,1,.017-.2l3.892-7.492,5.485-10.038,2.132-7.615-5.783-6.029a.263.263,0,0,1,0-.37,34.863,34.863,0,0,1,10.612-7.187.266.266,0,0,1,.287.049l6.489,6.094,6.47-3.8a.262.262,0,0,1,.279.007l5.705,3.747,6.493.216,1.126-6.4a.265.265,0,0,1,.479-.1l10.526,15.414-.436.3-10.161-14.878-1.053,5.985a.26.26,0,0,1-.269.218l-6.8-.225a.267.267,0,0,1-.136-.044l-5.631-3.7-6.5,3.814a.263.263,0,0,1-.314-.036l-6.506-6.109a34.329,34.329,0,0,0-10.107,6.826l5.706,5.949a.264.264,0,0,1,.064.254l-2.18,7.789a.273.273,0,0,1-.023.055l-5.5,10.06-3.839,7.39,5.721,17.68Z" fill="#37b24a"/><path d="M5205.44,100.936a.257.257,0,0,1-.067-.009l-18.3-4.848a.26.26,0,0,1-.119-.068,34.849,34.849,0,0,1-7.319-10.691.262.262,0,0,1,.027-.261.253.253,0,0,1,.239-.108l8.915.846-7.409-7.522-4.66-6.841a.263.263,0,0,1,.017-.319l6.626-7.844,2.166-8.936a.265.265,0,0,1,.2-.2l7.308-1.638,11.24-7.017.279.448-11.277,7.041a.292.292,0,0,1-.083.034l-7.191,1.612-2.142,8.837a.263.263,0,0,1-.055.108L5177.3,71.3l4.517,6.638,7.576,7.687,5.285,4.835,6.477-1.689,1.283-2.8a.264.264,0,0,1,.459-.037l1.367,2.025,8.176-2.133a.264.264,0,0,1,.271.423l-5.387,6.58a.233.233,0,0,1-.217.1.261.261,0,0,1-.207-.116l-2.865-4.244-2.5.653-2.427,5.292.826.756,12.553.949a.264.264,0,0,1,.142.472l-5.4,4.189-.324-.417,4.857-3.769-11.2-.847,5.059,4.63a.264.264,0,0,1-.178.459Zm-17.507-5.176,16.536,4.381-4.763-4.358-1.329-.1a.264.264,0,0,1-.22-.374l.3-.664-3.931-3.6-.753.2Zm-7.63-10.24a34.32,34.32,0,0,0,6.854,9.944l1.631-9.139Zm9.029.769-1.6,8.958,5.766-4.454a.257.257,0,0,1,.095-.047l.474-.124Zm9.463,8.895.28.021-.2-.186Zm-3.655-4.295,3.553,3.251,2.175-4.746Zm9.435-2.462,2.563,3.8,4.649-5.678Zm-1.855-1.8-.907,1.979,1.907-.5Z" fill="#28a9e0"/><path d="M5189.067,76.959l-12.208-5.432a.266.266,0,0,1-.157-.241,34.787,34.787,0,0,1,2.382-12.705.265.265,0,0,1,.288-.165l7.209,1.151,6.389-7a.265.265,0,0,1,.318-.056l5.483,2.877-2.616-9.239L5185.983,54.6a.267.267,0,0,1-.306.023.264.264,0,0,1-.121-.282l1.623-7.5.516.112-1.461,6.747,9.9-8.217a.265.265,0,0,1,.423.131l2.894,10.221a.264.264,0,0,1-.377.306l-5.847-3.068-6.018,6.59,3.822.61a.264.264,0,0,1,.2.154l3.016,6.83a.265.265,0,0,1-.148.354l-8.512,3.229a.263.263,0,0,1-.352-.192L5183.6,63a.264.264,0,0,1,.064-.233l2.494-2.731-6.656-1.062a34.248,34.248,0,0,0-2.268,12.142l12.051,5.363Zm-4.925-13.938,1.541,7.22,7.964-3.021-2.845-6.444-4.023-.642Z" fill="#37b24a"/><path d="M5232.575,68.526a.262.262,0,0,1-.1-.021l-7.191-3.05.206-.487,6.884,2.92,3.381-19.853L5224.74,64.824a.264.264,0,0,1-.485-.133l-.844-18.289-10.588,9.71-.357-.389,11-10.092a.264.264,0,0,1,.443.182l.832,18.039L5236,46.688a.264.264,0,0,1,.481.189l-3.65,21.429a.263.263,0,0,1-.133.188A.269.269,0,0,1,5232.575,68.526Z" fill="#eb0c6e"/><path d="M5203.089,75.818l-.4-.347,9.523-10.965,8.087-8.07-3.7-10.751a.263.263,0,0,1,.085-.291l7.611-6.116a34.2,34.2,0,0,0-12.53-2.4l-7.117,9a.265.265,0,0,1-.207.1h0l-7.973-.017-3.063,6.9-.483-.214,3.134-7.059a.264.264,0,0,1,.241-.157h0l8.017.017,7.118-9a.264.264,0,0,1,.207-.1,34.744,34.744,0,0,1,13.274,2.61.264.264,0,0,1,.161.207.266.266,0,0,1-.1.244l-7.818,6.281,3.693,10.732a.266.266,0,0,1-.064.273l-8.191,8.172Z" fill="#eb0c6e"/><path d="M5239,65.23h-.006l-14.479-.287a.267.267,0,0,1-.151-.051l-11.875-8.762.314-.425,11.807,8.712,14.014.277-3.369-9.534-5.162,6.655a.264.264,0,0,1-.468-.114l-1.7-9.184-4.495-6.542a.265.265,0,0,1-.01-.284.271.271,0,0,1,.253-.129l12.858,1.236-.05.526-12.295-1.181,4.206,6.121a.248.248,0,0,1,.043.1l1.6,8.659,5.1-6.571a.266.266,0,0,1,.251-.1.262.262,0,0,1,.207.172l3.657,10.351a.262.262,0,0,1-.035.242A.265.265,0,0,1,5239,65.23Z" fill="#eb0c6e"/><rect width="8.684" height="0.529" transform="translate(5238.772 64.83) rotate(-58.945)" fill="#eb1e27"/><path d="M5243.236,57.632a34.314,34.314,0,0,0-7.2-10.613l.375-.372a34.852,34.852,0,0,1,7.309,10.775Z" fill="#eb1e27"/><path d="M5225.194,97.432h-13.287V86.309h-23.2V76.7l.05-.1,15.358-31.529h13.828l-14.272,30.079h8.306l-.074-10.83h13.29v10.83h6.586V86.309h-6.586Zm-12.3-.991H5224.2V85.318h6.586V76.134H5224.2V65.3h-11.3l.074,10.83h-10.869l14.271-30.079h-11.642L5189.7,76.924v8.394h23.2Z" fill="#004890"/><circle cx="1.623" cy="1.623" r="1.623" transform="translate(5202.821 44.085)" fill="#004385"/><circle cx="1.623" cy="1.623" r="1.623" transform="translate(5197.57 54.289)" fill="#004385"/><circle cx="1.623" cy="1.623" r="1.623" transform="translate(5191.543 51.126)" fill="#37b24a"/><circle cx="1.623" cy="1.623" r="1.623" transform="translate(5185.815 45.279)" fill="#37b24a"/><circle cx="1.623" cy="1.623" r="1.623" transform="translate(5184.191 52.774)" fill="#37b24a"/><circle cx="1.623" cy="1.623" r="1.623" transform="translate(5178.117 57.093)" fill="#37b24a"/><circle cx="1.623" cy="1.623" r="1.623" transform="translate(5189.363 58.915)" fill="#37b24a"/><circle cx="1.623" cy="1.623" r="1.623" transform="translate(5192.378 65.746)" fill="#004385"/><circle cx="1.623" cy="1.623" r="1.623" transform="translate(5182.134 61.759)" fill="#37b24a"/><circle cx="1.623" cy="1.623" r="1.623" transform="translate(5175.678 69.725)" fill="#28a9e0"/><circle cx="1.623" cy="1.623" r="1.623" transform="translate(5183.866 68.975)" fill="#37b24a"/><circle cx="1.623" cy="1.623" r="1.623" transform="translate(5187.552 75.095)" fill="#004385"/><circle cx="1.623" cy="1.623" r="1.623" transform="translate(5179.974 76.468)" fill="#28a9e0"/><circle cx="1.623" cy="1.623" r="1.623" transform="translate(5178.542 83.688)" fill="#28a9e0"/><circle cx="1.623" cy="1.623" r="1.623" transform="translate(5192.037 89.379)" fill="#28a9e0"/><circle cx="1.623" cy="1.623" r="1.623" transform="translate(5187.477 84.467)" fill="#004385"/><circle cx="1.623" cy="1.623" r="1.623" transform="translate(5185.729 94.253)" fill="#28a9e0"/><circle cx="1.623" cy="1.623" r="1.623" transform="translate(5197.197 94.047)" fill="#28a9e0"/><circle cx="1.623" cy="1.623" r="1.623" transform="translate(5201.053 84.463)" fill="#004385"/><circle cx="1.623" cy="1.623" r="1.623" transform="translate(5210.883 84.463)" fill="#004385"/><circle cx="1.623" cy="1.623" r="1.623" transform="translate(5205.495 91.043)" fill="#28a9e0"/><circle cx="1.623" cy="1.623" r="1.623" transform="translate(5205.44 99.049)" fill="#28a9e0"/><circle cx="1.623" cy="1.623" r="1.623" transform="translate(5197.646 102.025)" fill="#28a9e0"/><circle cx="1.623" cy="1.623" r="1.623" transform="translate(5210.839 94.86)" fill="#004385"/><circle cx="1.623" cy="1.623" r="1.623" transform="translate(5210.358 104.384)" fill="#28a9e0"/><circle cx="1.623" cy="1.623" r="1.623" transform="translate(5216.225 99.506)" fill="#f8a322"/><circle cx="1.623" cy="1.623" r="1.623" transform="translate(5224.163 101.5)" fill="#f8a322"/><circle cx="1.623" cy="1.623" r="1.623" transform="translate(5222.94 94.904)" fill="#004385"/><circle cx="1.623" cy="1.623" r="1.623" transform="translate(5222.896 84.507)" fill="#004385"/><circle cx="1.623" cy="1.623" r="1.623" transform="translate(5229.624 84.507)" fill="#004385"/><circle cx="1.623" cy="1.623" r="1.623" transform="translate(5229.387 92.377)" fill="#f8a322"/><circle cx="1.623" cy="1.623" r="1.623" transform="translate(5234.822 94.249)" fill="#f8a322"/><circle cx="1.623" cy="1.623" r="1.623" transform="translate(5242.555 82.41)" fill="#f8a322"/><circle cx="1.623" cy="1.623" r="1.623" transform="translate(5236.424 80.678)" fill="#f8a322"/><circle cx="1.623" cy="1.623" r="1.623" transform="translate(5222.94 74.022)" fill="#004385"/><circle cx="1.623" cy="1.623" r="1.623" transform="translate(5210.836 74.022)" fill="#004890"/><circle cx="1.623" cy="1.623" r="1.623" transform="translate(5201.268 74.022)" fill="#004385"/><circle cx="1.623" cy="1.623" r="1.623" transform="translate(5229.667 74.022)" fill="#004385"/><circle cx="1.623" cy="1.623" r="1.623" transform="translate(5239.349 72.087)" fill="#f8a322"/><circle cx="1.623" cy="1.623" r="1.623" transform="translate(5244.914 69.741)" fill="#004890"/><circle cx="1.623" cy="1.623" r="1.623" transform="translate(5230.953 66.64)" fill="#f8a322"/><circle cx="1.623" cy="1.623" r="1.623" transform="translate(5237.375 63.343)" fill="#f8a322"/><circle cx="1.623" cy="1.623" r="1.623" transform="translate(5242.074 55.892)" fill="#eb1e27"/><circle cx="1.623" cy="1.623" r="1.623" transform="translate(5222.896 63.057)" fill="#004385"/><circle cx="1.623" cy="1.623" r="1.623" transform="translate(5210.791 63.057)" fill="#004385"/><circle cx="1.623" cy="1.623" r="1.623" transform="translate(5211.021 54.295)" fill="#004385"/><circle cx="1.623" cy="1.623" r="1.623" transform="translate(5215.229 43.977)" fill="#004385"/><circle cx="1.623" cy="1.623" r="1.623" transform="translate(5209.462 40.189)" fill="#37b24a"/><circle cx="1.623" cy="1.623" r="1.623" transform="translate(5223.012 37.521)" fill="#eb0c6e"/><circle cx="1.623" cy="1.623" r="1.623" transform="translate(5228.717 60.064)" fill="#eb0c6e"/><circle cx="1.623" cy="1.623" r="1.623" transform="translate(5233.718 52.993)" fill="#eb0c6e"/><circle cx="1.623" cy="1.623" r="1.623" transform="translate(5234.822 45.233)" fill="#eb0c6e"/><circle cx="1.623" cy="1.623" r="1.623" transform="translate(5226.553 50.791)" fill="#eb0c6e"/><circle cx="1.623" cy="1.623" r="1.623" transform="translate(5218.982 54.884)" fill="#eb0c6e"/><circle cx="1.623" cy="1.623" r="1.623" transform="translate(5222.026 44.203)" fill="#eb0c6e"/><circle cx="1.623" cy="1.623" r="1.623" transform="translate(5210.289 35.132)" fill="#eb1e27"/><circle cx="1.623" cy="1.623" r="1.623" transform="translate(5196.448 38.025)" fill="#37b24a"/><circle cx="1.623" cy="1.623" r="1.623" transform="translate(5194.676 44.068)" fill="#37b24a"/><path d="M5224.815,39.2" fill="none" stroke="#004385" stroke-linejoin="round" stroke-width="0.495"/><path d="M5211.641,36.611" fill="#eb0c6e"/><path d="M5243.478,57.527" fill="none" stroke="#004385" stroke-linejoin="round" stroke-width="0.495"/><path d="M5236.225,46.833" fill="none" stroke="#004385" stroke-linejoin="round" stroke-width="0.495"/><path d="M5236.037,47.019a34.271,34.271,0,0,0-11.323-7.573l.2-.489a34.8,34.8,0,0,1,11.5,7.69Z" fill="#eb0c6e"/><path d="M5036.724,80.34l.263,5.168a11.547,11.547,0,0,1-4.774.963q-6.832,0-6.833-6.044V53.973h6.833V78.018a2.983,2.983,0,0,0,.591,2.125,2.28,2.28,0,0,0,1.686.591A8.406,8.406,0,0,0,5036.724,80.34Z" fill="#004890"/><path d="M5060.067,79.814l-.131,5.3A26.624,26.624,0,0,1,5051,86.471q-12.219,0-12.219-11.738,0-5.868,2.912-9.088t8.388-3.219q5.517,0,8.036,2.76a10.178,10.178,0,0,1,2.519,7.138,18.825,18.825,0,0,1-.438,3.9h-14.453a4.952,4.952,0,0,0,1.751,3.656A7.762,7.762,0,0,0,5052.14,81,27.767,27.767,0,0,0,5060.067,79.814Zm-6.219-7.621v-.438q0-4.159-3.766-4.161-4.032,0-4.293,4.6Z" fill="#004890"/><path d="M5082.053,85.989H5076.8l-.613-2.671a9.212,9.212,0,0,1-7.358,3.153,8.884,8.884,0,0,1-5.607-1.665,6.405,6.405,0,0,1,.679-10.1,14.8,14.8,0,0,1,7.468-1.642,38.2,38.2,0,0,1,3.854.263v-2.19q0-3.022-5.212-3.022a16.842,16.842,0,0,0-6.964,1.358l-.262-5.518a23.272,23.272,0,0,1,8.891-1.534q10.378,0,10.379,8.059Zm-6.832-5.781V77.1a27.6,27.6,0,0,0-3.022-.175q-4.424,0-4.424,2.672,0,2.322,3.067,2.321A5.93,5.93,0,0,0,5075.221,80.208Z" fill="#004890"/><path d="M5091.863,85.989h-6.832V62.908h5.168l.788,3.417a9.435,9.435,0,0,1,8.1-3.9l-.263,6.088a9.322,9.322,0,0,0-6.964,2.5Z" fill="#004890"/><path d="M5122.389,85.989h-6.832V72.543q0-4.2-3.416-4.2a5.724,5.724,0,0,0-4.6,2.233V85.989h-6.788V62.908h5.212l.656,3.066a9.047,9.047,0,0,1,7.621-3.548,7.876,7.876,0,0,1,6.022,2.256,9.065,9.065,0,0,1,2.124,6.46Z" fill="#004890"/><path d="M5132.725,56.6a3.618,3.618,0,0,1-.942,2.607,3.8,3.8,0,0,1-2.868.985q-3.812,0-3.811-3.592,0-3.548,3.811-3.547T5132.725,56.6Zm-.438,29.388H5125.5V62.908h6.789Z" fill="#004890"/><path d="M5157.032,85.989H5150.2V72.543q0-4.2-3.416-4.2a5.724,5.724,0,0,0-4.6,2.233V85.989H5135.4V62.908h5.212l.656,3.066a9.047,9.047,0,0,1,7.621-3.548,7.876,7.876,0,0,1,6.022,2.256,9.07,9.07,0,0,1,2.124,6.46Z" fill="#004890"/><path d="M5182.609,68.032l-3.766.088a3.84,3.84,0,0,1,.569,2.058,6.634,6.634,0,0,1-2.65,5.629q-2.651,1.992-7.818,1.992a13.712,13.712,0,0,1-1.927-.131,1.019,1.019,0,0,0-.744.963q0,.965,1.708,1.008l5.518.306q8.32.525,8.322,6.7a7.664,7.664,0,0,1-3.219,6.219q-3.219,2.541-9.526,2.541-5.257,0-8.1-1.577a4.9,4.9,0,0,1-2.847-4.468q0-3.416,4.03-5.343a3.27,3.27,0,0,1-1.883-3.065,4.255,4.255,0,0,1,.744-2.365,4.85,4.85,0,0,1,2.058-1.752q-4.116-1.665-4.117-6.439a6.859,6.859,0,0,1,2.782-6,12.762,12.762,0,0,1,7.511-1.971,13.828,13.828,0,0,1,6.263,1.227l6.788-.832Zm-11.124,16.863-4.643-.132a3.679,3.679,0,0,0-1.927,3.11A2.529,2.529,0,0,0,5166.12,90a6.16,6.16,0,0,0,3.569.854,7.968,7.968,0,0,0,4.117-.942,2.811,2.811,0,0,0,1.576-2.474Q5175.382,85.113,5171.485,84.895Zm1.62-14.629q0-3.285-3.942-3.285t-3.941,3.329q0,3.153,3.854,3.153Q5173.1,73.463,5173.1,70.266Z" fill="#004890"/><path d="M5199.19,104.29a45.923,45.923,0,0,1-12.051-7.933l.356-.39a45.4,45.4,0,0,0,11.913,7.841Z" fill="#28a9e0"/><rect width="6.788" height="23.081" transform="translate(5241.959 62.908)" fill="#004890"/><path d="M5289.172,85.989h-6.788V72.237q0-3.854-3.329-3.854a4.965,4.965,0,0,0-4.205,2.146v15.46h-6.832V72.237q0-3.9-3.285-3.9a5.084,5.084,0,0,0-4.292,2.19v15.46h-6.832V62.908h5.212l.657,3.066a8.62,8.62,0,0,1,7.489-3.548q4.992,0,6.789,3.548a9.041,9.041,0,0,1,7.576-3.5,7.722,7.722,0,0,1,5.782,2.1q2.058,2.1,2.058,6.175Z" fill="#004890"/><path d="M5292.15,62.864h5.212l.613,2.891a8.965,8.965,0,0,1,7.227-3.372,8.1,8.1,0,0,1,6.744,3.131q2.454,3.132,2.453,8.694,0,5.87-2.978,9.066t-8.366,3.2a16.905,16.905,0,0,1-4.291-.526l.175,2.322V94.88h-6.789Zm6.789,7.577v9.9a8.232,8.232,0,0,0,3.066.481q5.606,0,5.6-6.569,0-6.132-4.2-6.132A5.776,5.776,0,0,0,5298.939,70.441Z" fill="#004890"/><path d="M5336.341,85.989h-5.256l-.613-2.671a9.211,9.211,0,0,1-7.358,3.153,8.881,8.881,0,0,1-5.606-1.665,6.4,6.4,0,0,1,.679-10.1,14.793,14.793,0,0,1,7.468-1.642,38.2,38.2,0,0,1,3.854.263v-2.19q0-3.022-5.212-3.022a16.842,16.842,0,0,0-6.964,1.358l-.263-5.518a23.275,23.275,0,0,1,8.891-1.534q10.38,0,10.38,8.059Zm-6.832-5.781V77.1a27.6,27.6,0,0,0-3.023-.175q-4.423,0-4.423,2.672,0,2.322,3.066,2.321A5.929,5.929,0,0,0,5329.509,80.208Z" fill="#004890"/><path d="M5356.618,79.814l.263,5.781a25.571,25.571,0,0,1-6.7.876q-5.695,0-8.759-3.066t-3.066-8.978q0-5.913,3.066-8.957t8.759-3.044a25.571,25.571,0,0,1,6.7.876l-.263,5.782a21.257,21.257,0,0,0-5.6-.789q-5.914,0-5.913,6.132t5.913,6.132A21.117,21.117,0,0,0,5356.618,79.814Z" fill="#004890"/><path d="M5374.357,79.726l.263,5.694a17.07,17.07,0,0,1-5.782,1.051q-7.27,0-7.27-7.8V68.295h-2.715V62.908h2.846l.789-5.65h5.912v5.65h5.869l-.219,5.387h-5.65v9.592q0,2.584,2.978,2.584A6.6,6.6,0,0,0,5374.357,79.726Z" fill="#004890"/><path d="M5249.185,56.6a3.621,3.621,0,0,1-.941,2.607,3.8,3.8,0,0,1-2.869.985q-3.812,0-3.81-3.592,0-3.548,3.81-3.547T5249.185,56.6Z" fill="#004890"/></g></svg>