<svg xmlns="http://www.w3.org/2000/svg" width="27.569" height="39.329" viewBox="0 0 27.569 39.329"><g transform="translate(-4732.725 -1008.554)"><path d="M4758.728,1035.267a.624.624,0,0,0-.171-.161,4.955,4.955,0,0,0,.438-3.2c-.205-.908-1.594-2.278-2.307-2.914a4.252,4.252,0,0,0-.486-4.751c-1.4-1.541-3.322-1.694-5.259-.432h0a3.862,3.862,0,0,0-1.38,1.553h-.049a3.413,3.413,0,0,1-1.554-.436,2.428,2.428,0,0,1-.358-1.264,3.026,3.026,0,0,0,1.239-.311,5.534,5.534,0,0,0,1.637-1.943,2.461,2.461,0,0,0,1.408-1.087,2.042,2.042,0,0,0,0-1.214,4.027,4.027,0,0,1-.108-1.457,12.456,12.456,0,0,0,.112-1.661c0-.787.028-1.214.28-1.485l0,0a1.543,1.543,0,0,0,.306-1.51c-.389-1.511-2.6-3.289-5.15-4.139a6.764,6.764,0,0,0-6.884,1.847,10.224,10.224,0,0,0-1.753,4.773c-.112.564-.214,1.093-.336,1.545h0a11.114,11.114,0,0,1-1.277,2.658,8.05,8.05,0,0,0-1.117,2.385,3.232,3.232,0,0,0,.558,2.539,4.859,4.859,0,0,0-2.607,1.506c-2.759,2.915,0,9.384,1.155,11.43a25.1,25.1,0,0,0,1.539,2.335c0,.021,4.762,5.121,6.626,6.355a.617.617,0,0,0,.32.091.607.607,0,0,0,.321-1.122,26.1,26.1,0,0,1-7.772-8.257c-1.646-2.865-3.21-8.02-1.33-9.991,1.943-2.049,4.091-1.137,6.353-.165l.436.184c.569.243,1.074.485,1.507.666a.607.607,0,1,0,.485-1.1l-.865-.389c.529-.563,1.186-1.419,1.1-2.092h0a17.427,17.427,0,0,1,0-1.943,7.718,7.718,0,0,0,2.52,1.373,3.459,3.459,0,0,0,.8,2.336,4.156,4.156,0,0,0,2.045.706,5.834,5.834,0,0,0,2.4,5.774l-.165.626-.248-.084c-.607-.214-1.385-.486-1.4-.486v0a1.89,1.89,0,0,0-1.66.258,1.79,1.79,0,0,0-.685,2.031c.258.8,1.4,1.544,2.133,1.942a6.553,6.553,0,0,1-.623,1.264,7.1,7.1,0,0,1-2.151,1.909c-.355-.336-.71-.685-1.049-1.055-2.376-2.565-4.11-7.738-4.123-7.772h0a.609.609,0,0,0-1.156.384c.072.224,1.837,5.474,4.372,8.232v0a27.8,27.8,0,0,0,10.026,6.645.608.608,0,0,0,.2.038h.059a.611.611,0,0,0,.227-.044,8.789,8.789,0,0,0,4.858-5.552c.635-2.335-1.38-5.24-1.443-5.362Zm-20.528-10.71a.69.69,0,0,0-.122-.118,2.165,2.165,0,0,1-.9-2.171,7.286,7.286,0,0,1,.972-1.977,12.234,12.234,0,0,0,1.379-2.933c.137-.486.243-1.049.355-1.632a9.633,9.633,0,0,1,1.491-4.225,5.492,5.492,0,0,1,5.571-1.457c2.3.766,4.11,2.316,4.371,3.288.063.252,0,.336-.049.374a.662.662,0,0,0-.1.127l0,0a14.738,14.738,0,0,1-2.152.772,2.506,2.506,0,0,1-2.03-.427,3.66,3.66,0,0,0-1.622-.582c-1.685-.112-2.05,2.715-2.332,4.773-.05.34-.088.642-.131.875a26.713,26.713,0,0,0-.268,4.916,4.251,4.251,0,0,1-1.1,1.457,13.088,13.088,0,0,0-3.332-1.058Zm5.878-5.144c.044-.249.087-.564.137-.918.485-3.488.928-3.727,1.055-3.731h0a2.566,2.566,0,0,1,1.1.427,3.669,3.669,0,0,0,2.88.56,10.372,10.372,0,0,0,1.42-.452v.655a13.116,13.116,0,0,1-.1,1.51,5.088,5.088,0,0,0,.118,1.862,3.045,3.045,0,0,1,.081.485,2.255,2.255,0,0,1-.9.486.6.6,0,0,0-.349.3,5.164,5.164,0,0,1-1.226,1.641c-1.457.729-3.488-.812-4.372-1.647.044-.43.093-.838.152-1.174Zm4.512,14.877a.619.619,0,0,1,0-.2.588.588,0,0,1,.262-.486.681.681,0,0,1,.582-.1s.763.258,1.365.486h0a4.475,4.475,0,0,0,1.016.271,8.711,8.711,0,0,0,1.762.224,2.8,2.8,0,0,0,.7-.072.607.607,0,0,0-.3-1.176,3.933,3.933,0,0,1-1.342-.053l.253-.972v-.087h.385a6.367,6.367,0,0,0,1.685-.486.612.612,0,0,0-.539-1.1,4.9,4.9,0,0,1-1.308.385,2.13,2.13,0,0,1-1.557-.385.324.324,0,0,0-.059-.029,4.03,4.03,0,0,1-.972-1.554c-.485-2.049-.14-3.4,1.069-4.166,1.457-.934,2.709-.85,3.7.233,1.408,1.545.15,3.668.1,3.759a.6.6,0,0,0,.122.772,9.357,9.357,0,0,1,2.278,2.609,4.366,4.366,0,0,1-.757,3.142h0a3.578,3.578,0,0,1-2.914,1.364,9.438,9.438,0,0,1-3.5-.859h-.034a5.753,5.753,0,0,1-2-1.526Zm1.364,4.275a7.491,7.491,0,0,0,.716-1.423,10.726,10.726,0,0,0,3.434.744,4.753,4.753,0,0,0,3.783-1.672.124.124,0,0,1,0,.038.576.576,0,0,0-.218.254,6.579,6.579,0,0,1-2.579,2.915,8.28,8.28,0,0,1-6.678.734l0,0a7.255,7.255,0,0,0,1.55-1.588Zm9.039,1.753h0a7.663,7.663,0,0,1-3.945,4.658,28.186,28.186,0,0,1-6.145-3.438,8.378,8.378,0,0,0,1.861.2,10.8,10.8,0,0,0,4.9-1.252,7.26,7.26,0,0,0,2.915-2.992,4.747,4.747,0,0,1,.423,2.821Z" fill="#404040"/><path d="M4748.59,1034.29a.619.619,0,0,1,0-.2.588.588,0,0,1,.262-.486.681.681,0,0,1,.582-.1s.763.258,1.365.486h0a4.475,4.475,0,0,0,1.016.271,8.711,8.711,0,0,0,1.762.224,2.8,2.8,0,0,0,.7-.072.607.607,0,0,0-.3-1.176,3.933,3.933,0,0,1-1.342-.053l.253-.972v-.087h.385a6.367,6.367,0,0,0,1.685-.486.612.612,0,0,0-.539-1.1,4.9,4.9,0,0,1-1.308.385,2.13,2.13,0,0,1-1.557-.385.324.324,0,0,0-.059-.029,4.03,4.03,0,0,1-.972-1.554c-.485-2.049-.14-3.4,1.069-4.166,1.457-.934,2.709-.85,3.7.233,1.408,1.545.15,3.668.1,3.759a.6.6,0,0,0,.122.772,9.357,9.357,0,0,1,2.278,2.609,4.366,4.366,0,0,1-.757,3.142h0a3.578,3.578,0,0,1-2.914,1.364,9.438,9.438,0,0,1-3.5-.859h-.034a5.753,5.753,0,0,1-2-1.526Z" fill="#f8a322"/><path d="M4749.954,1038.565a7.491,7.491,0,0,0,.716-1.423,10.726,10.726,0,0,0,3.434.744,4.753,4.753,0,0,0,3.783-1.672.124.124,0,0,1,0,.038.576.576,0,0,0-.218.254,6.579,6.579,0,0,1-2.579,2.915,8.28,8.28,0,0,1-6.678.734l0,0a7.255,7.255,0,0,0,1.55-1.588Z" fill="#f8a322"/><path d="M4743.873,1045.19s6.221,2.843,10.121.66l1.318.331s-3.064,3.8-12.08.04Z" fill="#404040"/></g></svg>