<svg xmlns="http://www.w3.org/2000/svg" width="139.643" height="33.655" viewBox="0 0 139.643 33.655"><g transform="translate(-5827.232 -3409.71)"><path d="M5876.791,3414.4c-1.349,0-2.239.491-2.239,1.472,0,3.559,11.319,1.534,11.319,9.265,0,4.386-3.865,6.625-8.65,6.625a16.162,16.162,0,0,1-9.909-3.435l2.179-4.387a13.724,13.724,0,0,0,7.791,3.252c1.657,0,2.7-.614,2.7-1.749,0-3.65-11.319-1.442-11.319-9.049,0-4.018,3.4-6.565,8.589-6.565a16.488,16.488,0,0,1,8.589,2.424l-2.116,4.448A16.714,16.714,0,0,0,5876.791,3414.4Z"/><path d="M5891.076,3414.98l3.313,11.227,3.251-11.227h5.215l3.282,11.227,3.313-11.227h5.338l-6.074,16.595h-5.4l-3.159-10.245-3.191,10.245h-5.4l-6.043-16.595Z"/><path d="M5930.17,3420.778v10.8H5924.8V3429.7a5.992,5.992,0,0,1-5,2.117c-3.558,0-5.675-2.147-5.675-5.184,0-3.16,2.239-4.97,6.35-5.031h4.325v-.184c0-1.565-1.074-2.485-3.16-2.485a12.149,12.149,0,0,0-4.969,1.319l-1.5-3.681a18.274,18.274,0,0,1,7.73-1.81C5927.471,3414.765,5930.139,3416.974,5930.17,3420.778Zm-5.368,5.184v-1.442h-3.252c-1.533,0-2.3.552-2.3,1.718,0,1.135.828,1.871,2.239,1.871A3.275,3.275,0,0,0,5924.8,3425.962Z"/><path d="M5938.753,3418.538c-.921,0-1.565.338-1.565,1.043,0,2.178,8.712,1.135,8.681,6.9,0,3.405-2.975,5.338-7.024,5.338a12.238,12.238,0,0,1-7.485-2.362l1.717-3.528a10.785,10.785,0,0,0,5.89,2.055c1.013,0,1.749-.337,1.749-1.012,0-2.27-8.559-1.135-8.559-6.871,0-3.467,2.915-5.369,6.81-5.369a13.475,13.475,0,0,1,6.9,1.933l-1.84,3.558A12.6,12.6,0,0,0,5938.753,3418.538Z"/><path d="M5959.426,3430.716a9.124,9.124,0,0,1-4.478,1.1c-3.221.03-5.552-1.871-5.552-5.307V3419.4h-2.3v-3.62h2.3v-4.6h5.429v4.6h4.295v3.62h-4.295v6.258c0,1.227.553,1.779,1.5,1.748a5.713,5.713,0,0,0,2.055-.552Z"/><path d="M5966.875,3414.98v16.595h-5.429V3414.98Z"/><circle cx="1.898" cy="1.898" r="1.898" transform="translate(5842.162 3409.71)"/><circle cx="1.898" cy="1.898" r="1.898" transform="translate(5842.162 3439.569)"/><circle cx="1.898" cy="1.898" r="1.898" transform="translate(5834.697 3411.71)"/><circle cx="1.894" cy="1.894" r="1.894" transform="translate(5849.63 3437.573)"/><circle cx="1.898" cy="1.898" r="1.898" transform="translate(5829.232 3417.175)"/><circle cx="1.898" cy="1.898" r="1.898" transform="translate(5855.091 3432.104)"/><circle cx="1.898" cy="1.898" r="1.898" transform="translate(5827.232 3424.639)"/><circle cx="1.898" cy="1.898" r="1.898" transform="translate(5857.091 3424.639)"/><circle cx="1.981" cy="1.981" r="1.981" transform="translate(5829.149 3432.021)"/><circle cx="1.898" cy="1.898" r="1.898" transform="translate(5855.091 3417.175)"/><circle cx="1.898" cy="1.898" r="1.898" transform="translate(5834.697 3437.569)"/><circle cx="1.898" cy="1.898" r="1.898" transform="translate(5849.626 3411.71)"/><circle cx="1.28" cy="1.28" r="1.28" transform="translate(5842.78 3417.033)"/><circle cx="1.312" cy="1.312" r="1.312" transform="translate(5842.748 3433.448)"/><circle cx="1.279" cy="1.279" r="1.279" transform="translate(5838.669 3418.136)"/><circle cx="1.312" cy="1.312" r="1.312" transform="translate(5846.859 3432.346)"/><circle cx="1.312" cy="1.312" r="1.312" transform="translate(5835.626 3421.113)"/><circle cx="1.312" cy="1.312" r="1.312" transform="translate(5849.869 3429.336)"/><circle cx="1.312" cy="1.312" r="1.312" transform="translate(5834.525 3425.224)"/><circle cx="1.312" cy="1.312" r="1.312" transform="translate(5850.971 3425.224)"/><circle cx="1.275" cy="1.275" r="1.275" transform="translate(5835.664 3429.373)"/><circle cx="1.312" cy="1.312" r="1.312" transform="translate(5849.869 3421.113)"/><circle cx="1.28" cy="1.28" r="1.28" transform="translate(5838.668 3432.378)"/><circle cx="1.275" cy="1.275" r="1.275" transform="translate(5846.896 3418.14)"/><circle cx="1.076" cy="1.076" r="1.076" transform="translate(5842.984 3423.108)"/><circle cx="1.076" cy="1.076" r="1.076" transform="translate(5842.984 3427.729)"/><circle cx="1.076" cy="1.076" r="1.076" transform="translate(5840.674 3425.419)"/><circle cx="1.076" cy="1.076" r="1.076" transform="translate(5845.294 3425.419)"/><path d="M5892.946,3437.143v5.731h-1.327v-2.349h-2.6v2.349h-1.326v-5.731h1.326v2.26h2.6v-2.26Z"/><path d="M5898.535,3441.81v1.064H5894.1v-5.731h4.332v1.064h-3.013v1.245h2.661v1.031h-2.661v1.327Z"/><path d="M5903.181,3441.646h-2.661l-.508,1.228h-1.359l2.555-5.731h1.31l2.563,5.731h-1.392Zm-.417-1.007-.909-2.194-.909,2.194Z"/><path d="M5905.677,3437.143H5907v4.651h2.874v1.08h-4.2Z"/><path d="M5910.952,3438.224h-1.834v-1.081h4.994v1.081h-1.834v4.65h-1.326Z"/><path d="M5920.081,3437.143v5.731h-1.327v-2.349h-2.6v2.349h-1.326v-5.731h1.326v2.26h2.6v-2.26Z"/><path d="M5869.152,3438.224h-1.835v-1.081h5v1.081h-1.834v4.65h-1.326Z"/><path d="M5878.281,3437.143v5.731h-1.327v-2.349h-2.6v2.349h-1.326v-5.731h1.326v2.26h2.6v-2.26Z"/><path d="M5924.112,3440.009a3.156,3.156,0,0,1,5.469-1.949l-.851.786a1.845,1.845,0,0,0-1.441-.672,1.834,1.834,0,0,0,0,3.669,1.825,1.825,0,0,0,1.441-.68l.851.786a3.15,3.15,0,0,1-5.469-1.94Z"/><path d="M5934.133,3441.646h-2.661l-.508,1.228H5929.6l2.555-5.731h1.31l2.563,5.731h-1.392Zm-.418-1.007-.908-2.194-.909,2.194Z"/><path d="M5937.531,3438.224H5935.7v-1.081h5v1.081h-1.834v4.65h-1.326Z"/><path d="M5944.891,3441.646h-2.661l-.508,1.228h-1.359l2.554-5.731h1.311l2.562,5.731H5945.4Zm-.418-1.007-.909-2.194-.908,2.194Z"/><path d="M5947.387,3437.143h1.326v4.651h2.875v1.08h-4.2Z"/><path d="M5954.494,3440.844v2.03h-1.327v-2.047l-2.219-3.684h1.409l1.531,2.546,1.531-2.546h1.3Z"/><path d="M5956.7,3442.31l.45-1a3.374,3.374,0,0,0,1.892.6c.785,0,1.1-.262,1.1-.614,0-1.072-3.333-.336-3.333-2.464,0-.975.786-1.785,2.416-1.785a3.851,3.851,0,0,1,1.989.507l-.409,1.007a3.246,3.246,0,0,0-1.588-.45c-.787,0-1.089.3-1.089.655,0,1.056,3.332.327,3.332,2.432,0,.958-.794,1.777-2.432,1.777A4.082,4.082,0,0,1,5956.7,3442.31Z"/><path d="M5963.483,3438.224h-1.835v-1.081h5v1.081h-1.834v4.65h-1.326Z"/><path d="M5883.661,3441.81v1.064h-4.438v-5.731h4.332v1.064h-3.014v1.245h2.662v1.031h-2.662v1.327Z"/></g></svg>