<svg xmlns="http://www.w3.org/2000/svg" xmlns:xlink="http://www.w3.org/1999/xlink" width="323.198" height="352.192" viewBox="0 0 323.198 352.192">
  <defs>
    <clipPath id="clip-path">
      <rect id="Rectangle_1262" data-name="Rectangle 1262" width="323.198" height="352.192" transform="translate(5838.802 0)" fill="none"/>
    </clipPath>
  </defs>
  <g id="Group_10788" data-name="Group 10788" transform="translate(-5838.802 0)">
    <g id="Group_10787" data-name="Group 10787" clip-path="url(#clip-path)">
      <g id="Group_10786" data-name="Group 10786">
        <g id="Group_10705" data-name="Group 10705">
          <path id="Path_13283" data-name="Path 13283" d="M6214.81,232.909l-3.33-2.017,26.548-43.82-27.709-33.6a1.949,1.949,0,0,1,1.31-3.178l141.194-14.145a252.312,252.312,0,0,0,17.722-92.447l-52.1-45-23.893,17.185,39.985,43.473a1.948,1.948,0,0,1-1.2,3.252L6208.694,77.343a1.948,1.948,0,0,1-1.364-3.516l81.381-58.535-38.57-41.934-68.118-37.783a1.943,1.943,0,0,1-.929-2.237l22.441-78.738a1.947,1.947,0,0,1,1.252-1.313,1.942,1.942,0,0,1,1.792.29l85.868,64.556,62.172,15.209-.928,3.784-62.561-15.3a2.022,2.022,0,0,1-.707-.335l-83.92-63.094-21.24,74.526L6252.3-29.9a1.958,1.958,0,0,1,.49.384L6291.9,13l25.521-18.356a1.949,1.949,0,0,1,2.409.107l53.94,46.589a1.952,1.952,0,0,1,.675,1.475A256.217,256.217,0,0,1,6356,138.7a1.95,1.95,0,0,1-1.614,1.212l-138.742,13.9,24.52,29.736,19.582-32.319a1.947,1.947,0,0,1,3.613,1.066l-1.748,58.015a1.948,1.948,0,0,1-3.45,1.182l-17.511-21.233Zm27.981-46.181,15.08,18.291,1.372-45.445ZM6291.366,18.18l-75.649,54.41,113.374-13.4Z" fill="#004890"/>
        </g>
        <g id="Group_10706" data-name="Group 10706">
          <path id="Path_13284" data-name="Path 13284" d="M6116.891,300.366a256.635,256.635,0,0,1-90.918-16.506,1.954,1.954,0,0,1-1.248-1.607l-6.755-60.87-134.915-76.16a1.947,1.947,0,0,1-.348-3.142l67.269-60.668,2.612,2.891-65.263,58.858,133.428,75.323a1.95,1.95,0,0,1,.979,1.48l6.733,60.67a252.681,252.681,0,0,0,87.7,15.835l39.263-34.373L6121.6,229.966a1.946,1.946,0,0,1,2.209-3.152l96.578,48.129,37.59-65.662a1.944,1.944,0,0,1,2.4-.841l34.474,13.607,14.762-98.322,3.852.577-15.124,100.745a1.946,1.946,0,0,1-2.641,1.52l-35.185-13.887-37.667,65.793a1.951,1.951,0,0,1-2.557.772L6133.709,236.1l25.949,24.647a1.947,1.947,0,0,1-.058,2.877l-41.425,36.263A1.946,1.946,0,0,1,6116.891,300.366Z" fill="#004890"/>
        </g>
        <g id="Group_10707" data-name="Group 10707">
          <path id="Path_13285" data-name="Path 13285" d="M6025.686,283.316a1.95,1.95,0,0,1-1.585-3.08l55.958-78.286L5984.1,190.087l.478-3.867,99.2,12.265a1.946,1.946,0,0,1,1.346,3.065l-55.207,77.235,128.113-18.556a1.83,1.83,0,0,1,.73.033l60.906,14.521a252.941,252.941,0,0,0,74.6-50.65L6259.838,75.385a1.948,1.948,0,0,1,3.265-1.826l43.315,42.675-37.025-95,3.628-1.414,40.333,103.486a1.948,1.948,0,0,1-3.182,2.1l-45.027-44.362,33.168,143.279a1.944,1.944,0,0,1-.529,1.825,256.829,256.829,0,0,1-77.14,52.468,1.928,1.928,0,0,1-1.237.112l-61.182-14.587-132.259,19.158A1.924,1.924,0,0,1,6025.686,283.316Z" fill="#004890"/>
        </g>
        <g id="Group_10708" data-name="Group 10708">
          <path id="Path_13286" data-name="Path 13286" d="M5935.987,224.677l-42.422-131.1a1.939,1.939,0,0,1,.126-1.5l28.692-55.234,40.428-73.995,15.711-56.132L5935.9-137.722a1.944,1.944,0,0,1,.036-2.733,256.814,256.814,0,0,1,78.232-52.977,1.94,1.94,0,0,1,2.108.364l47.831,44.919,47.694-27.986a1.943,1.943,0,0,1,2.057.052l42.06,27.623,47.864,1.591,8.3-47.162a1.945,1.945,0,0,1,1.509-1.565,1.93,1.93,0,0,1,2.017.8L6293.2-81.167l-3.214,2.195-74.9-109.674-7.764,44.117a1.919,1.919,0,0,1-1.984,1.609l-50.1-1.665a1.967,1.967,0,0,1-1.005-.319l-41.5-27.261-47.908,28.111a1.94,1.94,0,0,1-2.318-.259l-47.955-45.035a252.917,252.917,0,0,0-74.506,50.32l42.06,43.851a1.944,1.944,0,0,1,.471,1.872L5966.5-35.889a1.855,1.855,0,0,1-.167.409l-40.514,74.155-28.3,54.475,42.173,130.33Z" fill="#004890"/>
        </g>
        <g id="Group_10709" data-name="Group 10709">
          <path id="Path_13287" data-name="Path 13287" d="M6071.182,261.383a1.907,1.907,0,0,1-.5-.066L5935.8,225.581a1.939,1.939,0,0,1-.877-.5,256.9,256.9,0,0,1-53.959-78.805,1.946,1.946,0,0,1,1.966-2.721l65.713,6.236L5894.033,94.34l-34.357-50.429a1.949,1.949,0,0,1,.123-2.352l48.846-57.824,15.966-65.876a1.949,1.949,0,0,1,1.469-1.442l53.868-12.075,82.857-51.728,2.061,3.305-83.137,51.9a1.934,1.934,0,0,1-.606.248l-53.012,11.883L5912.323-14.9a1.96,1.96,0,0,1-.406.8l-48.189,57.046,33.3,48.936,55.845,56.66,38.958,35.649,47.745-12.457,9.457-20.631a1.954,1.954,0,0,1,1.611-1.129,1.915,1.915,0,0,1,1.774.853l10.078,14.928,60.271-15.722a1.945,1.945,0,0,1,2,3.116l-39.717,48.506a1.687,1.687,0,0,1-1.6.711,1.949,1.949,0,0,1-1.524-.856l-21.12-31.289-18.462,4.814-17.884,39.012,6.083,5.569,92.536,7a1.946,1.946,0,0,1,1.049,3.479l-39.8,30.88-2.387-3.077,35.8-27.781-82.549-6.243L6072.5,258a1.948,1.948,0,0,1-1.313,3.385ZM5942.125,223.23l121.9,32.294L6028.911,223.4l-9.791-.744a1.947,1.947,0,0,1-1.625-2.753l2.245-4.9-28.971-26.511-5.554,1.447Zm-56.24-75.49a252.972,252.972,0,0,0,50.519,73.306l12.03-67.367Zm66.554,5.674-11.794,66.036,42.506-32.838a1.939,1.939,0,0,1,.7-.341l3.5-.915Zm69.761,65.568,2.061.156-1.5-1.375Zm-26.943-31.663,26.188,23.965L6037.48,176.3Zm69.547-18.146,18.89,27.988,34.271-41.853Zm-13.673-13.3-6.686,14.587,14.054-3.668Z" fill="#004890"/>
        </g>
        <g id="Group_10710" data-name="Group 10710">
          <path id="Path_13288" data-name="Path 13288" d="M5950.491,84.638l-90-40.043a1.948,1.948,0,0,1-1.157-1.779A256.416,256.416,0,0,1,5876.9-50.838a1.936,1.936,0,0,1,2.122-1.213l53.139,8.483,47.106-51.575a1.947,1.947,0,0,1,2.34-.412l40.413,21.208-19.278-68.1-74.988,62.266a1.956,1.956,0,0,1-2.257.167,1.955,1.955,0,0,1-.892-2.077l11.968-55.254,3.809.824L5929.6-86.786l72.95-60.573a1.934,1.934,0,0,1,1.821-.361,1.946,1.946,0,0,1,1.3,1.33L6027-71.046A1.95,1.95,0,0,1,6026.35-69a1.944,1.944,0,0,1-2.129.212l-43.1-22.617L5936.76-42.833l28.173,4.5a1.95,1.95,0,0,1,1.473,1.135L5988.64,13.15a1.95,1.95,0,0,1-1.092,2.608l-62.749,23.8a1.947,1.947,0,0,1-2.594-1.415l-12.04-56.426a1.948,1.948,0,0,1,.468-1.719l18.382-20.129-49.058-7.83a252.444,252.444,0,0,0-16.72,89.509l88.835,39.527Zm-36.306-102.75,11.354,53.226,58.708-22.269-20.976-47.5-29.653-4.734Z" fill="#004890"/>
        </g>
        <g id="Group_10711" data-name="Group 10711">
          <path id="Path_13289" data-name="Path 13289" d="M6271.207,22.475a1.959,1.959,0,0,1-.762-.156L6217.437-.169l1.523-3.584L6269.7,17.772l24.923-146.348L6213.45-4.814a1.959,1.959,0,0,1-2.144.81,1.945,1.945,0,0,1-1.429-1.79l-6.222-134.822-78.05,71.58-2.634-2.87L6204.09-146.3a1.947,1.947,0,0,1,2.061-.365,1.943,1.943,0,0,1,1.2,1.711l6.138,132.978,82.991-126.532a1.943,1.943,0,0,1,2.34-.743,1.942,1.942,0,0,1,1.208,2.138l-26.9,157.968a1.944,1.944,0,0,1-1.919,1.621Z" fill="#004890"/>
        </g>
        <g id="Group_10712" data-name="Group 10712">
          <path id="Path_13290" data-name="Path 13290" d="M6053.852,76.223l-2.939-2.553,70.2-80.83,59.611-59.487L6153.462-145.9a1.949,1.949,0,0,1,.624-2.152l56.106-45.081a252.2,252.2,0,0,0-92.362-17.707l-52.467,66.313a1.946,1.946,0,0,1-1.528.74h0l-58.769-.125L5982.48-93.039l-3.562-1.582,23.1-52.03a1.949,1.949,0,0,1,1.782-1.157h0l59.1.125L6115.364-214a1.946,1.946,0,0,1,1.527-.74,256.084,256.084,0,0,1,97.85,19.241,1.944,1.944,0,0,1,1.187,1.524,1.952,1.952,0,0,1-.708,1.8l-57.63,46.3,27.219,79.11a1.947,1.947,0,0,1-.468,2.011L6123.961-4.5Z" fill="#004890"/>
        </g>
        <g id="Group_10713" data-name="Group 10713">
          <path id="Path_13291" data-name="Path 13291" d="M6318.552-1.825a.269.269,0,0,1-.04,0l-106.731-2.11a1.938,1.938,0,0,1-1.117-.379L6123.131-68.9l2.314-3.134,87.033,64.22,103.3,2.042-24.836-70.281L6252.9-27a1.927,1.927,0,0,1-2,.7,1.955,1.955,0,0,1-1.455-1.539l-12.5-67.7L6203.8-143.763a1.948,1.948,0,0,1-.076-2.092,1.982,1.982,0,0,1,1.864-.95l94.785,9.111-.37,3.878-90.631-8.712L6240.382-97.4a1.948,1.948,0,0,1,.312.749l11.79,63.834,37.573-48.441a1.951,1.951,0,0,1,1.85-.729,1.947,1.947,0,0,1,1.523,1.273l26.958,76.3a1.949,1.949,0,0,1-.258,1.791A1.95,1.95,0,0,1,6318.552-1.825Z" fill="#004890"/>
        </g>
        <g id="Group_10714" data-name="Group 10714">
          <rect id="Rectangle_1259" data-name="Rectangle 1259" width="64.013" height="3.896" transform="translate(6316.888 -4.776) rotate(-58.945)" fill="#004890"/>
        </g>
        <g id="Group_10715" data-name="Group 10715">
          <path id="Path_13292" data-name="Path 13292" d="M6349.794-57.834a253.01,253.01,0,0,0-53.066-78.233l2.764-2.746a256.9,256.9,0,0,1,53.879,79.434Z" fill="#004890"/>
        </g>
        <g id="Group_10716" data-name="Group 10716">
          <circle id="Ellipse_2681" data-name="Ellipse 2681" cx="11.961" cy="11.961" r="11.961" transform="translate(6051.873 -157.694)" fill="#004890"/>
        </g>
        <g id="Group_10717" data-name="Group 10717">
          <circle id="Ellipse_2682" data-name="Ellipse 2682" cx="11.961" cy="11.961" r="11.961" transform="translate(6013.165 -82.477)" fill="#004890"/>
        </g>
        <g id="Group_10718" data-name="Group 10718">
          <circle id="Ellipse_2683" data-name="Ellipse 2683" cx="11.961" cy="11.961" r="11.961" transform="translate(5968.739 -105.79)" fill="#004890"/>
        </g>
        <g id="Group_10719" data-name="Group 10719">
          <circle id="Ellipse_2684" data-name="Ellipse 2684" cx="11.961" cy="11.961" r="11.961" transform="translate(5926.512 -148.897)" fill="#004890"/>
        </g>
        <g id="Group_10720" data-name="Group 10720">
          <circle id="Ellipse_2685" data-name="Ellipse 2685" cx="11.961" cy="11.961" r="11.961" transform="translate(5914.545 -93.643)" fill="#004890"/>
        </g>
        <g id="Group_10721" data-name="Group 10721">
          <circle id="Ellipse_2686" data-name="Ellipse 2686" cx="11.961" cy="11.961" r="11.961" transform="translate(5869.77 -61.804)" fill="#004890"/>
        </g>
        <g id="Group_10722" data-name="Group 10722">
          <circle id="Ellipse_2687" data-name="Ellipse 2687" cx="11.961" cy="11.961" r="11.961" transform="translate(5952.666 -48.374)" fill="#004890"/>
        </g>
        <g id="Group_10723" data-name="Group 10723">
          <circle id="Ellipse_2688" data-name="Ellipse 2688" cx="11.961" cy="11.961" r="11.961" transform="translate(5974.897 1.977)" fill="#004890"/>
        </g>
        <g id="Group_10724" data-name="Group 10724">
          <circle id="Ellipse_2689" data-name="Ellipse 2689" cx="11.961" cy="11.961" r="11.961" transform="translate(5899.378 -27.413)" fill="#004890"/>
        </g>
        <g id="Group_10725" data-name="Group 10725">
          <circle id="Ellipse_2690" data-name="Ellipse 2690" cx="11.961" cy="11.961" r="11.961" transform="translate(5851.786 31.31)" fill="#004890"/>
        </g>
        <g id="Group_10726" data-name="Group 10726">
          <circle id="Ellipse_2691" data-name="Ellipse 2691" cx="11.961" cy="11.961" r="11.961" transform="translate(5912.148 25.78)" fill="#004890"/>
        </g>
        <g id="Group_10727" data-name="Group 10727">
          <circle id="Ellipse_2692" data-name="Ellipse 2692" cx="11.961" cy="11.961" r="11.961" transform="translate(5939.319 70.897)" fill="#004890"/>
        </g>
        <g id="Group_10728" data-name="Group 10728">
          <circle id="Ellipse_2693" data-name="Ellipse 2693" cx="11.961" cy="11.961" r="11.961" transform="translate(5883.457 81.014)" fill="#004890"/>
        </g>
        <g id="Group_10729" data-name="Group 10729">
          <circle id="Ellipse_2694" data-name="Ellipse 2694" cx="11.961" cy="11.961" r="11.961" transform="translate(5872.9 134.238)" fill="#004890"/>
        </g>
        <g id="Group_10730" data-name="Group 10730">
          <circle id="Ellipse_2695" data-name="Ellipse 2695" cx="11.961" cy="11.961" r="11.961" transform="translate(5972.379 176.192)" fill="#004890"/>
        </g>
        <g id="Group_10731" data-name="Group 10731">
          <circle id="Ellipse_2696" data-name="Ellipse 2696" cx="11.961" cy="11.961" r="11.961" transform="translate(5938.761 139.982)" fill="#004890"/>
        </g>
        <g id="Group_10732" data-name="Group 10732">
          <circle id="Ellipse_2697" data-name="Ellipse 2697" cx="11.961" cy="11.961" r="11.961" transform="translate(5925.88 212.117)" fill="#004890"/>
        </g>
        <g id="Group_10733" data-name="Group 10733">
          <circle id="Ellipse_2698" data-name="Ellipse 2698" cx="11.961" cy="11.961" r="11.961" transform="translate(6010.418 210.603)" fill="#004890"/>
        </g>
        <g id="Group_10734" data-name="Group 10734">
          <circle id="Ellipse_2699" data-name="Ellipse 2699" cx="11.961" cy="11.961" r="11.961" transform="translate(6038.843 139.952)" fill="#004890"/>
        </g>
        <g id="Group_10735" data-name="Group 10735">
          <circle id="Ellipse_2700" data-name="Ellipse 2700" cx="11.961" cy="11.961" r="11.961" transform="translate(6111.3 139.952)" fill="#004890"/>
        </g>
        <g id="Group_10736" data-name="Group 10736">
          <circle id="Ellipse_2701" data-name="Ellipse 2701" cx="11.961" cy="11.961" r="11.961" transform="translate(6071.585 188.46)" fill="#004890"/>
        </g>
        <g id="Group_10737" data-name="Group 10737">
          <circle id="Ellipse_2702" data-name="Ellipse 2702" cx="11.961" cy="11.961" r="11.961" transform="translate(6071.182 247.474)" fill="#004890"/>
        </g>
        <g id="Group_10738" data-name="Group 10738">
          <circle id="Ellipse_2703" data-name="Ellipse 2703" cx="11.961" cy="11.961" r="11.961" transform="translate(6013.725 269.408)" fill="#004890"/>
        </g>
        <g id="Group_10739" data-name="Group 10739">
          <circle id="Ellipse_2704" data-name="Ellipse 2704" cx="11.961" cy="11.961" r="11.961" transform="translate(6110.979 216.595)" fill="#004890"/>
        </g>
        <g id="Group_10740" data-name="Group 10740">
          <circle id="Ellipse_2705" data-name="Ellipse 2705" cx="11.961" cy="11.961" r="11.961" transform="translate(6107.436 286.798)" fill="#004890"/>
        </g>
        <g id="Group_10741" data-name="Group 10741">
          <circle id="Ellipse_2706" data-name="Ellipse 2706" cx="11.961" cy="11.961" r="11.961" transform="translate(6150.684 250.843)" fill="#004890"/>
        </g>
        <g id="Group_10742" data-name="Group 10742">
          <circle id="Ellipse_2707" data-name="Ellipse 2707" cx="11.961" cy="11.961" r="11.961" transform="translate(6209.198 265.544)" fill="#004890"/>
        </g>
        <g id="Group_10743" data-name="Group 10743">
          <circle id="Ellipse_2708" data-name="Ellipse 2708" cx="11.961" cy="11.961" r="11.961" transform="translate(6200.181 216.917)" fill="#004890"/>
        </g>
        <g id="Group_10744" data-name="Group 10744">
          <circle id="Ellipse_2709" data-name="Ellipse 2709" cx="11.961" cy="11.961" r="11.961" transform="translate(6199.859 140.274)" fill="#004890"/>
        </g>
        <g id="Group_10745" data-name="Group 10745">
          <circle id="Ellipse_2710" data-name="Ellipse 2710" cx="11.961" cy="11.961" r="11.961" transform="translate(6249.452 140.274)" fill="#004890"/>
        </g>
        <g id="Group_10746" data-name="Group 10746">
          <circle id="Ellipse_2711" data-name="Ellipse 2711" cx="11.961" cy="11.961" r="11.961" transform="translate(6247.703 198.291)" fill="#004890"/>
        </g>
        <g id="Group_10747" data-name="Group 10747">
          <circle id="Ellipse_2712" data-name="Ellipse 2712" cx="11.961" cy="11.961" r="11.961" transform="translate(6287.774 212.087)" fill="#004890"/>
        </g>
        <g id="Group_10748" data-name="Group 10748">
          <circle id="Ellipse_2713" data-name="Ellipse 2713" cx="11.961" cy="11.961" r="11.961" transform="translate(6344.773 124.816)" fill="#004890"/>
        </g>
        <g id="Group_10749" data-name="Group 10749">
          <circle id="Ellipse_2714" data-name="Ellipse 2714" cx="11.961" cy="11.961" r="11.961" transform="translate(6299.581 112.052)" fill="#004890"/>
        </g>
        <g id="Group_10750" data-name="Group 10750">
          <circle id="Ellipse_2715" data-name="Ellipse 2715" cx="11.961" cy="11.961" r="11.961" transform="translate(6200.181 62.986)" fill="#004890"/>
        </g>
        <g id="Group_10751" data-name="Group 10751">
          <circle id="Ellipse_2716" data-name="Ellipse 2716" cx="11.961" cy="11.961" r="11.961" transform="translate(6110.959 62.986)" fill="#004890"/>
        </g>
        <g id="Group_10752" data-name="Group 10752">
          <circle id="Ellipse_2717" data-name="Ellipse 2717" cx="11.961" cy="11.961" r="11.961" transform="translate(6040.422 62.986)" fill="#004890"/>
        </g>
        <g id="Group_10753" data-name="Group 10753">
          <circle id="Ellipse_2718" data-name="Ellipse 2718" cx="11.961" cy="11.961" r="11.961" transform="translate(6249.774 62.986)" fill="#004890"/>
        </g>
        <g id="Group_10754" data-name="Group 10754">
          <circle id="Ellipse_2719" data-name="Ellipse 2719" cx="11.961" cy="11.961" r="11.961" transform="translate(6321.141 48.72)" fill="#004890"/>
        </g>
        <g id="Group_10755" data-name="Group 10755">
          <circle id="Ellipse_2720" data-name="Ellipse 2720" cx="11.961" cy="11.961" r="11.961" transform="translate(6362.163 31.427)" fill="#004890"/>
        </g>
        <g id="Group_10756" data-name="Group 10756">
          <circle id="Ellipse_2721" data-name="Ellipse 2721" cx="11.961" cy="11.961" r="11.961" transform="translate(6259.248 8.567)" fill="#004890"/>
        </g>
        <g id="Group_10757" data-name="Group 10757">
          <circle id="Ellipse_2722" data-name="Ellipse 2722" cx="11.961" cy="11.961" r="11.961" transform="translate(6306.591 -15.734)" fill="#004890"/>
        </g>
        <g id="Group_10758" data-name="Group 10758">
          <circle id="Ellipse_2723" data-name="Ellipse 2723" cx="11.961" cy="11.961" r="11.961" transform="translate(6341.231 -70.657)" fill="#004890"/>
        </g>
        <g id="Group_10759" data-name="Group 10759">
          <circle id="Ellipse_2724" data-name="Ellipse 2724" cx="11.961" cy="11.961" r="11.961" transform="translate(6199.859 -17.844)" fill="#004890"/>
        </g>
        <g id="Group_10760" data-name="Group 10760">
          <circle id="Ellipse_2725" data-name="Ellipse 2725" cx="11.961" cy="11.961" r="11.961" transform="translate(6110.626 -17.844)" fill="#004890"/>
        </g>
        <g id="Group_10761" data-name="Group 10761">
          <circle id="Ellipse_2726" data-name="Ellipse 2726" cx="11.961" cy="11.961" r="11.961" transform="translate(6112.326 -82.432)" fill="#004890"/>
        </g>
        <g id="Group_10762" data-name="Group 10762">
          <circle id="Ellipse_2727" data-name="Ellipse 2727" cx="11.961" cy="11.961" r="11.961" transform="translate(6143.345 -158.492)" fill="#004890"/>
        </g>
        <g id="Group_10763" data-name="Group 10763">
          <circle id="Ellipse_2728" data-name="Ellipse 2728" cx="11.961" cy="11.961" r="11.961" transform="translate(6100.827 -186.416)" fill="#004890"/>
        </g>
        <g id="Group_10764" data-name="Group 10764">
          <circle id="Ellipse_2729" data-name="Ellipse 2729" cx="11.961" cy="11.961" r="11.961" transform="translate(6200.709 -206.083)" fill="#004890"/>
        </g>
        <g id="Group_10765" data-name="Group 10765">
          <circle id="Ellipse_2730" data-name="Ellipse 2730" cx="11.961" cy="11.961" r="11.961" transform="translate(6242.77 -39.907)" fill="#004890"/>
        </g>
        <g id="Group_10766" data-name="Group 10766">
          <circle id="Ellipse_2731" data-name="Ellipse 2731" cx="11.961" cy="11.961" r="11.961" transform="translate(6279.634 -92.03)" fill="#004890"/>
        </g>
        <g id="Group_10767" data-name="Group 10767">
          <circle id="Ellipse_2732" data-name="Ellipse 2732" cx="11.961" cy="11.961" r="11.961" transform="translate(6287.774 -149.233)" fill="#004890"/>
        </g>
        <g id="Group_10768" data-name="Group 10768">
          <circle id="Ellipse_2733" data-name="Ellipse 2733" cx="11.961" cy="11.961" r="11.961" transform="translate(6226.817 -108.262)" fill="#004890"/>
        </g>
        <g id="Group_10769" data-name="Group 10769">
          <circle id="Ellipse_2734" data-name="Ellipse 2734" cx="11.961" cy="11.961" r="11.961" transform="translate(6171.007 -78.089)" fill="#004890"/>
        </g>
        <g id="Group_10770" data-name="Group 10770">
          <circle id="Ellipse_2735" data-name="Ellipse 2735" cx="11.961" cy="11.961" r="11.961" transform="translate(6193.448 -156.827)" fill="#004890"/>
        </g>
        <g id="Group_10771" data-name="Group 10771">
          <circle id="Ellipse_2736" data-name="Ellipse 2736" cx="11.961" cy="11.961" r="11.961" transform="translate(6106.921 -223.694)" fill="#004890"/>
        </g>
        <g id="Group_10772" data-name="Group 10772">
          <circle id="Ellipse_2737" data-name="Ellipse 2737" cx="11.961" cy="11.961" r="11.961" transform="translate(6004.896 -202.366)" fill="#004890"/>
        </g>
        <g id="Group_10773" data-name="Group 10773">
          <circle id="Ellipse_2738" data-name="Ellipse 2738" cx="11.961" cy="11.961" r="11.961" transform="translate(5991.836 -157.822)" fill="#004890"/>
        </g>
        <g id="Group_10774" data-name="Group 10774">
          <path id="Path_13293" data-name="Path 13293" d="M6214-193.694" fill="#004890"/>
        </g>
        <g id="Group_10775" data-name="Group 10775">
          <path id="Path_13294" data-name="Path 13294" d="M6116.89-212.788" fill="#004890"/>
        </g>
        <g id="Group_10776" data-name="Group 10776">
          <path id="Path_13295" data-name="Path 13295" d="M6351.581-58.606" fill="#004890"/>
        </g>
        <g id="Group_10777" data-name="Group 10777">
          <path id="Path_13296" data-name="Path 13296" d="M6298.111-137.44" fill="#004890"/>
        </g>
        <g id="Group_10778" data-name="Group 10778">
          <path id="Path_13297" data-name="Path 13297" d="M6296.728-136.067a252.609,252.609,0,0,0-83.467-55.826l1.48-3.6a256.482,256.482,0,0,1,84.751,56.682Z" fill="#004890"/>
        </g>
        <g id="Group_10779" data-name="Group 10779">
          <path id="Path_13298" data-name="Path 13298" d="M6025.109,286.105a338.638,338.638,0,0,1-88.843-58.478l2.634-2.874a334.548,334.548,0,0,0,87.82,57.805Z" fill="#004890"/>
        </g>
        <path id="Path_13299" data-name="Path 13299" d="M6128.3,154.015l-75.939-.382-108.135.38,70.01-52.815-18.471-26.169-48.4,11.053L5986.083,10.6,6053.2,72.979h67.669l-.357-81.01h87.969l-26.9-56.126-57.211-4.186H6023.6l38.849-79.584h93.285l84.015,49.907-2.187,3.681-83-49.305H6065.12l-34.668,71.018h94.077l.078.006,59.766,4.373,30.913,64.5h-90.468l.328,74.516L6214,1.892l.385,74.287-49.744,37.762-2.589-3.411,48.04-36.468-.329-63.467-85.292,66.11L6090.617,113.3ZM6016.71,104.7l-59.633,44.987,91.163-.32Zm40.528,44.677,61.22.308L6087.7,116.452Zm-37.107-47.257,32.455,45.979,32.2-34.8L6052.106,78Zm37.131-24.856,30.437,32.884,30.426-32.884Zm-59.65-7.046,20.048,28.4,31.373-23.667-61.722-57.361-31.942,62.273Z" fill="#004890"/>
        <g id="Group_10780" data-name="Group 10780">
          <circle id="Ellipse_2739" data-name="Ellipse 2739" cx="11.961" cy="11.961" r="11.961" transform="translate(5984.896 60.683)" fill="#004890"/>
        </g>
        <g id="Group_10781" data-name="Group 10781">
          <circle id="Ellipse_2740" data-name="Ellipse 2740" cx="11.961" cy="11.961" r="11.961" transform="translate(6051.999 2.46)" fill="#004890"/>
        </g>
        <g id="Group_10782" data-name="Group 10782">
          <circle id="Ellipse_2741" data-name="Ellipse 2741" cx="11.961" cy="11.961" r="11.961" transform="translate(6086.636 -120.647)" fill="#004890"/>
        </g>
        <g id="Group_10783" data-name="Group 10783">
          <circle id="Ellipse_2742" data-name="Ellipse 2742" cx="11.961" cy="11.961" r="11.961" transform="translate(5999.573 -29.698)" fill="#004890"/>
        </g>
        <g id="Group_10784" data-name="Group 10784">
          <ellipse id="Ellipse_2743" data-name="Ellipse 2743" cx="11.961" cy="12.103" rx="11.961" ry="12.103" transform="translate(6151.564 100.102)" fill="#004890"/>
        </g>
        <g id="Group_10785" data-name="Group 10785">
          <ellipse id="Ellipse_2744" data-name="Ellipse 2744" cx="11.961" cy="12.103" rx="11.961" ry="12.103" transform="translate(6155.133 185.038)" fill="#004890"/>
        </g>
        <path id="Path_13300" data-name="Path 13300" d="M6119.114,235.854l41.807-36.308-77.428,2.977-.165-4.279,89.59-3.446L6131.3,230.941l78.789-4.041-.314-67.5-.067.1.024-5.16-91.536-.369,42.052-41.676-38.719-35.636-.04-.041-59.057-60.48-51.724-31.884-51.163-20.543,67.6-36.7,1.078.728L6123.991-7.58l.112.1,90.285,81.652-.327,70.739,45.99-70.957,3.594,2.329-49.615,76.549.363,78.134Zm9.448-86.126,81.193.328.342-73.989L6121.343-4.2,6026.9-67.983l-57.309,31.111,43.052,17.286.156.1,52.328,32.257.184.189,59.2,60.628,41.934,38.594Z" fill="#004890"/>
        <path id="Path_13301" data-name="Path 13301" d="M6067.049,16.608l-84.744-.392,27.433-34.88,16.889-58.129Zm-75.959-4.634,69.426.322-33.1-76.472-13.8,47.506Z" fill="#004890"/>
        <path id="Path_13302" data-name="Path 13302" d="M6028.138-70.994l-1.985-3.985,68.63-34.188L6059.073-147.2l97.67-.961-29.948,76.083-4.143-1.631,27.528-69.935-80.913.8,32.859,34.992Z" fill="#004890"/>
        <rect id="Rectangle_1260" data-name="Rectangle 1260" width="4.453" height="93.8" transform="translate(6097.492 -106.501) rotate(-64.408)" fill="#004890"/>
        <rect id="Rectangle_1261" data-name="Rectangle 1261" width="101.901" height="4.452" transform="matrix(0.588, -0.809, 0.809, 0.588, 6062.547, 13.114)" fill="#004890"/>
      </g>
    </g>
  </g>
</svg>
