<svg xmlns="http://www.w3.org/2000/svg" width="37.705" height="37.717" viewBox="0 0 37.705 37.717"><g transform="translate(-4730.15 -1103.182)"><path d="M4750.08,1139.435c-.249.015-.5.019-.745.024-.139,0-.279.01-.418.009s-.3-.009-.452-.014c-.234-.007-.468-.013-.7-.029l-.145-.014a17.506,17.506,0,0,1,1.434-34.956c.206,0,.412,0,.617.009.126.005.253.014.379.021.265.016.53.035.792.063l.207.024c.32.038.639.082.955.137l.03.006a17.512,17.512,0,0,1-.795,34.609c-.33.043-.66.073-.99.1Z" fill="#37b24a"/><path d="M4764.109,1122.052a15.086,15.086,0,1,1-4.419-10.667A15.081,15.081,0,0,1,4764.109,1122.052Z" fill="#fff"/><path d="M4758.075,1105.514l.014.008,0-.007Z" fill="#404040"/><path d="M4763.52,1134.075c.143-.173.279-.353.417-.531.1-.135.21-.267.309-.4.132-.181.256-.368.381-.554.1-.143.195-.283.287-.428.117-.184.226-.373.337-.561.091-.155.184-.308.271-.466.1-.183.194-.372.289-.559.086-.169.173-.337.254-.509.022-.046.047-.091.069-.138.064-.139.117-.281.177-.421.078-.18.157-.36.229-.542s.14-.375.207-.563.134-.373.195-.562.115-.376.169-.565.112-.386.162-.581.088-.375.13-.564.089-.4.127-.6.063-.374.093-.562c.032-.2.064-.409.09-.615.023-.186.039-.372.056-.559.02-.209.04-.417.052-.626.011-.187.016-.374.021-.562.006-.209.013-.418.013-.628,0-.19-.009-.378-.016-.567,0-.158,0-.314-.012-.471,0-.053-.011-.1-.014-.157-.013-.189-.034-.377-.052-.565-.02-.208-.038-.416-.066-.622-.024-.185-.056-.37-.086-.555-.033-.206-.065-.413-.1-.618-.036-.184-.08-.367-.122-.55-.046-.2-.089-.4-.141-.6s-.106-.37-.161-.554-.111-.388-.175-.579-.132-.373-.2-.559-.132-.37-.205-.552-.159-.37-.24-.555-.153-.356-.236-.53-.182-.362-.275-.541-.176-.346-.27-.516-.2-.348-.308-.522-.2-.337-.306-.5c-.027-.043-.051-.087-.079-.129-.083-.127-.174-.247-.26-.372-.112-.162-.222-.326-.34-.485s-.244-.319-.368-.477-.242-.309-.368-.46-.262-.3-.4-.45-.263-.3-.4-.439-.276-.28-.416-.419-.284-.28-.431-.416-.291-.261-.439-.389-.3-.264-.458-.391-.307-.241-.462-.359-.319-.245-.484-.363-.325-.224-.489-.333-.329-.222-.5-.327-.351-.209-.528-.312c-.121-.07-.238-.146-.361-.214l0,.006a18.907,18.907,0,0,0-3.892-1.6l0-.007c-.118-.034-.238-.059-.357-.09-.211-.056-.422-.112-.635-.16-.18-.042-.361-.077-.542-.113-.209-.041-.417-.082-.628-.116-.189-.031-.378-.056-.567-.081s-.406-.053-.61-.073-.4-.033-.6-.047-.391-.026-.588-.033-.416-.008-.625-.008c-.124,0-.247-.008-.371-.005v.007a18.891,18.891,0,0,0-4.173.541l0-.006c-.13.032-.255.073-.384.108-.214.057-.428.114-.64.179-.172.052-.341.112-.512.169-.205.07-.411.139-.615.216-.17.064-.337.134-.505.2-.2.081-.4.163-.594.251-.166.075-.328.156-.492.235-.192.094-.385.187-.574.288-.162.085-.32.176-.478.266-.186.1-.372.21-.555.322-.156.1-.308.2-.461.3-.178.116-.356.232-.53.355-.153.107-.3.22-.452.332-.167.126-.335.25-.5.381s-.3.247-.442.372c-.118.1-.239.194-.354.3-.038.034-.073.071-.111.106-.145.132-.284.27-.425.407s-.29.278-.43.422-.266.288-.4.433-.272.295-.4.448-.247.3-.369.455-.252.311-.371.47-.231.324-.345.486-.227.319-.334.483-.215.346-.322.52-.2.323-.294.488-.2.363-.292.546c-.088.168-.179.334-.262.5s-.171.372-.255.559-.159.349-.232.527-.147.376-.218.566-.139.367-.2.552c-.017.048-.037.094-.053.143-.047.143-.084.289-.128.434-.057.189-.116.377-.168.568s-.1.389-.144.585-.091.382-.13.574-.074.4-.108.595-.066.383-.093.576-.048.4-.07.6-.041.385-.056.579-.023.406-.032.609-.017.383-.019.575c0,.208,0,.416.006.624,0,.187.007.373.017.56.011.216.029.431.048.645.015.179.029.358.049.537.026.227.06.453.1.678.019.126.03.251.052.377.007.041.018.081.025.122.041.23.091.458.141.687.035.162.067.325.107.485.054.221.117.44.179.659.047.164.09.329.141.492.066.21.141.418.214.626.059.166.114.334.177.5.078.2.164.4.248.6.07.167.138.335.213.5.088.191.184.378.278.567.083.166.163.333.251.5.1.18.2.355.3.532s.191.335.293.5.211.323.318.484.227.345.347.513c.1.145.214.287.322.43.134.177.268.355.408.527.027.033.052.069.079.1.084.1.174.2.259.293.147.171.293.341.446.506.122.132.248.259.374.387.151.155.3.31.46.459.134.128.272.25.409.374.157.14.313.281.475.417.145.121.293.237.442.354s.323.256.489.378.314.223.472.332.333.231.5.341.336.207.5.309.338.2.511.3.36.192.542.286.338.176.51.259c.2.093.394.179.592.266.125.054.245.115.371.167.042.017.084.03.126.047.2.083.413.157.621.233.167.06.334.124.5.18.205.067.412.126.618.187.176.052.351.106.527.153.2.052.4.1.607.142.184.042.368.087.553.123.2.04.4.07.6.1s.378.064.567.089.4.043.6.063.389.041.583.054.388.018.582.025.406.017.609.018c.184,0,.369-.007.554-.012.214-.005.428-.009.642-.021.174-.011.348-.029.522-.044.225-.02.45-.038.675-.066.042-.005.084-.007.127-.012.127-.017.252-.043.379-.062.226-.034.45-.068.674-.11.174-.033.345-.072.516-.109.216-.047.431-.094.645-.148.175-.045.348-.095.521-.145.207-.059.414-.118.62-.184.175-.057.346-.119.519-.18.2-.071.4-.142.6-.22.174-.068.344-.142.516-.216.192-.082.383-.164.572-.252.173-.081.342-.168.512-.254s.365-.184.545-.283.342-.2.512-.3.341-.2.509-.306.345-.228.517-.344c.118-.08.24-.154.357-.238.039-.027.074-.058.113-.085.172-.126.34-.258.509-.389.145-.113.292-.224.433-.341.167-.137.328-.282.49-.425.134-.119.271-.236.4-.359.16-.15.313-.306.467-.461.124-.125.251-.248.372-.376.152-.162.3-.331.444-.5C4763.294,1134.334,4763.41,1134.207,4763.52,1134.075Zm-13.44,5.36c-.249.015-.5.019-.745.024-.139,0-.279.01-.418.009s-.3-.009-.452-.014c-.234-.007-.468-.013-.7-.029l-.145-.014a17.506,17.506,0,0,1,1.434-34.956c.206,0,.412,0,.617.009.126.005.253.014.379.021.265.016.53.035.792.063l.207.024c.32.038.639.082.955.137l.03.006a17.512,17.512,0,0,1-.795,34.609c-.33.043-.66.073-.99.1Z" fill="#404040"/><path d="M4748.658,1103.191h.016v-.01Z" fill="#404040"/><path d="M4756.836,1104.886c-.433-.195-.88-.383-1.326-.547l-.434,1.182c.421.151.836.327,1.257.509Z" fill="#404040"/><path d="M4754.68,1114.509a1.886,1.886,0,1,1-1.885,1.886A1.885,1.885,0,0,1,4754.68,1114.509Zm-4.4,2.515h1.32a3.178,3.178,0,0,0,.459,1.1l-.936.936a.625.625,0,0,0-.22.453.627.627,0,0,0,.653.653.624.624,0,0,0,.453-.22l.936-.936a3.138,3.138,0,0,0,1.107.465v1.32a.629.629,0,1,0,1.257,0v-1.32a3.153,3.153,0,0,0,1.1-.459l.936.937a.629.629,0,0,0,.887-.887l-.937-.936a3.131,3.131,0,0,0,.465-1.106h1.32a.629.629,0,0,0,0-1.258h-1.32a3.149,3.149,0,0,0-.459-1.1l.937-.936a.628.628,0,0,0-.886-.886l-.937.936a3.152,3.152,0,0,0-1.106-.465v-1.32a.629.629,0,0,0-1.257,0v1.32a3.147,3.147,0,0,0-1.1.459l-.937-.937a.629.629,0,0,0-.886.887l.936.936a3.149,3.149,0,0,0-.465,1.106h-1.32a.629.629,0,0,0,0,1.258Z" fill="#404040"/><path d="M4740.852,1113.252a.629.629,0,1,1-.629.629.628.628,0,0,1,.629-.629Zm0,2.514a1.886,1.886,0,1,0-1.886-1.885A1.888,1.888,0,0,0,4740.852,1115.766Z" fill="#404040"/><path d="M4756.566,1130.223a.629.629,0,0,1-.582-.388.63.63,0,0,1,.822-.822.629.629,0,0,1-.24,1.21Zm0-2.514a1.886,1.886,0,1,0,1.886,1.886A1.887,1.887,0,0,0,4756.566,1127.709Z" fill="#404040"/><path d="M4744,1128.338a1.257,1.257,0,1,1,.889-.368,1.258,1.258,0,0,1-.889.368Zm0-3.772a2.516,2.516,0,1,0,1.777.737,2.514,2.514,0,0,0-1.777-.737Z" fill="#404040"/><path d="M4750.909,1130.852a.629.629,0,0,0-.629.629v.942a.316.316,0,0,1-.314.315,1.572,1.572,0,0,0-1.571,1.571v.943a.628.628,0,1,0,1.257,0v-.943a.315.315,0,0,1,.314-.314,1.574,1.574,0,0,0,1.572-1.572v-.942a.628.628,0,0,0-.629-.629Z" fill="#404040"/><path d="M4740.223,1120.939l-.666.667a.317.317,0,0,1-.446,0,1.608,1.608,0,0,0-2.225,0l-.667.666a.628.628,0,1,0,.861.892l.667-.666a.316.316,0,0,1,.446,0,1.608,1.608,0,0,0,2.225,0l.666-.666a.629.629,0,0,0-.861-.893Z" fill="#404040"/><path d="M4748.564,1113.554l-.666-.666a.315.315,0,0,1,0-.447,1.571,1.571,0,0,0,0-2.225l-.666-.666a.629.629,0,0,0-.887.886l.667.667a.316.316,0,0,1,.092.223.319.319,0,0,1-.092.223,1.57,1.57,0,0,0,0,2.225l.666.666a.628.628,0,0,0,.886-.886Z" fill="#404040"/><rect width="1.257" height="1.257" transform="translate(4743.995 1117.024)" fill="#404040"/><rect width="1.257" height="1.257" transform="translate(4759.708 1122.68)" fill="#404040"/><rect width="1.257" height="1.257" transform="translate(4749.651 1123.938)" fill="#404040"/><rect width="1.257" height="1.257" transform="translate(4737.08 1126.452)" fill="#404040"/><path d="M4754.68,1114.509a1.886,1.886,0,1,1-1.885,1.886A1.885,1.885,0,0,1,4754.68,1114.509Z" fill="#37b24a"/><path d="M4744,1128.338a1.257,1.257,0,1,1,.889-.368,1.258,1.258,0,0,1-.889.368Z" fill="#37b24a"/></g></svg>